<svg width="125" height="30" viewBox="0 0 125 30" fill="none" xmlns="http://www.w3.org/2000/svg">
<path d="M35.0356 9.63999V5.26343H36.0872L37.315 7.73131L37.4185 7.95624L37.5157 7.73131L38.7375 5.26343H39.7951V9.63999H39.0051V6.50344L39.0111 6.18132L38.8653 6.50344L37.698 8.76468H37.1326L35.9596 6.49729L35.8199 6.19346L35.8259 6.51558V9.63998L35.0356 9.63999Z" fill="#364650"/>
<path d="M40.7739 9.63988V5.26332H41.5639V8.57608L41.7706 8.26009L43.8616 5.26331H44.6516V9.63988H43.8616V6.327L43.6792 6.61279L41.5639 9.63988H40.7739Z" fill="#364650"/>
<path d="M48.548 5.26343H49.3868V9.63999H48.548V7.70087H46.463V9.63999H45.6304V5.26343H46.463V7.01405H48.548V5.26343Z" fill="#364650"/>
<path d="M50.3599 9.63988V5.26332H51.1501V8.57608L51.3568 8.26009L53.4478 5.26331H54.2378V9.63988H53.4478V6.327L53.2655 6.61279L51.1502 9.63988H50.3599Z" fill="#364650"/>
<path d="M57.1119 9.72493C56.8254 9.73942 56.5391 9.69241 56.2723 9.58706C56.0055 9.4817 55.7643 9.32045 55.565 9.11413C55.1685 8.65863 54.9646 8.06678 54.9965 7.4637C54.9641 6.85509 55.1677 6.25742 55.565 5.79524C55.7633 5.58726 56.0042 5.42449 56.2711 5.31801C56.5381 5.21153 56.8248 5.16384 57.1119 5.1782C57.5495 5.15308 57.9825 5.27878 58.3387 5.53432C58.6949 5.78985 58.9527 6.15978 59.0691 6.5824L58.2485 6.80734C58.2 6.54174 58.0595 6.30172 57.8516 6.12942C57.6437 5.95712 57.3818 5.86356 57.1119 5.86515C56.9394 5.85795 56.7678 5.89261 56.6116 5.96618C56.4555 6.03974 56.3195 6.15002 56.2152 6.28759C55.9796 6.63282 55.8652 7.04648 55.89 7.46373C55.8654 7.87575 55.9812 8.28395 56.2184 8.62173C56.3234 8.75728 56.4592 8.8658 56.6146 8.93823C56.7701 9.01066 56.9405 9.04493 57.1119 9.03816C57.368 9.04357 57.6174 8.95611 57.8141 8.79194C58.0237 8.60725 58.1747 8.36533 58.2485 8.09594L59.0691 8.32688C58.9471 8.73857 58.6969 9.10057 58.3548 9.3602C57.9912 9.61362 57.5548 9.74166 57.1119 9.72493Z" fill="#364650"/>
<path d="M62.9179 5.26343V5.95029H61.5808V9.63999H60.7419V5.95029H59.4106V5.26347L62.9179 5.26343Z" fill="#364650"/>
<path d="M66.6358 5.95029H64.3624V7.06268H66.5143V7.68276H64.3624V8.95321H66.6358V9.64003H63.5298V5.26343H66.6358V5.95029Z" fill="#364650"/>
<path d="M69.1393 5.26332C69.6422 5.22235 70.1455 5.33807 70.58 5.59458C70.7343 5.72227 70.8553 5.8855 70.9325 6.07026C71.0098 6.25501 71.041 6.45575 71.0236 6.65525C71.0236 7.57925 70.3955 8.04123 69.1393 8.04117H68.3004V9.63988H67.4678V5.26332H69.1393ZM69.1393 7.39693C69.8323 7.39693 70.1788 7.1477 70.1787 6.64924C70.1864 6.54403 70.1676 6.43857 70.124 6.34248C70.0805 6.24639 70.0136 6.16271 69.9295 6.09905C69.6901 5.96113 69.4147 5.89866 69.1393 5.91983H68.3004V7.39693H69.1393Z" fill="#364650"/>
<path d="M73.6602 9.72496C73.3737 9.73945 73.0874 9.69244 72.8206 9.58709C72.5538 9.48173 72.3127 9.32048 72.1133 9.11416C71.7168 8.65866 71.5129 8.06681 71.5449 7.46373C71.5124 6.85511 71.716 6.25745 72.1133 5.79527C72.3117 5.58729 72.5525 5.42451 72.8195 5.31802C73.0864 5.21154 73.3732 5.16384 73.6602 5.1782C74.0978 5.15308 74.5309 5.27878 74.8871 5.53432C75.2432 5.78985 75.501 6.15979 75.6175 6.58241L74.7969 6.80734C74.7484 6.54174 74.6078 6.30172 74.4 6.12942C74.1921 5.95712 73.9302 5.86356 73.6602 5.86515C73.4877 5.85795 73.3161 5.89261 73.16 5.96618C73.0038 6.03974 72.8678 6.15002 72.7636 6.28759C72.528 6.63282 72.4136 7.04649 72.4383 7.46373C72.4137 7.87575 72.5295 8.28395 72.7667 8.62173C72.8717 8.75728 73.0076 8.8658 73.163 8.93823C73.3184 9.01066 73.4889 9.04493 73.6602 9.03816C73.9163 9.04357 74.1658 8.95611 74.3624 8.79194C74.572 8.60725 74.723 8.36533 74.7969 8.09594L75.6175 8.32688C75.4954 8.73858 75.2452 9.1006 74.9032 9.36025C74.5395 9.61367 74.1032 9.7417 73.6602 9.72496Z" fill="#364650"/>
<path d="M79.4668 5.26343V5.95029H78.1297V9.63999H77.2908V5.95029H75.9595V5.26347L79.4668 5.26343Z" fill="#364650"/>
<path d="M82.6558 7.37252C82.9482 7.3894 83.2255 7.50764 83.4401 7.70692C83.5377 7.80464 83.6141 7.92152 83.6643 8.05021C83.7145 8.17889 83.7375 8.31658 83.7319 8.4546C83.7319 9.24475 83.1038 9.63985 81.8475 9.6399H80.0786V5.26334H81.7866C82.2518 5.2287 82.7172 5.32557 83.1299 5.54287C83.2696 5.63864 83.3818 5.76924 83.4554 5.92172C83.5289 6.07421 83.5614 6.24328 83.5495 6.41218C83.5546 6.53408 83.5354 6.65579 83.4932 6.77024C83.4509 6.88469 83.3863 6.98961 83.3032 7.07893C83.22 7.16825 83.12 7.24019 83.0089 7.29059C82.8978 7.34098 82.7778 7.36883 82.6558 7.37252ZM81.7684 5.88328H80.8992V7.08684H81.7987C82.4432 7.08684 82.7654 6.88829 82.7653 6.49119C82.7653 6.08601 82.433 5.88337 81.7684 5.88328ZM81.8293 9.01382C82.5302 9.01382 82.8807 8.79297 82.8808 8.35129C82.8808 7.88929 82.5181 7.65829 81.7927 7.65829H80.8992V9.01378L81.8293 9.01382Z" fill="#364650"/>
<path d="M87.955 9.11107C87.5293 9.50572 86.9703 9.725 86.3898 9.725C85.8093 9.725 85.2502 9.50572 84.8245 9.11107C84.4247 8.65598 84.2185 8.06269 84.25 7.45776C84.2172 6.84947 84.4221 6.25224 84.8213 5.79217C85.2482 5.39746 85.8082 5.17822 86.3896 5.17822C86.971 5.17822 87.531 5.39746 87.9579 5.79217C88.3572 6.25224 88.5621 6.84947 88.5293 7.45776C88.5607 8.06264 88.3546 8.65588 87.955 9.11107ZM86.3959 9.03818C86.5699 9.04541 86.7432 9.01146 86.9016 8.9391C87.06 8.86674 87.1992 8.75801 87.3076 8.62175C87.5491 8.2835 87.6671 7.87257 87.6418 7.45775C87.666 7.0402 87.5482 6.62675 87.3076 6.28461C87.1953 6.15154 87.0554 6.04454 86.8975 5.97104C86.7396 5.89754 86.5676 5.85932 86.3935 5.85902C86.2193 5.85872 86.0472 5.89636 85.8891 5.96931C85.731 6.04227 85.5906 6.14879 85.4779 6.28148C85.2364 6.62438 85.1185 7.0391 85.1435 7.45775C85.1182 7.87261 85.2363 8.28354 85.4779 8.62175C85.5873 8.75852 85.7275 8.86753 85.887 8.93989C86.0465 9.01225 86.2209 9.04593 86.3959 9.03818Z" fill="#364650"/>
<path d="M93.6227 5.26343H94.4615V9.63999H93.6227V7.70087H91.5377V9.63999H90.7051V5.26343H91.5377V7.01405H93.6227V5.26343Z" fill="#364650"/>
<path d="M98.5272 9.63999L98.1442 8.55189H96.2901L95.9071 9.63999H95.0439L96.7157 5.26343H97.7246L99.3963 9.63999H98.5272ZM96.515 7.91366H97.9193L97.3053 6.1569L97.2202 5.87122L97.135 6.15089L96.515 7.91366Z" fill="#364650"/>
<path d="M100.522 9.71902C100.349 9.72313 100.177 9.70057 100.011 9.65214V8.97746C100.17 9.0075 100.33 9.02376 100.491 9.02605C100.649 9.03278 100.804 8.98326 100.929 8.88629C100.988 8.83509 101.033 8.77115 101.063 8.69945C101.092 8.62774 101.105 8.55021 101.099 8.47286C101.087 8.29272 101.033 8.11793 100.941 7.96225L99.5371 5.26343H100.431L101.64 7.78604L102.765 5.26343H103.652L102.133 8.41813C101.974 8.79343 101.745 9.13491 101.458 9.4242C101.193 9.63485 100.86 9.73988 100.522 9.71902Z" fill="#364650"/>
<path d="M107.015 9.63999L105.726 7.67057H105.076V9.63999H104.255V5.26343H105.076V7.02006H105.714L106.918 5.26343H107.854L106.358 7.31801L107.945 9.64001L107.015 9.63999Z" fill="#364650"/>
<path d="M108.536 9.63988V5.26332H109.326V8.57608L109.533 8.26009L111.624 5.26331H112.414V9.63988H111.624V6.327L111.442 6.61279L109.326 9.63988H108.536Z" fill="#364650"/>
<path d="M35.0356 16.9341V12.5576H35.8259V15.8702L36.0326 15.5544L38.1236 12.5576H38.9138V16.9341H38.1236V13.6213L37.9412 13.9071L35.8259 16.9341H35.0356Z" fill="#364650"/>
<path d="M43.9102 14.6668C44.2025 14.6838 44.4798 14.802 44.6945 15.0012C44.7921 15.0989 44.8684 15.2158 44.9186 15.3445C44.9687 15.4731 44.9917 15.6108 44.986 15.7488C44.986 16.5391 44.3579 16.9342 43.1017 16.9341H41.333V12.5576H43.041C43.506 12.523 43.9715 12.6199 44.3841 12.8372C44.5237 12.9329 44.6359 13.0635 44.7095 13.216C44.7831 13.3685 44.8155 13.5376 44.8036 13.7065C44.8088 13.8284 44.7896 13.9501 44.7474 14.0645C44.7051 14.179 44.6406 14.2839 44.5575 14.3732C44.4744 14.4625 44.3744 14.5345 44.2633 14.5849C44.1522 14.6353 44.0322 14.6631 43.9102 14.6668ZM43.0228 13.1776H42.1536V14.3812H43.0531C43.6976 14.3812 44.0198 14.1826 44.0197 13.7855C44.0197 13.3803 43.6874 13.1777 43.0228 13.1776ZM43.0836 16.3081C43.7846 16.3081 44.135 16.0873 44.1349 15.6456C44.1349 15.1834 43.7723 14.9524 43.0471 14.9526H42.1536V16.3081L43.0836 16.3081Z" fill="#364650"/>
<path d="M47.3902 14.2778C47.8859 14.2428 48.3802 14.364 48.8035 14.6244C48.9498 14.7449 49.0679 14.8962 49.1493 15.0674C49.2307 15.2387 49.2735 15.4257 49.2747 15.6153C49.2758 15.8049 49.2354 15.9924 49.1561 16.1646C49.0768 16.3368 48.9606 16.4896 48.8158 16.6119C48.3831 16.8584 47.8868 16.9705 47.3902 16.9341H45.7188V12.5576H46.5513V14.2778H47.3902ZM47.3902 16.2958C47.6645 16.3163 47.9388 16.2572 48.1804 16.1257C48.2635 16.0674 48.33 15.9887 48.3737 15.8971C48.4173 15.8055 48.4366 15.7042 48.4297 15.603C48.4297 15.1408 48.0832 14.9098 47.3902 14.91H46.5513V16.2958L47.3902 16.2958ZM49.9493 12.5576H50.7759V16.934H49.9493V12.5576Z" fill="#364650"/>
<path d="M53.6499 17.0193C53.3634 17.0338 53.0772 16.9867 52.8104 16.8814C52.5435 16.776 52.3024 16.6148 52.1031 16.4085C51.7065 15.953 51.5027 15.3611 51.5346 14.758C51.5021 14.1494 51.7058 13.5518 52.1031 13.0896C52.3014 12.8816 52.5423 12.7188 52.8092 12.6123C53.0761 12.5058 53.3629 12.4582 53.6499 12.4725C54.0876 12.4474 54.5206 12.5731 54.8768 12.8286C55.233 13.0842 55.4908 13.4541 55.6072 13.8767L54.7866 14.1016C54.7381 13.836 54.5976 13.596 54.3897 13.4237C54.1818 13.2514 53.9199 13.1579 53.6499 13.1595C53.4775 13.1523 53.3059 13.1869 53.1497 13.2605C52.9936 13.3341 52.8576 13.4443 52.7533 13.5819C52.5177 13.9271 52.4033 14.3408 52.4281 14.758C52.4035 15.1701 52.5193 15.5782 52.7565 15.916C52.8615 16.0516 52.9973 16.1601 53.1527 16.2325C53.3081 16.305 53.4786 16.3392 53.6499 16.3325C53.9061 16.3379 54.1556 16.2504 54.3522 16.0861C54.5617 15.9014 54.7128 15.6595 54.7866 15.3901L55.6072 15.6211C55.4852 16.0328 55.2349 16.3948 54.893 16.6546C54.5293 16.908 54.0929 17.036 53.6499 17.0193Z" fill="#364650"/>
<path d="M61.227 12.5576H62.0659V16.9341H56.2729V12.5576H57.1055V16.2472H58.7713V12.5576H59.5676V16.2472H61.227V12.5576Z" fill="#364650"/>
<path d="M66.147 13.2444H63.8736V14.3568H66.0255V14.9769H63.8736V16.2472H66.147V16.9341H63.041V12.5576H66.147V13.2444Z" fill="#364650"/>
<path d="M69.8783 12.5576V13.2444H67.8116V16.9341H66.979V12.5576H69.8783Z" fill="#364650"/>
<path d="M73.893 16.4054C73.4673 16.8 72.9082 17.0193 72.3277 17.0193C71.7472 17.0193 71.1882 16.8 70.7625 16.4054C70.3627 15.9503 70.1565 15.357 70.188 14.7521C70.1552 14.1438 70.3601 13.5465 70.7593 13.0865C71.1862 12.6918 71.7462 12.4725 72.3276 12.4725C72.909 12.4725 73.469 12.6918 73.8959 13.0865C74.2951 13.5465 74.5 14.1438 74.4672 14.7521C74.4986 15.3569 74.2926 15.9502 73.893 16.4054ZM72.3339 16.3325C72.5079 16.3397 72.6812 16.3058 72.8396 16.2334C72.998 16.161 73.1371 16.0523 73.2456 15.916C73.4871 15.5778 73.605 15.1669 73.5798 14.7521C73.604 14.3345 73.4862 13.9211 73.2456 13.5789C73.1333 13.4458 72.9933 13.3388 72.8355 13.2653C72.6776 13.1918 72.5056 13.1536 72.3315 13.1533C72.1573 13.153 71.9852 13.1907 71.8271 13.2636C71.669 13.3366 71.5286 13.4431 71.4159 13.5758C71.1744 13.9187 71.0565 14.3334 71.0814 14.7521C71.0562 15.1669 71.1743 15.5778 71.4159 15.916C71.5253 16.0528 71.6655 16.1618 71.825 16.2342C71.9845 16.3066 72.1589 16.3402 72.3339 16.3325Z" fill="#364650"/>
<path d="M80.1054 16.4054C79.6797 16.8 79.1206 17.0193 78.5401 17.0193C77.9596 17.0193 77.4006 16.8 76.9749 16.4054C76.5751 15.9503 76.3689 15.357 76.4004 14.7521C76.3676 14.1438 76.5725 13.5465 76.9717 13.0865C77.3986 12.6918 77.9586 12.4725 78.54 12.4725C79.1214 12.4725 79.6814 12.6918 80.1083 13.0865C80.5075 13.5465 80.7124 14.1438 80.6796 14.7521C80.711 15.3569 80.505 15.9502 80.1054 16.4054ZM78.5463 16.3325C78.7203 16.3397 78.8936 16.3058 79.052 16.2334C79.2104 16.161 79.3495 16.0523 79.458 15.916C79.6995 15.5778 79.8174 15.1669 79.7922 14.7521C79.8164 14.3345 79.6986 13.9211 79.458 13.5789C79.3457 13.4458 79.2057 13.3388 79.0479 13.2653C78.89 13.1918 78.718 13.1536 78.5439 13.1533C78.3697 13.153 78.1976 13.1907 78.0395 13.2636C77.8814 13.3366 77.741 13.4431 77.6283 13.5758C77.3868 13.9187 77.2689 14.3334 77.2938 14.7521C77.2686 15.1669 77.3867 15.5778 77.6283 15.916C77.7377 16.0528 77.8779 16.1618 78.0374 16.2342C78.1969 16.3066 78.3713 16.3402 78.5463 16.3325Z" fill="#364650"/>
<path d="M83.107 14.3021C84.3634 14.3021 84.9915 14.7397 84.9914 15.615C85.0071 15.8062 84.9744 15.9983 84.8963 16.1736C84.8183 16.3489 84.6973 16.5017 84.5447 16.6179C84.1072 16.863 83.6069 16.9731 83.107 16.9341H81.4355V12.5576H84.6147V13.2444H82.2682V14.3021H83.107ZM83.107 16.2958C83.8001 16.2958 84.1466 16.0709 84.1465 15.621C84.1465 15.1591 83.8 14.9282 83.107 14.9282H82.2682V16.2958H83.107Z" fill="#364650"/>
<path d="M87.3463 12.5576C87.8492 12.5167 88.3525 12.6324 88.787 12.8889C88.9413 13.0166 89.0623 13.1798 89.1396 13.3646C89.2168 13.5493 89.2481 13.7501 89.2307 13.9496C89.2307 14.8736 88.6025 15.3355 87.3463 15.3355H86.5074V16.9341H85.6748V12.5576H87.3463ZM87.3463 14.6912C88.0394 14.6912 88.3859 14.442 88.3858 13.9435C88.3934 13.8383 88.3746 13.7329 88.3311 13.6368C88.2875 13.5407 88.2207 13.457 88.1365 13.3934C87.8972 13.2554 87.6217 13.193 87.3463 13.2141H86.5074V14.6912H87.3463Z" fill="#364650"/>
<path d="M92.6522 16.9341L92.2692 15.8459H90.4151L90.0321 16.9341H89.1689L90.8407 12.5576H91.8496L93.5213 16.9341H92.6522ZM90.64 15.2077H92.0443L91.4303 13.4511L91.3452 13.1654L91.26 13.4451L90.64 15.2077Z" fill="#364650"/>
<path d="M95.4035 17.0132C94.8661 17.0171 94.3389 16.8674 93.8838 16.5816L94.1876 16.004C94.5248 16.2256 94.921 16.34 95.3243 16.3324C95.5718 16.348 95.8179 16.2841 96.0266 16.1501C96.1075 16.09 96.1723 16.0108 96.2152 15.9196C96.2582 15.8284 96.2779 15.728 96.2726 15.6273C96.2773 15.5316 96.259 15.4362 96.2194 15.349C96.1798 15.2618 96.1199 15.1853 96.0448 15.1258C95.8532 14.9946 95.623 14.9314 95.3912 14.9465H94.7773V14.3447H95.3912C95.5989 14.3593 95.8044 14.2941 95.9657 14.1623C96.0308 14.1022 96.0822 14.0287 96.1162 13.9468C96.1503 13.865 96.1663 13.7768 96.1632 13.6882C96.1632 13.3154 95.8876 13.129 95.3366 13.129C94.973 13.1154 94.6161 13.2293 94.3276 13.4511L93.963 12.9284C94.3851 12.6192 94.8988 12.4608 95.4218 12.4786C95.8143 12.4603 96.2035 12.5586 96.5402 12.7613C96.6766 12.8482 96.7877 12.9696 96.8624 13.1131C96.9371 13.2566 96.9728 13.4172 96.9657 13.5789C96.9644 13.7905 96.9101 13.9984 96.8077 14.1836C96.6922 14.3888 96.5066 14.5453 96.2849 14.6244C96.4134 14.6401 96.5372 14.6823 96.6486 14.7482C96.76 14.814 96.8566 14.9022 96.9323 15.0072C97.0754 15.212 97.1509 15.4564 97.1481 15.7062C97.1534 15.891 97.1135 16.0742 97.032 16.24C96.9504 16.4058 96.8295 16.5492 96.6799 16.6577C96.3051 16.9133 95.8565 17.0382 95.4035 17.0132Z" fill="#364650"/>
<path d="M101.38 16.4054C100.955 16.8 100.396 17.0193 99.815 17.0193C99.2345 17.0193 98.6755 16.8 98.2498 16.4054C97.85 15.9503 97.6439 15.357 97.6753 14.7521C97.6425 14.1438 97.8474 13.5466 98.2466 13.0865C98.6735 12.6918 99.2335 12.4725 99.8149 12.4725C100.396 12.4725 100.956 12.6918 101.383 13.0865C101.782 13.5466 101.987 14.1438 101.955 14.7521C101.986 15.3569 101.78 15.9502 101.38 16.4054ZM99.8212 16.3325C99.9952 16.3397 100.168 16.3058 100.327 16.2334C100.485 16.1611 100.624 16.0523 100.733 15.9161C100.974 15.5778 101.092 15.1669 101.067 14.7521C101.091 14.3345 100.974 13.9211 100.733 13.5789C100.621 13.4459 100.481 13.3388 100.323 13.2654C100.165 13.1919 99.9929 13.1536 99.8188 13.1533C99.6446 13.153 99.4725 13.1907 99.3144 13.2636C99.1563 13.3366 99.0159 13.4431 98.9032 13.5758C98.6617 13.9187 98.5438 14.3334 98.5687 14.7521C98.5436 15.1669 98.6616 15.5778 98.9032 15.9161C99.0126 16.0528 99.1528 16.1618 99.3123 16.2342C99.4718 16.3066 99.6462 16.3402 99.8212 16.3325Z" fill="#364650"/>
<path d="M105.287 14.6668C105.58 14.6837 105.857 14.802 106.071 15.0012C106.169 15.0989 106.245 15.2158 106.296 15.3444C106.346 15.4731 106.369 15.6108 106.363 15.7488C106.363 16.5391 105.735 16.9342 104.479 16.9341H102.71V12.5576H104.418C104.883 12.523 105.349 12.6199 105.761 12.8372C105.901 12.933 106.013 13.0636 106.087 13.216C106.16 13.3685 106.193 13.5376 106.181 13.7065C106.186 13.8284 106.167 13.9501 106.125 14.0646C106.082 14.179 106.018 14.2839 105.935 14.3732C105.851 14.4626 105.751 14.5345 105.64 14.5849C105.529 14.6353 105.409 14.6632 105.287 14.6668ZM104.4 13.1776H103.531V14.3812H104.43C105.075 14.3812 105.397 14.1826 105.397 13.7855C105.397 13.3803 105.064 13.1777 104.4 13.1776ZM104.461 16.3081C105.162 16.3081 105.512 16.0873 105.512 15.6456C105.512 15.1834 105.149 14.9524 104.424 14.9526H103.531V16.3081L104.461 16.3081Z" fill="#364650"/>
<path d="M110.136 16.9341L109.753 15.8459H107.899L107.516 16.9341H106.653L108.325 12.5576H109.333L111.005 16.9341H110.136ZM108.124 15.2077H109.528L108.914 13.4511L108.829 13.1654L108.744 13.4451L108.124 15.2077Z" fill="#364650"/>
<path d="M114.511 12.5576H115.35V16.9341H114.511V14.995H112.426V16.9341H111.594V12.5576H112.426V14.3082H114.511V12.5576Z" fill="#364650"/>
<path d="M116.323 16.9341V12.5576H117.113V15.8702L117.32 15.5544L119.411 12.5576H120.201V16.9341H119.411V13.6213L119.228 13.9071L117.113 16.9341H116.323Z" fill="#364650"/>
<path d="M124.587 12.5577V16.9341H123.76V15.2384H122.903C122.848 15.2392 122.793 15.2371 122.739 15.2321L121.778 16.9341H120.86L121.967 15.1046C121.687 15.0204 121.44 14.8503 121.262 14.6183C121.106 14.4002 121.025 14.1381 121.03 13.8706C121.017 13.6807 121.051 13.4904 121.13 13.3172C121.209 13.1441 121.331 12.9936 121.483 12.8798C121.903 12.6349 122.387 12.5226 122.872 12.5577L124.587 12.5577ZM122.872 14.6062H123.76V13.2081H122.872C122.208 13.2081 121.875 13.435 121.876 13.8889C121.869 13.9886 121.886 14.0884 121.925 14.1806C121.963 14.2728 122.022 14.355 122.097 14.4208C122.328 14.5669 122.601 14.6321 122.872 14.6062Z" fill="#364650"/>
<path d="M36.7074 19.852C37.2102 19.8109 37.7135 19.9267 38.1479 20.1832C38.3022 20.3109 38.4232 20.4741 38.5005 20.6589C38.5778 20.8436 38.6091 21.0444 38.5917 21.2439C38.5917 22.1679 37.9636 22.6299 36.7074 22.6298H35.8685V24.2284H35.0356V19.852H36.7074ZM36.7074 21.9856C37.4002 21.9856 37.7466 21.7363 37.7466 21.2379C37.7542 21.1327 37.7354 21.0272 37.6919 20.9311C37.6484 20.835 37.5815 20.7514 37.4974 20.6877C37.2581 20.5498 36.9827 20.4873 36.7074 20.5085H35.8685V21.9856H36.7074Z" fill="#364650"/>
<path d="M42.818 23.6997C42.3924 24.0943 41.8334 24.3136 41.2529 24.3136C40.6724 24.3136 40.1134 24.0943 39.6878 23.6997C39.288 23.2445 39.0818 22.6512 39.1133 22.0462C39.0805 21.438 39.2854 20.8408 39.6846 20.3808C40.1115 19.9861 40.6715 19.7668 41.2529 19.7668C41.8343 19.7668 42.3943 19.9861 42.8212 20.3808C43.2204 20.8408 43.4253 21.438 43.3925 22.0462C43.424 22.6512 43.2178 23.2445 42.818 23.6997ZM41.2589 23.6268C41.4329 23.6341 41.6062 23.6002 41.7647 23.5278C41.9231 23.4554 42.0622 23.3467 42.1707 23.2104C42.4122 22.8721 42.5303 22.4611 42.5051 22.0462C42.5292 21.6287 42.4113 21.2153 42.1707 20.8732C42.0584 20.7402 41.9184 20.6332 41.7606 20.5597C41.6027 20.4862 41.4307 20.448 41.2566 20.4477C41.0825 20.4474 40.9104 20.485 40.7523 20.558C40.5942 20.6309 40.4539 20.7374 40.3411 20.8701C40.0997 21.213 39.9818 21.6276 40.0067 22.0462C39.9815 22.4611 40.0996 22.8721 40.3411 23.2104C40.4505 23.3471 40.5907 23.4561 40.7502 23.5285C40.9096 23.6008 41.0839 23.6345 41.2589 23.6268Z" fill="#364650"/>
<path d="M46.0809 24.3136C45.7944 24.328 45.5082 24.281 45.2414 24.1757C44.9746 24.0703 44.7335 23.9091 44.5343 23.7028C44.1376 23.2473 43.9337 22.6554 43.9658 22.0522C43.9332 21.4436 44.1368 20.8459 44.5343 20.3839C44.7326 20.1759 44.9734 20.0131 45.2403 19.9066C45.5071 19.8001 45.7939 19.7525 46.0809 19.7668C46.5185 19.7417 46.9515 19.8674 47.3077 20.1229C47.6639 20.3785 47.9217 20.7484 48.0381 21.171L47.2178 21.396C47.1693 21.1303 47.0287 20.8902 46.8208 20.7179C46.6129 20.5455 46.3509 20.452 46.0808 20.4536C45.9084 20.4464 45.7367 20.4811 45.5806 20.5547C45.4244 20.6282 45.2885 20.7385 45.1842 20.8761C44.9487 21.2213 44.8344 21.635 44.8592 22.0522C44.8345 22.4642 44.9502 22.8725 45.1873 23.2103C45.2923 23.3459 45.4282 23.4544 45.5836 23.5268C45.739 23.5992 45.9095 23.6335 46.0808 23.6268C46.337 23.6323 46.5865 23.5448 46.783 23.3804C46.9926 23.1957 47.1437 22.9538 47.2178 22.6844L48.0381 22.9154C47.916 23.3271 47.6658 23.6891 47.3238 23.9489C46.9601 24.2023 46.5238 24.3303 46.0809 24.3136Z" fill="#364650"/>
<path d="M50.6534 24.3136C50.3669 24.3281 50.0806 24.2811 49.8138 24.1757C49.547 24.0704 49.3058 23.9091 49.1065 23.7028C48.71 23.2472 48.5061 22.6553 48.538 22.0522C48.5055 21.4436 48.7092 20.846 49.1065 20.3839C49.3048 20.1759 49.5457 20.0131 49.8126 19.9066C50.0796 19.8001 50.3663 19.7524 50.6534 19.7668C51.091 19.7417 51.524 19.8674 51.8802 20.1229C52.2364 20.3785 52.4942 20.7484 52.6106 21.171L51.7901 21.396C51.7416 21.1303 51.6011 20.8903 51.3932 20.718C51.1853 20.5456 50.9234 20.452 50.6534 20.4536C50.4809 20.4464 50.3093 20.4811 50.1531 20.5547C49.997 20.6282 49.861 20.7385 49.7568 20.8761C49.5211 21.2213 49.4068 21.635 49.4315 22.0522C49.4069 22.4643 49.5227 22.8725 49.7599 23.2103C49.8649 23.3459 50.0007 23.4544 50.1562 23.5268C50.3116 23.5993 50.482 23.6335 50.6534 23.6268C50.9095 23.6322 51.159 23.5447 51.3556 23.3804C51.5652 23.1957 51.7162 22.9538 51.7901 22.6844L52.6106 22.9154C52.4886 23.3271 52.2384 23.6891 51.8964 23.9489C51.5327 24.2023 51.0963 24.3303 50.6534 24.3136Z" fill="#364650"/>
<path d="M53.2769 24.2285V19.8521H54.0671V23.1647L54.2738 22.8488L56.3648 19.8521H57.1548V24.2285H56.3648V20.9156L56.1824 21.2014L54.0671 24.2285H53.2769Z" fill="#364650"/>
<path d="M58.1333 24.2285V19.852H58.9236V23.1647L59.1302 22.8488L61.2212 19.852H62.0112V24.2285H61.2212V20.9156L61.0389 21.2014L58.9236 24.2285H58.1333ZM60.8929 19.1315C60.6653 19.322 60.3748 19.4207 60.0783 19.4081C59.7796 19.4199 59.4871 19.3202 59.2577 19.1286C59.1509 19.0349 59.066 18.9188 59.0093 18.7885C58.9526 18.6582 58.9254 18.5169 58.9296 18.3749H59.5435C59.5486 18.5416 59.6108 18.7014 59.7199 18.8276C59.7657 18.8789 59.8219 18.9198 59.8848 18.9476C59.9477 18.9754 60.0158 18.9894 60.0846 18.9888C60.1529 18.9895 60.2206 18.9755 60.283 18.9477C60.3454 18.9199 60.401 18.8789 60.4461 18.8276C60.5526 18.701 60.6098 18.5403 60.6073 18.3749H61.2273C61.2283 18.5175 61.199 18.6587 61.1414 18.7891C61.0837 18.9195 60.999 19.0363 60.8929 19.1315V19.1315Z" fill="#364650"/>
<path d="M64.8853 24.3136C64.5988 24.3281 64.3125 24.2811 64.0457 24.1757C63.7789 24.0704 63.5377 23.9091 63.3384 23.7028C62.9419 23.2472 62.738 22.6553 62.77 22.0522C62.7375 21.4436 62.9411 20.846 63.3384 20.3839C63.5368 20.1759 63.7776 20.0131 64.0445 19.9066C64.3115 19.8001 64.5982 19.7524 64.8853 19.7668C65.3229 19.7417 65.756 19.8674 66.1121 20.1229C66.4683 20.3785 66.7261 20.7484 66.8426 21.171L66.022 21.396C65.9735 21.1303 65.833 20.8903 65.6251 20.718C65.4172 20.5456 65.1553 20.452 64.8853 20.4536C64.7128 20.4464 64.5412 20.4811 64.3851 20.5547C64.2289 20.6282 64.0929 20.7385 63.9887 20.8761C63.7531 21.2213 63.6387 21.635 63.6634 22.0522C63.6388 22.4643 63.7546 22.8725 63.9918 23.2103C64.0968 23.3459 64.2327 23.4544 64.3881 23.5268C64.5435 23.5993 64.714 23.6335 64.8853 23.6268C65.1414 23.6322 65.3909 23.5447 65.5875 23.3804C65.7971 23.1957 65.9481 22.9538 66.022 22.6844L66.8426 22.9154C66.7205 23.3271 66.4703 23.6891 66.1283 23.9489C65.7646 24.2023 65.3282 24.3303 64.8853 24.3136Z" fill="#364650"/>
<path d="M70.2679 24.2285L68.9794 22.2592H68.3289V24.2285H67.5083V19.8521H68.3289V21.6087H68.9671L70.1707 19.8521H71.1067L69.6113 21.9065L71.1979 24.2285L70.2679 24.2285Z" fill="#364650"/>
<path d="M74.9921 23.6997C74.5664 24.0943 74.0073 24.3136 73.4268 24.3136C72.8463 24.3136 72.2873 24.0943 71.8616 23.6997C71.4618 23.2445 71.2556 22.6512 71.2871 22.0462C71.2543 21.438 71.4592 20.8408 71.8584 20.3808C72.2853 19.9861 72.8453 19.7668 73.4267 19.7668C74.0081 19.7668 74.5681 19.9861 74.995 20.3808C75.3942 20.8408 75.5991 21.438 75.5663 22.0462C75.5977 22.6512 75.3917 23.2444 74.9921 23.6997ZM73.433 23.6268C73.607 23.634 73.7803 23.6001 73.9387 23.5277C74.0971 23.4554 74.2363 23.3466 74.3447 23.2104C74.5862 22.8721 74.7042 22.4611 74.6789 22.0462C74.7031 21.6287 74.5853 21.2153 74.3447 20.8732C74.2324 20.7402 74.0924 20.6332 73.9346 20.5597C73.7767 20.4862 73.6047 20.4479 73.4306 20.4476C73.2564 20.4473 73.0843 20.485 72.9262 20.5579C72.7681 20.6309 72.6277 20.7374 72.515 20.8701C72.2735 21.213 72.1556 21.6276 72.1806 22.0462C72.1553 22.4611 72.2734 22.8721 72.515 23.2104C72.6244 23.3471 72.7646 23.4561 72.9241 23.5285C73.0836 23.6009 73.258 23.6346 73.433 23.6268Z" fill="#364650"/>
<path d="M76.3223 24.2285V19.852H77.1125V23.1647L77.3192 22.8488L79.4102 19.852H80.2002V24.2285H79.4102V20.9156L79.2278 21.2014L77.1125 24.2285H76.3223ZM79.0818 19.1315C78.8543 19.322 78.5638 19.4207 78.2672 19.4081C77.9685 19.4199 77.6761 19.3202 77.4467 19.1286C77.3398 19.0349 77.255 18.9188 77.1982 18.7885C77.1415 18.6582 77.1143 18.5169 77.1185 18.3749H77.7325C77.7375 18.5416 77.7998 18.7014 77.9088 18.8276C77.9546 18.8789 78.0109 18.9198 78.0738 18.9476C78.1367 18.9754 78.2047 18.9894 78.2735 18.9888C78.3418 18.9895 78.4095 18.9755 78.4719 18.9477C78.5343 18.9199 78.59 18.8789 78.6351 18.8276C78.7415 18.701 78.7987 18.5403 78.7963 18.3749H79.4162C79.4172 18.5175 79.3879 18.6587 79.3303 18.7891C79.2726 18.9195 79.1879 19.0362 79.0818 19.1315V19.1315Z" fill="#364650"/>
<path d="M86.5948 20.7578C86.93 21.1023 87.1176 21.5641 87.1176 22.0448C87.1176 22.5255 86.93 22.9873 86.5948 23.3318C86.1831 23.6882 85.6619 23.893 85.1177 23.9123V24.3805H84.3335V23.9123C83.7901 23.8935 83.2697 23.6886 82.8595 23.3318C82.5261 22.9863 82.3398 22.5249 82.3398 22.0448C82.3398 21.5647 82.5261 21.1033 82.8595 20.7578C83.2689 20.3992 83.7896 20.1931 84.3335 20.1741V19.7H85.1177V20.1741C85.6624 20.1936 86.1839 20.3996 86.5948 20.7578ZM83.5008 21.2045C83.3043 21.441 83.1967 21.7388 83.1967 22.0464C83.1967 22.3539 83.3043 22.6517 83.5008 22.8882C83.7379 23.117 84.0475 23.2557 84.376 23.2804V20.8124C84.0474 20.8368 83.7378 20.9755 83.5009 21.2045H83.5008ZM85.0751 23.2804C85.4036 23.2557 85.7132 23.117 85.9503 22.8882C86.1468 22.6517 86.2544 22.3539 86.2544 22.0464C86.2544 21.7388 86.1468 21.441 85.9503 21.2045C85.7133 20.9755 85.4037 20.8368 85.0751 20.8124V23.2804Z" fill="#364650"/>
<path d="M90.9014 20.5388H88.628V21.6512H90.7799V22.2712H88.628V23.5417H90.9014V24.2285H87.7954V19.8521H90.9014V20.5388Z" fill="#364650"/>
<path d="M95.4053 23.5417H95.9767V25.1891H95.2473V24.2285H92.135V25.1891H91.4116V23.5417H91.8432C92.0326 23.2299 92.175 22.892 92.2659 22.5387C92.3604 22.1455 92.4204 21.7448 92.4451 21.3412L92.5483 19.8521H95.4053L95.4053 23.5417ZM93.3083 20.5266L93.2597 21.3412C93.2346 22.101 93.0611 22.8485 92.749 23.5417H94.5848V20.5266H93.3083Z" fill="#364650"/>
<path d="M99.7041 20.5388H97.4308V21.6512H99.5826V22.2712H97.4308V23.5417H99.7041V24.2285H96.5981V19.8521H99.7041V20.5388Z" fill="#364650"/>
<path d="M102.207 19.852C102.71 19.8109 103.213 19.9267 103.648 20.1832C103.802 20.3109 103.923 20.4741 104 20.6589C104.078 20.8436 104.109 21.0444 104.091 21.2439C104.091 22.1679 103.463 22.6299 102.207 22.6298H101.368V24.2284H100.536V19.852H102.207ZM102.207 21.9856C102.9 21.9856 103.247 21.7363 103.247 21.2379C103.254 21.1327 103.235 21.0272 103.192 20.9311C103.148 20.835 103.081 20.7514 102.997 20.6877C102.758 20.5498 102.483 20.4873 102.207 20.5085H101.368V21.9856H102.207Z" fill="#364650"/>
<path d="M107.512 24.2285L107.129 23.1404H105.275L104.892 24.2285H104.029L105.701 19.8521H106.71L108.382 24.2285H107.512ZM105.5 22.5022H106.905L106.291 20.7455L106.205 20.4597L106.12 20.7395L105.5 22.5022Z" fill="#364650"/>
<path d="M112.617 23.5417H113.213V25.4138H112.465V24.2285H108.97V19.8521H109.803V23.5417H111.778V19.8521H112.617L112.617 23.5417Z" fill="#364650"/>
<path d="M113.834 24.2285V19.8521H114.625V23.1647L114.831 22.8488L116.922 19.8521H117.712V24.2285H116.922V20.9156L116.74 21.2014L114.625 24.2285H113.834Z" fill="#364650"/>
<path d="M118.691 24.2285V19.8521H119.481V23.1647L119.688 22.8488L121.779 19.8521H122.569V24.2285H121.779V20.9156L121.596 21.2014L119.481 24.2285H118.691Z" fill="#364650"/>
<path fill-rule="evenodd" clip-rule="evenodd" d="M20.835 22.0479C20.793 22.0507 20.7534 22.0686 20.7236 22.0984C20.6938 22.1281 20.6757 22.1677 20.6729 22.2097C20.673 22.2527 20.6901 22.2938 20.7205 22.3241C20.7509 22.3545 20.7921 22.3715 20.835 22.3716C20.8564 22.3718 20.8776 22.3677 20.8974 22.3596C20.9171 22.3516 20.9351 22.3397 20.9503 22.3246C20.9655 22.3096 20.9775 22.2917 20.9857 22.272C20.9939 22.2522 20.9982 22.2311 20.9982 22.2097C20.9982 22.1884 20.9939 22.1672 20.9857 22.1475C20.9775 22.1278 20.9655 22.1099 20.9503 22.0948C20.9351 22.0798 20.9171 22.0679 20.8974 22.0598C20.8776 22.0518 20.8564 22.0477 20.835 22.0479Z" fill="#364650"/>
<path fill-rule="evenodd" clip-rule="evenodd" d="M21.3538 23.5532C21.3525 23.5748 21.3558 23.5964 21.3635 23.6167C21.3712 23.6369 21.3831 23.6553 21.3984 23.6706C21.4138 23.6859 21.4322 23.6978 21.4524 23.7054C21.4727 23.7131 21.4943 23.7164 21.5159 23.7151C21.5589 23.715 21.6 23.6979 21.6304 23.6676C21.6608 23.6373 21.678 23.5961 21.6781 23.5532C21.6794 23.5316 21.6761 23.5099 21.6684 23.4897C21.6607 23.4694 21.6488 23.451 21.6334 23.4357C21.6181 23.4204 21.5997 23.4086 21.5794 23.4009C21.5592 23.3932 21.5375 23.39 21.5159 23.3913C21.473 23.3913 21.4318 23.4084 21.4014 23.4387C21.371 23.4691 21.3539 23.5102 21.3538 23.5532Z" fill="#364650"/>
<path fill-rule="evenodd" clip-rule="evenodd" d="M20.8353 23.3912C20.7933 23.3941 20.7537 23.412 20.7238 23.4418C20.694 23.4716 20.676 23.5111 20.6731 23.5531C20.6718 23.5748 20.6751 23.5964 20.6828 23.6166C20.6905 23.6369 20.7025 23.6553 20.7178 23.6706C20.7331 23.6859 20.7515 23.6977 20.7718 23.7054C20.792 23.7131 20.8137 23.7163 20.8353 23.715C20.8567 23.7152 20.8778 23.7111 20.8976 23.7031C20.9174 23.695 20.9354 23.6831 20.9506 23.6681C20.9658 23.653 20.9778 23.6351 20.986 23.6154C20.9942 23.5956 20.9985 23.5745 20.9985 23.5531C20.9985 23.5318 20.9942 23.5106 20.986 23.4909C20.9778 23.4712 20.9658 23.4533 20.9506 23.4382C20.9354 23.4232 20.9174 23.4113 20.8976 23.4032C20.8778 23.3951 20.8567 23.3911 20.8353 23.3912Z" fill="#364650"/>
<path fill-rule="evenodd" clip-rule="evenodd" d="M22.0188 23.5532C22.0175 23.5748 22.0209 23.5964 22.0286 23.6167C22.0363 23.6369 22.0482 23.6553 22.0635 23.6706C22.0788 23.6859 22.0972 23.6978 22.1175 23.7054C22.1377 23.7131 22.1594 23.7164 22.181 23.7151C22.223 23.7122 22.2626 23.6943 22.2924 23.6645C22.3222 23.6348 22.3402 23.5952 22.3431 23.5532C22.3444 23.5316 22.3411 23.5099 22.3334 23.4897C22.3257 23.4694 22.3138 23.4511 22.2985 23.4357C22.2832 23.4204 22.2648 23.4086 22.2445 23.4009C22.2243 23.3932 22.2026 23.39 22.181 23.3913C22.139 23.3941 22.0994 23.4121 22.0696 23.4418C22.0397 23.4716 22.0217 23.5111 22.0188 23.5532Z" fill="#364650"/>
<path fill-rule="evenodd" clip-rule="evenodd" d="M20.6083 20.5425L20.6407 20.931L20.3164 20.8986V21.3195L20.6407 21.2871L20.6083 21.6918H21.0461L21.0137 21.2871L21.338 21.3195V20.8986L21.0137 20.931L21.0461 20.5425H20.6083Z" fill="#364650"/>
<path fill-rule="evenodd" clip-rule="evenodd" d="M21.1104 21.9185V23.2945H22.4562C22.3985 22.9554 22.2387 22.6421 21.9982 22.3962C21.7578 22.1504 21.448 21.9837 21.1104 21.9185Z" fill="#364650"/>
<path fill-rule="evenodd" clip-rule="evenodd" d="M20.8353 22.7112C20.7933 22.714 20.7537 22.732 20.7238 22.7617C20.694 22.7915 20.676 22.831 20.6731 22.8731C20.6718 22.8947 20.6751 22.9163 20.6828 22.9366C20.6905 22.9568 20.7025 22.9752 20.7178 22.9905C20.7331 23.0058 20.7515 23.0177 20.7718 23.0253C20.792 23.033 20.8137 23.0363 20.8353 23.0349C20.8782 23.0349 20.9194 23.0179 20.9497 22.9875C20.9801 22.9572 20.9972 22.916 20.9972 22.8731C20.9972 22.8301 20.9801 22.789 20.9497 22.7586C20.9194 22.7282 20.8782 22.7112 20.8353 22.7112Z" fill="#364650"/>
<path fill-rule="evenodd" clip-rule="evenodd" d="M21.3865 24.476C21.3339 24.5657 21.3022 24.6662 21.2938 24.7699C21.2854 24.8736 21.3004 24.9778 21.3378 25.0749C21.3472 25.1038 21.3623 25.1305 21.3821 25.1535C21.4019 25.1765 21.4261 25.1953 21.4533 25.2088C21.4804 25.2224 21.51 25.2304 21.5403 25.2324C21.5706 25.2345 21.601 25.2304 21.6297 25.2206C21.6756 25.2042 21.7148 25.1731 21.7412 25.1321C21.7676 25.0911 21.7797 25.0425 21.7756 24.994C21.782 24.8757 21.7464 24.7589 21.6753 24.6642C21.6041 24.5695 21.5019 24.5028 21.3865 24.476Z" fill="#364650"/>
<path fill-rule="evenodd" clip-rule="evenodd" d="M20.2674 24.476C20.089 24.476 19.862 24.735 19.862 24.994C19.86 25.0422 19.873 25.0898 19.8991 25.1304C19.9252 25.171 19.9632 25.2025 20.008 25.2206C20.066 25.2384 20.1287 25.2332 20.183 25.2061C20.2374 25.179 20.2792 25.132 20.2999 25.0749C20.3417 24.9795 20.3606 24.8756 20.355 24.7716C20.3493 24.6675 20.3193 24.5663 20.2674 24.476Z" fill="#364650"/>
<path fill-rule="evenodd" clip-rule="evenodd" d="M20.8351 24.2975C20.6902 24.4259 20.5901 24.5972 20.5493 24.7864C20.5084 24.9756 20.5291 25.173 20.6081 25.3497C20.6346 25.3849 20.6689 25.4134 20.7083 25.4331C20.7477 25.4528 20.7911 25.463 20.8351 25.463C20.8797 25.4666 20.9244 25.4579 20.9644 25.4379C21.0044 25.418 21.0382 25.3875 21.0621 25.3497C21.1372 25.1723 21.1558 24.976 21.1151 24.7877C21.0745 24.5993 20.9767 24.4281 20.8351 24.2975Z" fill="#364650"/>
<path fill-rule="evenodd" clip-rule="evenodd" d="M19.181 23.5532C19.1809 23.4659 19.1918 23.3788 19.2134 23.2942H20.5593V21.9345C20.2404 21.9922 19.9456 22.1429 19.7119 22.3675C19.4783 22.5921 19.3161 22.8807 19.2458 23.1971C19.2126 23.2252 19.1736 23.2457 19.1315 23.2569C19.0894 23.2681 19.0454 23.2698 19.0026 23.2618C18.5161 23.1971 17.5108 23.019 17.5108 22.8086C17.5043 22.7531 17.5102 22.6968 17.5281 22.6439C17.546 22.5909 17.5753 22.5426 17.6141 22.5024C17.6528 22.4621 17.7 22.431 17.7523 22.4112C17.8045 22.3913 17.8605 22.3833 17.9162 22.3877C18.1918 22.3877 18.4999 22.5334 18.7594 22.1611C17.8513 22.2096 18.5486 20.8822 17.8027 20.6394C17.8382 21.0583 17.7998 21.4803 17.6891 21.8859C17.5324 21.7145 17.3381 21.5815 17.1216 21.4974C17.1436 21.8265 17.0995 22.1568 16.9919 22.4686C16.7996 22.2988 16.5804 22.162 16.3433 22.0639C16.5986 22.5043 16.6741 23.0262 16.5541 23.5208C16.5379 23.6341 16.6189 23.7636 16.846 23.7636C17.5685 23.7399 18.2904 23.8272 18.9864 24.0226C19.135 24.0673 19.2656 24.158 19.3594 24.2816C19.4358 24.4888 19.5643 24.6727 19.7324 24.8158C19.7788 24.6742 19.8616 24.5472 19.9726 24.4478C20.0836 24.3483 20.2189 24.2798 20.3648 24.2493C20.4296 24.2493 20.4945 24.3626 20.5107 24.4597C20.5269 24.3626 20.6891 24.0874 20.8674 24.0874C21.0296 24.0874 21.1755 24.314 21.2404 24.5083C21.2567 24.395 21.3215 24.2654 21.3864 24.2654C21.5258 24.2844 21.6567 24.3435 21.7632 24.4354C21.8697 24.5274 21.9473 24.6483 21.9864 24.7834C22.2194 24.5163 22.3909 24.2013 22.4891 23.8607H19.246C19.1937 23.7671 19.1711 23.6599 19.181 23.5532Z" fill="#364650"/>
<path fill-rule="evenodd" clip-rule="evenodd" d="M20.0081 23.5532C20.0068 23.5748 20.0101 23.5964 20.0178 23.6167C20.0255 23.6369 20.0374 23.6553 20.0527 23.6706C20.0681 23.6859 20.0864 23.6978 20.1067 23.7054C20.127 23.7131 20.1486 23.7164 20.1702 23.7151C20.2132 23.715 20.2543 23.6979 20.2847 23.6676C20.3151 23.6373 20.3323 23.5961 20.3324 23.5532C20.3337 23.5316 20.3304 23.5099 20.3227 23.4897C20.315 23.4694 20.3031 23.451 20.2877 23.4357C20.2724 23.4204 20.254 23.4086 20.2337 23.4009C20.2135 23.3932 20.1918 23.39 20.1702 23.3913C20.1273 23.3913 20.0861 23.4084 20.0557 23.4387C20.0253 23.4691 20.0082 23.5102 20.0081 23.5532Z" fill="#364650"/>
<path fill-rule="evenodd" clip-rule="evenodd" d="M19.343 23.5532C19.3418 23.5748 19.3451 23.5964 19.3528 23.6167C19.3605 23.6369 19.3724 23.6553 19.3877 23.6706C19.403 23.6859 19.4214 23.6978 19.4417 23.7054C19.4619 23.7131 19.4836 23.7164 19.5052 23.7151C19.5472 23.7122 19.5868 23.6943 19.6166 23.6645C19.6464 23.6348 19.6645 23.5952 19.6674 23.5532C19.6686 23.5316 19.6653 23.5099 19.6576 23.4897C19.6499 23.4694 19.638 23.451 19.6227 23.4357C19.6074 23.4204 19.589 23.4086 19.5687 23.4009C19.5485 23.3932 19.5268 23.39 19.5052 23.3913C19.4622 23.3913 19.4211 23.4084 19.3907 23.4387C19.3603 23.4691 19.3432 23.5102 19.343 23.5532Z" fill="#364650"/>
<path fill-rule="evenodd" clip-rule="evenodd" d="M6.45226 24.8482C6.45418 24.8674 6.45991 24.8861 6.46915 24.9031C6.47839 24.9201 6.49094 24.935 6.50605 24.9471C6.52116 24.9592 6.53853 24.9681 6.55713 24.9733C6.57574 24.9786 6.59521 24.9801 6.6144 24.9777C6.69547 24.9777 6.74414 24.9291 6.7604 24.832C6.76675 24.6159 6.69798 24.4042 6.5658 24.233C6.46558 24.4215 6.42593 24.6363 6.45226 24.8482Z" fill="#364650"/>
<path fill-rule="evenodd" clip-rule="evenodd" d="M7.73315 25.1883C7.67392 25.2487 7.60873 25.3029 7.53857 25.3501C7.60149 25.4045 7.68245 25.4334 7.76556 25.4311C7.82339 25.4324 7.88016 25.4154 7.92775 25.3825C7.96228 25.3211 7.97619 25.2502 7.96744 25.1803C7.95868 25.1103 7.92772 25.045 7.8791 24.994C7.83863 25.0645 7.78961 25.1298 7.73315 25.1883Z" fill="#364650"/>
<path fill-rule="evenodd" clip-rule="evenodd" d="M7.29495 24.7671C7.40847 24.6538 7.4409 24.5567 7.42471 24.492C7.24555 24.2331 7.03289 23.999 6.7923 23.7959L6.74365 23.9902C6.84847 24.1072 6.92375 24.2476 6.96324 24.3997C7.00273 24.5517 7.00527 24.711 6.97064 24.8643C6.98835 24.8727 7.00474 24.8836 7.0193 24.8967C7.11659 24.929 7.2301 24.8319 7.29495 24.7671Z" fill="#364650"/>
<path fill-rule="evenodd" clip-rule="evenodd" d="M7.73317 24.7832C7.7399 24.7644 7.74193 24.7443 7.73911 24.7245C7.73629 24.7048 7.72869 24.686 7.71697 24.6699L7.70073 24.6537C7.68451 24.6537 7.63586 24.7023 7.60344 24.7508C7.56483 24.8033 7.5214 24.8521 7.47373 24.8965C7.42922 24.9491 7.3804 24.9978 7.32778 25.0422C7.27913 25.0908 7.23047 25.1232 7.23047 25.1555C7.23043 25.1577 7.23082 25.1598 7.23162 25.1618C7.23242 25.1638 7.23362 25.1656 7.23514 25.1671C7.23666 25.1686 7.23846 25.1698 7.24045 25.1706C7.24244 25.1714 7.24457 25.1718 7.24671 25.1717C7.26459 25.1888 7.28719 25.2 7.31157 25.2041C7.36022 25.2041 7.4575 25.1879 7.58725 25.026C7.65196 24.9559 7.70162 24.8732 7.73317 24.7832Z" fill="#364650"/>
<path fill-rule="evenodd" clip-rule="evenodd" d="M5.68985 23.1645C5.6622 23.1924 5.64017 23.2254 5.625 23.2616C5.70149 23.2656 5.77747 23.2764 5.85201 23.294C5.84387 23.2187 5.84387 23.1427 5.85201 23.0674C5.81911 23.0691 5.78714 23.0789 5.75888 23.0958C5.73062 23.1128 5.70693 23.1363 5.68985 23.1645Z" fill="#364650"/>
<path fill-rule="evenodd" clip-rule="evenodd" d="M6.51656 23.2457C6.51656 23.2457 7.16519 23.8123 7.37598 24.0227C7.40064 24.049 7.43421 24.0653 7.47017 24.0683C7.50612 24.0713 7.54191 24.0608 7.57059 24.0389C7.61784 24.0143 7.66658 23.9927 7.71652 23.9742C8.39086 23.7832 9.09242 23.7066 9.79207 23.7475C10.0191 23.7637 10.1002 23.618 10.084 23.5047C9.96595 23.01 10.0413 22.4888 10.2948 22.0478C10.0576 22.1459 9.83847 22.2826 9.64616 22.4525C9.5307 22.1425 9.48635 21.8106 9.5164 21.4812C9.30328 21.5717 9.11035 21.7038 8.94888 21.8698C8.82955 21.4658 8.79098 21.0422 8.83539 20.6233C8.08946 20.8661 8.78674 22.1935 7.87866 22.1449C8.1381 22.5172 8.44619 22.3716 8.72186 22.3716C8.77753 22.3673 8.83345 22.3754 8.88562 22.3953C8.93779 22.4152 8.98494 22.4463 9.02367 22.4865C9.0624 22.5268 9.09176 22.575 9.10966 22.6279C9.12757 22.6808 9.13357 22.737 9.12724 22.7924C9.09482 23.0029 7.87865 23.2619 7.39224 23.2619C7.24953 23.271 7.10679 23.2447 6.97667 23.1854C6.84654 23.1261 6.73306 23.0356 6.64632 22.922C6.56525 22.8086 6.48419 22.7601 6.38689 22.7763C6.27339 22.7924 6.12744 22.922 6.12744 23.1972C6.12744 23.3914 6.20851 23.8285 6.43553 23.8285C6.56526 23.8123 6.58143 23.4723 6.51656 23.2457Z" fill="#364650"/>
<path fill-rule="evenodd" clip-rule="evenodd" d="M5.28422 23.0511C5.31664 23.0672 5.33287 23.0511 5.36529 23.0349C5.26799 23.1644 5.28422 23.2453 5.31664 23.2777C5.38152 23.3424 5.43018 23.2291 5.57612 23.0673C5.73826 22.9054 5.83556 22.8568 5.77069 22.7921C5.73826 22.7597 5.65718 22.7597 5.52746 22.8568C5.5392 22.8315 5.54476 22.8038 5.54367 22.7759C5.50339 22.6912 5.44458 22.6167 5.37161 22.5579C5.29863 22.499 5.21335 22.4574 5.12208 22.4359C5.11328 22.4349 5.10436 22.4357 5.09594 22.4385C5.08753 22.4413 5.07983 22.446 5.07343 22.4521C5.13827 22.355 5.12208 22.2902 5.07343 22.2579C5.02478 22.2093 5.00856 22.2417 4.95991 22.3064C4.96318 22.2801 4.9605 22.2533 4.95208 22.2281C4.94366 22.2029 4.92971 22.1799 4.91125 22.1607C4.48133 21.6399 3.98529 21.1773 3.43566 20.7847C3.28972 20.72 3.24107 20.8009 3.24107 20.8009C3.24107 20.8009 3.15999 20.8495 3.22486 20.9952C3.62476 21.5391 4.09352 22.0288 4.61939 22.4521C4.66415 22.4782 4.71385 22.4948 4.76534 22.5007C4.70046 22.5492 4.68425 22.5816 4.7167 22.614C4.74568 22.6351 4.78127 22.645 4.81698 22.642C4.85269 22.6391 4.88615 22.6234 4.91125 22.5978C4.91125 22.614 4.89506 22.6302 4.89506 22.6625C4.99035 22.8225 5.12413 22.956 5.28422 23.0511Z" fill="#364650"/>
<path fill-rule="evenodd" clip-rule="evenodd" d="M6.0307 23.7799C6.0307 23.6827 5.83614 23.5047 5.60912 23.5047C5.50071 23.4914 5.39109 23.5166 5.29927 23.5757C5.20745 23.6348 5.13923 23.7243 5.10645 23.8284C5.10879 23.895 5.1374 23.9579 5.18602 24.0034C5.23464 24.0489 5.29931 24.0733 5.36588 24.0712C5.6157 24.0589 5.8523 23.9552 6.0307 23.7799Z" fill="#364650"/>
<path fill-rule="evenodd" clip-rule="evenodd" d="M5.72235 24.3138C5.67791 24.3571 5.64555 24.4113 5.62848 24.4709C5.61142 24.5305 5.61023 24.5936 5.62505 24.6538C5.64322 24.712 5.68008 24.7626 5.72992 24.7977C5.77976 24.8329 5.8398 24.8505 5.90071 24.8481C5.95916 24.8484 6.01672 24.8337 6.06783 24.8053C6.11894 24.777 6.16191 24.736 6.19258 24.6862C6.29645 24.4584 6.3303 24.2049 6.28987 23.9578C6.07059 24.0199 5.87368 24.1434 5.72235 24.3138Z" fill="#364650"/>
<path fill-rule="evenodd" clip-rule="evenodd" d="M2.70644 19.5061C2.60915 19.409 2.41456 19.5547 2.28484 19.4899C2.33349 19.1986 2.5443 19.5061 2.7551 19.2957C2.78517 19.2583 2.80018 19.2109 2.79718 19.163C2.79418 19.1151 2.77339 19.0701 2.73888 19.0367C2.6578 19.1176 2.51187 19.1014 2.51187 19.0528C2.73887 18.5025 2.28488 17.9035 1.86327 17.9844C1.9456 18.1783 1.97361 18.391 1.94434 18.5996C2.10649 18.7129 1.99298 19.0043 1.81461 18.9233C1.7011 18.8748 1.47409 18.5672 1.71732 18.3568C1.71732 18.2758 1.57139 18.2596 1.42545 18.4539C1.53896 18.1139 0.890336 18.2111 0.744446 18.3082C0.663376 18.4539 0.582291 19.1176 0.906601 19.0043C0.728231 19.1661 0.760656 19.2957 0.825516 19.2957C1.02011 19.0367 1.32821 19.2471 1.37685 19.3766C1.45793 19.5547 1.19849 19.6842 1.06876 19.5223C0.868677 19.5703 0.658515 19.5533 0.46875 19.4737C0.472305 19.5978 0.507264 19.719 0.570358 19.8258C0.633453 19.9327 0.722622 20.0219 0.829529 20.0849C0.936436 20.148 1.05759 20.1829 1.18166 20.1864C1.30573 20.1899 1.42866 20.1619 1.53897 20.105C1.58761 20.1212 1.62005 20.2507 1.53897 20.3479C1.57482 20.3794 1.62095 20.3968 1.6687 20.3968C1.71646 20.3968 1.76256 20.3794 1.79842 20.3479C1.993 20.1374 1.68491 19.927 1.97679 19.8622C2.04165 19.9755 1.91192 20.186 2.00922 20.2831C2.17137 20.445 2.36597 20.1374 2.56055 20.1212C2.57673 19.8784 2.85238 19.668 2.70644 19.5061ZM1.0849 18.81C1.0849 18.81 0.987595 18.7453 1.1011 18.5996C1.23083 18.4701 1.2957 18.5672 1.2957 18.5672C1.2957 18.5672 1.40921 18.8262 1.44164 18.9396C1.31879 18.9081 1.19931 18.8647 1.0849 18.81ZM2.07404 19.587C2.00918 19.587 1.86325 19.7327 1.78217 19.6518L1.44164 19.3118L1.62001 19.1337L1.79839 18.9557L2.1389 19.2956C2.20376 19.3604 2.09025 19.5223 2.07404 19.5871V19.587Z" fill="#364650"/>
<path fill-rule="evenodd" clip-rule="evenodd" d="M2.78763 20.1376C2.76609 20.1348 2.74418 20.1378 2.7242 20.1463C2.70423 20.1549 2.68694 20.1687 2.67414 20.1862C2.65604 20.2053 2.64346 20.2289 2.63774 20.2546C2.63203 20.2802 2.6334 20.307 2.6417 20.3319C2.66052 20.406 2.69987 20.4734 2.75521 20.5261C2.81347 20.5917 2.89478 20.6323 2.98221 20.6395C3.00375 20.6423 3.02567 20.6393 3.04564 20.6308C3.06562 20.6222 3.08292 20.6085 3.09574 20.5909C3.16058 20.5099 3.12815 20.3643 3.01464 20.251C2.95637 20.1854 2.87507 20.1448 2.78763 20.1376Z" fill="#364650"/>
<path fill-rule="evenodd" clip-rule="evenodd" d="M1.81471 19.1174L1.71742 19.2145L1.62012 19.3117C1.62012 19.3117 1.81471 19.5545 1.96065 19.4735C2.05794 19.3117 1.81471 19.1174 1.81471 19.1174Z" fill="#364650"/>
<path fill-rule="evenodd" clip-rule="evenodd" d="M19.8622 17.4668C19.7968 17.6333 19.721 17.7955 19.6352 17.9524C19.6853 18.0307 19.7395 18.1063 19.7973 18.1791C19.7973 18.2276 19.5379 18.3571 19.3595 18.0172C19.1929 17.9852 19.0299 17.9364 18.873 17.8715C19.0162 18.2597 19.2629 18.6012 19.5865 18.8589C19.7971 18.999 20.0481 19.0655 20.3003 19.0479C20.5526 19.0303 20.792 18.9297 20.981 18.7618C20.4856 18.4533 20.0955 18.0018 19.8622 17.4668Z" fill="#364650"/>
<path fill-rule="evenodd" clip-rule="evenodd" d="M24.1108 11.4608C24.6785 11.2039 25.1992 10.8537 25.6513 10.4248C25.6999 10.4734 25.8135 10.7647 25.4405 11.0723C25.0549 11.3427 24.635 11.5604 24.1919 11.7198C23.9004 12.0942 23.5433 12.4123 23.1379 12.6587C24.1397 12.5381 25.0913 12.1526 25.8945 11.5417C26.231 11.1931 26.4483 10.7468 26.5153 10.2669C26.5823 9.787 26.4956 9.29823 26.2675 8.87073C25.3518 9.88725 24.2144 10.6793 22.9434 11.1856C23.3401 11.2413 23.7309 11.3335 24.1108 11.4608Z" fill="#364650"/>
<path fill-rule="evenodd" clip-rule="evenodd" d="M23.3001 9.47009C23.9167 8.9288 24.409 8.26065 24.7433 7.51139C24.8892 7.6085 24.9541 7.91607 24.7595 8.25603C24.3683 8.85128 23.8741 9.37204 23.3001 9.79385C23.2557 10.2014 23.1347 10.5968 22.9434 10.9594C23.7086 10.4508 24.4013 9.84095 25.0027 9.14636C25.2429 8.871 25.4243 8.5495 25.5358 8.20156C25.6474 7.85362 25.6867 7.48657 25.6514 7.1229C25.6303 6.4768 25.3635 5.86307 24.9054 5.40698C24.5694 6.5464 23.9758 7.59323 23.1704 8.46648C23.2475 8.79577 23.2909 9.13203 23.3001 9.47009Z" fill="#364650"/>
<path fill-rule="evenodd" clip-rule="evenodd" d="M22.8135 14.3586C22.9684 14.5421 23.1093 14.7369 23.2351 14.9414C23.668 15.0221 24.1085 15.0547 24.5486 15.0385C24.5237 15.1376 24.4643 15.2246 24.3811 15.2839C24.2979 15.3432 24.1964 15.371 24.0946 15.3623C23.7712 15.3499 23.4503 15.301 23.1379 15.2166C22.8272 15.3167 22.5063 15.3818 22.1812 15.4108C22.8489 15.6567 23.5473 15.8092 24.2567 15.8641H24.4189C24.774 15.8268 25.1053 15.6678 25.3566 15.4141C25.6078 15.1603 25.7635 14.8274 25.7972 14.4719C25.3946 14.5312 24.9879 14.5583 24.581 14.5529C23.9862 14.5584 23.3929 14.4931 22.8135 14.3586Z" fill="#364650"/>
<path fill-rule="evenodd" clip-rule="evenodd" d="M26.5426 12.0115C25.4989 12.5366 24.3537 12.8293 23.186 12.8694C23.4421 13.0292 23.686 13.2078 23.9157 13.4036C24.4246 13.3587 24.9258 13.2499 25.4075 13.0798C25.4075 13.1446 25.4237 13.436 24.9859 13.5817C24.6293 13.661 24.2648 13.6991 23.8995 13.695C23.5774 13.8847 23.2347 14.0367 22.8779 14.1482C23.2268 14.2012 23.5791 14.2283 23.9319 14.2292C24.4299 14.2426 24.9271 14.1826 25.4075 14.0512C25.8171 13.9141 26.1607 13.6289 26.3707 13.2515C26.5807 12.8741 26.642 12.4318 26.5426 12.0115Z" fill="#364650"/>
<path fill-rule="evenodd" clip-rule="evenodd" d="M22.2133 16.2525C22.5322 16.4019 22.8707 16.5055 23.2186 16.5601C23.2186 16.5601 23.17 16.8515 22.6835 16.8029C22.4511 16.7554 22.2306 16.6618 22.0349 16.5277C21.765 16.5553 21.4927 16.5498 21.2241 16.5115C21.8174 16.955 22.5058 17.2543 23.2348 17.3857H23.3321C23.6381 17.3471 23.9289 17.2299 24.1762 17.0455C24.4234 16.8611 24.6187 16.6158 24.7429 16.3335C23.8126 16.276 22.9031 16.0339 22.0673 15.6212C22.1363 15.8264 22.1852 16.0379 22.2133 16.2525Z" fill="#364650"/>
<path fill-rule="evenodd" clip-rule="evenodd" d="M20.997 17.1912C21.138 17.3323 21.3026 17.4474 21.4835 17.5312C21.4561 17.5755 21.4179 17.612 21.3725 17.6375C21.3272 17.663 21.2761 17.6765 21.224 17.6769C21.1563 17.6762 21.0896 17.6596 21.0295 17.6283C20.9193 17.5577 20.8208 17.4703 20.7376 17.3693C20.5116 17.3528 20.2884 17.3093 20.0728 17.2398C20.491 17.7964 21.0675 18.2139 21.7267 18.4377C21.823 18.4565 21.9206 18.4674 22.0186 18.4701C22.2645 18.4616 22.5044 18.392 22.7168 18.2677C22.9291 18.1434 23.1071 17.9682 23.2348 17.7579C22.4217 17.5921 21.67 17.2056 21.0619 16.6409C21.0512 16.8254 21.0295 17.0092 20.997 17.1912Z" fill="#364650"/>
<path fill-rule="evenodd" clip-rule="evenodd" d="M16.5703 24.7671C16.7224 24.7791 16.8741 24.7392 17.0007 24.654C17.1274 24.5688 17.2214 24.4432 17.2675 24.2977C16.8135 24.5081 16.3108 24.3948 15.4027 24.1196C15.224 24.1936 15.0397 24.2532 14.8514 24.2977C15.4027 24.4596 16.1973 24.7186 16.327 25.0261C16.3757 25.2851 16.2297 25.3337 16.2297 25.3337C15.8354 24.9121 15.3197 24.6236 14.7541 24.5081C14.7553 24.5902 14.7443 24.672 14.7217 24.7509C14.5495 24.7821 14.3727 24.7766 14.2028 24.7348C14.7504 25.1228 15.155 25.6803 15.3541 26.3212C15.419 26.7906 15.0947 26.8068 15.0947 26.8068C15.0062 26.0817 14.6471 25.4168 14.0893 24.9452C14.0172 25.0448 13.9296 25.1323 13.8298 25.2042C13.6748 25.1701 13.5268 25.1099 13.392 25.0261C13.4783 26.1895 13.5054 27.3565 13.4731 28.5227C13.4979 28.5558 13.5129 28.5951 13.5166 28.6363C13.5202 28.6775 13.5124 28.7189 13.4939 28.7558C13.4754 28.7928 13.4469 28.8239 13.4118 28.8456C13.3766 28.8673 13.3361 28.8788 13.2947 28.8788C13.2534 28.8788 13.2129 28.8673 13.1777 28.8456C13.1425 28.8239 13.1141 28.7928 13.0956 28.7558C13.0771 28.7189 13.0692 28.6775 13.0729 28.6363C13.0765 28.5951 13.0916 28.5558 13.1164 28.5227C13.0842 27.3565 13.1113 26.1895 13.1974 25.0261C13.0627 25.1099 12.9146 25.1701 12.7596 25.2042C12.656 25.137 12.5676 25.0487 12.5002 24.9452C11.9424 25.4168 11.5833 26.0817 11.4948 26.8068C11.4948 26.8068 11.1705 26.7906 11.2354 26.3212C11.4286 25.6773 11.8345 25.1181 12.3867 24.7348C12.2168 24.7766 12.04 24.7821 11.8678 24.7509C11.8452 24.672 11.8342 24.5902 11.8354 24.5081C11.2698 24.6236 10.7541 24.9121 10.3598 25.3337C10.3598 25.3337 10.2138 25.2851 10.2625 25.0261C10.3922 24.7186 11.1867 24.4596 11.7381 24.2977C11.5477 24.261 11.3626 24.2012 11.1867 24.1196C10.2787 24.3948 9.75972 24.5243 9.32196 24.2977C9.3681 24.4432 9.46213 24.5688 9.58873 24.654C9.71533 24.7392 9.86706 24.7791 10.0192 24.7671C9.79575 24.8538 9.59416 24.9886 9.42879 25.1621C9.26342 25.3356 9.13835 25.5434 9.0625 25.7708C9.14877 26.0981 9.30917 26.4012 9.5313 26.6566C9.75342 26.9121 10.0313 27.113 10.3435 27.2439C10.1003 26.7097 10.1975 25.6251 11.6732 24.8643C10.7651 25.7708 10.4083 26.5802 10.6516 27.3572C10.7618 27.6577 10.9634 27.9161 11.2281 28.0961C11.4928 28.2762 11.8072 28.3687 12.1272 28.3608C11.9199 27.8434 11.8647 27.2775 11.9681 26.7297C12.0715 26.182 12.3292 25.6752 12.711 25.269C12.3704 26.1917 11.8839 29.0569 13.2785 29.5263C14.6568 29.0569 14.1865 26.1917 13.846 25.269C14.2284 25.6748 14.4866 26.1816 14.5901 26.7295C14.6935 27.2774 14.6379 27.8435 14.4298 28.3608C14.7488 28.3641 15.0612 28.2698 15.325 28.0903C15.5887 27.9109 15.7913 27.6551 15.9054 27.3572C16.1486 26.5802 15.7919 25.7708 14.8838 24.8643C16.3594 25.6089 16.4729 26.6935 16.2135 27.2439C16.5257 27.113 16.8036 26.9121 17.0257 26.6566C17.2478 26.4012 17.4082 26.0981 17.4945 25.7708C17.4306 25.5424 17.3135 25.3324 17.1529 25.1579C16.9923 24.9835 16.7926 24.8496 16.5703 24.7671Z" fill="#364650"/>
<path fill-rule="evenodd" clip-rule="evenodd" d="M6.77649 18.1791C6.83433 18.1063 6.88846 18.0307 6.93864 17.9524C6.85756 17.8067 6.77649 17.5963 6.71164 17.4668C6.46343 17.9922 6.07658 18.4399 5.59277 18.7618C5.78209 18.9293 6.0214 19.0296 6.27354 19.0471C6.52569 19.0647 6.77659 18.9985 6.9873 18.8589C7.30614 18.5967 7.55188 18.2566 7.70078 17.8715C7.54317 17.9341 7.38041 17.9829 7.21432 18.0172C7.03588 18.3733 6.79264 18.2276 6.77649 18.1791Z" fill="#364650"/>
<path fill-rule="evenodd" clip-rule="evenodd" d="M3.43554 12.659C3.02995 12.4129 2.67275 12.0947 2.38154 11.7202C1.93842 11.5608 1.51852 11.343 1.13295 11.0727C0.759947 10.7651 0.873507 10.4737 0.922147 10.4251C1.37842 10.8488 1.8982 11.1983 2.46261 11.4611C2.84399 11.3228 3.24206 11.2357 3.64636 11.2021C2.37307 10.7001 1.23475 9.9074 0.322187 8.88733C0.086032 9.30876 -0.00687489 9.79547 0.0574618 10.2743C0.121799 10.753 0.339894 11.198 0.678922 11.5421C1.48212 12.1529 2.4337 12.5385 3.43554 12.659Z" fill="#364650"/>
<path fill-rule="evenodd" clip-rule="evenodd" d="M3.6463 10.959C3.44554 10.6004 3.32391 10.203 3.28957 9.79343C2.71188 9.37584 2.21697 8.85435 1.83016 8.25561C1.63558 7.91569 1.70044 7.60812 1.84638 7.51098C2.19064 8.2544 2.68152 8.92064 3.28957 9.46971C3.29485 9.12496 3.34387 8.78227 3.43547 8.44987C2.63011 7.57663 2.03646 6.5298 1.70047 5.39038C1.24255 5.85319 0.976167 6.47176 0.95456 7.12246C0.915308 7.48634 0.952754 7.8544 1.06447 8.20293C1.17619 8.55145 1.3597 8.8727 1.60318 9.14595C2.18581 9.85285 2.87513 10.4645 3.6463 10.959Z" fill="#364650"/>
<path fill-rule="evenodd" clip-rule="evenodd" d="M2.33293 15.8641C3.04348 15.8171 3.74303 15.6643 4.40851 15.4108C4.08465 15.3735 3.76457 15.3085 3.45178 15.2166C3.13938 15.301 2.81844 15.3499 2.49507 15.3623C2.39328 15.371 2.29171 15.3432 2.20853 15.2839C2.12534 15.2246 2.06598 15.1376 2.04108 15.0385C2.48113 15.0547 2.92163 15.0221 3.35452 14.9414C3.47885 14.7359 3.61985 14.541 3.77612 14.3586C3.19673 14.4931 2.60342 14.5583 2.00865 14.5529C1.60177 14.5576 1.19514 14.5305 0.79248 14.4719C0.829167 14.8263 0.98583 15.1575 1.2365 15.4107C1.48716 15.6639 1.81679 15.8238 2.17079 15.8641L2.33293 15.8641Z" fill="#364650"/>
<path fill-rule="evenodd" clip-rule="evenodd" d="M2.65748 14.2292C3.01033 14.2283 3.36263 14.2012 3.71148 14.1482C3.35618 14.0329 3.01382 13.881 2.6899 13.695C2.32425 13.708 1.95858 13.6698 1.60348 13.5817C1.16566 13.4522 1.18186 13.1608 1.18186 13.0798C1.66262 13.2533 2.16428 13.3622 2.67368 13.4036C2.89624 13.1989 3.14099 13.0197 3.40339 12.8694C2.23568 12.8293 1.09053 12.5366 0.0467761 12.0115C-0.0537326 12.434 0.0090348 12.8788 0.222512 13.257C0.435988 13.6352 0.784429 13.9189 1.19808 14.0511C1.67277 14.1838 2.16481 14.2439 2.65748 14.2292Z" fill="#364650"/>
<path fill-rule="evenodd" clip-rule="evenodd" d="M4.55466 16.5114C4.35898 16.6456 4.13845 16.7391 3.90604 16.7866C3.41958 16.8514 3.37093 16.5438 3.37093 16.5438C3.72057 16.4968 4.06018 16.3929 4.3763 16.2363C4.40652 16.0167 4.45534 15.8001 4.52222 15.5887C3.6921 16.0162 2.77943 16.2591 1.84668 16.301C1.97091 16.5833 2.16615 16.8286 2.41339 17.013C2.66063 17.1974 2.95142 17.3146 3.25743 17.3532H3.35471C4.08464 17.2249 4.77374 16.9254 5.36543 16.4791C5.09842 16.5313 4.82498 16.5422 4.55466 16.5114Z" fill="#364650"/>
<path fill-rule="evenodd" clip-rule="evenodd" d="M6.51649 17.24C6.30083 17.3095 6.07764 17.353 5.85167 17.3696C5.76844 17.4705 5.66995 17.5579 5.55977 17.6285C5.49962 17.6598 5.43297 17.6764 5.3652 17.6771C5.31317 17.6767 5.26209 17.6632 5.21672 17.6377C5.17135 17.6122 5.13317 17.5757 5.10576 17.5314C5.28512 17.445 5.44939 17.3302 5.59222 17.1914C5.55086 17.0054 5.52911 16.8155 5.52734 16.6249C4.91932 17.1896 4.16758 17.5761 3.35449 17.7419C3.48048 17.9537 3.65811 18.1301 3.87079 18.2547C4.08346 18.3792 4.32425 18.4479 4.57063 18.4541C4.66865 18.4513 4.76627 18.4405 4.86252 18.4218C5.52568 18.2142 6.10518 17.8001 6.51649 17.24Z" fill="#364650"/>
<path fill-rule="evenodd" clip-rule="evenodd" d="M13.0352 1.61898C13.0336 1.68546 13.0581 1.74994 13.1037 1.79842C13.1492 1.8469 13.212 1.87548 13.2784 1.87798C13.3118 1.87812 13.3448 1.87139 13.3754 1.85822C13.406 1.84504 13.4336 1.8257 13.4564 1.80141C13.4792 1.77711 13.4968 1.74837 13.508 1.71699C13.5193 1.6856 13.5239 1.65224 13.5217 1.61898C13.5234 1.55249 13.4988 1.48802 13.4532 1.43954C13.4077 1.39106 13.3449 1.36248 13.2784 1.35999C13.2129 1.36515 13.1517 1.39456 13.1068 1.44245C13.0618 1.49035 13.0363 1.55329 13.0352 1.61898Z" fill="#364650"/>
<path fill-rule="evenodd" clip-rule="evenodd" d="M13.1163 1.06839H13.4568L13.4244 0.663704L13.7974 0.696075V0.372322L13.4244 0.420883L13.4568 0H13.1163L13.1487 0.420883L12.792 0.372322V0.696075L13.1487 0.663704L13.1163 1.06839Z" fill="#364650"/>
<path fill-rule="evenodd" clip-rule="evenodd" d="M11.9326 5.14779C11.9742 5.16216 12.0184 5.16768 12.0623 5.16399H14.527C14.5709 5.16768 14.6151 5.16216 14.6567 5.14779C14.6957 5.13547 14.7303 5.11208 14.7562 5.08046C14.7821 5.04884 14.7983 5.01037 14.8027 4.96973H11.7866C11.7885 5.01117 11.8037 5.0509 11.83 5.08298C11.8563 5.11507 11.8923 5.13781 11.9326 5.14779Z" fill="#364650"/>
<path fill-rule="evenodd" clip-rule="evenodd" d="M11.949 4.77527H14.6407C14.6473 4.77621 14.6541 4.77561 14.6604 4.7735C14.6667 4.7714 14.6725 4.76785 14.6772 4.76314C14.6819 4.75843 14.6855 4.75269 14.6876 4.74637C14.6897 4.74004 14.6903 4.73331 14.6894 4.72671V4.54866C14.6903 4.54205 14.6897 4.53532 14.6876 4.529C14.6855 4.52267 14.6819 4.51692 14.6772 4.51221C14.6725 4.5075 14.6667 4.50394 14.6604 4.50184C14.6541 4.49973 14.6473 4.49912 14.6407 4.50007H11.949C11.9424 4.49912 11.9356 4.49973 11.9293 4.50184C11.923 4.50394 11.9172 4.5075 11.9125 4.51221C11.9078 4.51692 11.9042 4.52267 11.9021 4.529C11.9 4.53532 11.8994 4.54205 11.9003 4.54866V4.72671C11.8994 4.73331 11.9 4.74004 11.9021 4.74637C11.9042 4.75269 11.9078 4.75843 11.9125 4.76314C11.9172 4.76785 11.923 4.7714 11.9293 4.7735C11.9356 4.77561 11.9424 4.77621 11.949 4.77527Z" fill="#364650"/>
<path fill-rule="evenodd" clip-rule="evenodd" d="M14.9162 4.32224C15.1723 3.88955 15.3172 3.4001 15.3378 2.89771C15.3378 2.29871 14.5757 1.95882 14.1216 1.94263C14.073 2.81677 13.7325 4.17654 13.2946 4.17654C12.8731 4.17654 12.5163 2.81677 12.4676 1.94263C12.0136 1.95882 11.2515 2.29876 11.2515 2.89771C11.2609 3.4019 11.4066 3.89415 11.6731 4.32224H14.9162Z" fill="#364650"/>
<path fill-rule="evenodd" clip-rule="evenodd" d="M13.295 3.72293C13.5058 3.72293 13.7652 3.05925 13.8301 2.44411C13.8301 2.31461 13.6193 2.12036 13.295 2.12036C12.9544 2.12036 12.7437 2.31461 12.7437 2.44411C12.8085 3.02687 13.0842 3.72293 13.295 3.72293Z" fill="#364650"/>
<path fill-rule="evenodd" clip-rule="evenodd" d="M19.3916 5.35831C19.4079 5.35831 19.1971 4.85648 19.5214 4.72698C19.8619 4.59747 19.4078 4.67843 19.6511 3.98235C19.943 3.17296 20.5591 3.35101 20.5591 3.35101C20.4376 3.20836 20.2673 3.11606 20.0814 3.09212C19.8956 3.06818 19.7075 3.11431 19.5538 3.22151C19.3023 3.44543 19.1219 3.73806 19.0349 4.06329C18.8403 4.71078 19.0673 5.29356 19.3916 5.35831Z" fill="#364650"/>
<path fill-rule="evenodd" clip-rule="evenodd" d="M20.9805 4.16003C21.0129 5.17987 22.7155 5.60075 22.7155 5.60075C22.7155 5.60075 21.7264 4.88847 21.921 4.37048C22.3652 4.53951 22.8444 4.59515 23.3155 4.53235C21.7264 4.20859 22.2453 3.70677 21.8723 3.30209C21.5517 3.00907 21.1387 2.83729 20.7048 2.81644C20.4051 2.79036 20.1031 2.81776 19.813 2.89738C20.867 2.92975 20.9643 3.48018 20.9805 4.16003Z" fill="#364650"/>
<path fill-rule="evenodd" clip-rule="evenodd" d="M16.0513 7.04163L16.0189 6.94452C15.1919 6.94452 14.673 6.32935 14.5271 5.42285H13.7163C13.8287 5.93794 14.132 6.39131 14.5653 6.69167C14.9986 6.99204 15.5296 7.11709 16.0513 7.04163Z" fill="#364650"/>
<path fill-rule="evenodd" clip-rule="evenodd" d="M20.7543 6.07033C20.8357 5.87759 20.8606 5.66568 20.8261 5.45933C20.7917 5.25297 20.6993 5.06066 20.5597 4.90481C20.4004 4.83434 20.2274 4.80066 20.0533 4.80627C19.8793 4.81187 19.7087 4.85662 19.5544 4.9372C19.5544 4.9372 20.1705 4.92101 20.0732 5.82751C19.9759 6.71785 18.7436 6.89592 18.403 6.94452L18.3706 7.05782C18.9706 7.05777 20.5273 6.87972 20.7543 6.07033Z" fill="#364650"/>
<path fill-rule="evenodd" clip-rule="evenodd" d="M16.2136 7.04189H18.1919C18.1919 7.04189 18.2405 6.92855 18.3054 6.75049H16.1001C16.1649 6.92855 16.2136 7.04189 16.2136 7.04189Z" fill="#364650"/>
<path fill-rule="evenodd" clip-rule="evenodd" d="M17.2024 4.87265C17.2539 4.87265 17.3033 4.85219 17.3398 4.81576C17.3762 4.77933 17.3967 4.72991 17.3967 4.67839C17.3967 4.62687 17.3762 4.57746 17.3398 4.54103C17.3033 4.5046 17.2539 4.48413 17.2024 4.48413C17.151 4.48475 17.102 4.50541 17.0656 4.54169C17.0293 4.57798 17.0085 4.62703 17.0078 4.67839C17.0113 4.72882 17.0329 4.77629 17.0687 4.812C17.1045 4.84772 17.152 4.86926 17.2024 4.87265Z" fill="#364650"/>
<path fill-rule="evenodd" clip-rule="evenodd" d="M18.3864 6.52334C18.4782 6.24505 18.5381 5.95722 18.5648 5.6654C18.5648 5.30928 18.3701 4.92076 17.6729 4.79126C17.6729 5.22833 17.4621 6.28053 17.2026 6.28053H17.1702C16.9108 6.28053 16.7 5.22833 16.7 4.79126C16.0027 4.9046 15.8081 5.30926 15.8081 5.6654C15.8348 5.95722 15.8947 6.24505 15.9865 6.52334H18.3864Z" fill="#364650"/>
<path fill-rule="evenodd" clip-rule="evenodd" d="M17.2027 5.98963C17.3324 5.98963 17.4459 5.48782 17.4459 5.22881C17.4416 5.16727 17.414 5.10968 17.3689 5.06763C17.3238 5.02558 17.2644 5.0022 17.2027 5.0022C17.141 5.0022 17.0816 5.02558 17.0365 5.06763C16.9913 5.10968 16.9638 5.16727 16.9595 5.22881C16.9595 5.48782 17.073 5.98963 17.2027 5.98963Z" fill="#364650"/>
<path fill-rule="evenodd" clip-rule="evenodd" d="M17.073 4.16029H17.3325L17.3 3.83652L17.6244 3.86888V3.60989L17.3 3.64224L17.3325 3.31848H17.073L17.1055 3.64224L16.7974 3.60989V3.86888L17.1055 3.83652L17.073 4.16029Z" fill="#364650"/>
<path fill-rule="evenodd" clip-rule="evenodd" d="M5.90039 3.35085C5.90039 3.35085 6.51657 3.15659 6.80846 3.98218C7.05168 4.67826 6.59768 4.58111 6.93819 4.72681C7.2787 4.85632 7.0679 5.35815 7.0679 5.35815H7.08414C7.42465 5.2934 7.63543 4.71062 7.44087 4.07929C7.3538 3.75406 7.17341 3.46145 6.92197 3.23755C6.76768 3.12715 6.57804 3.07765 6.38948 3.09856C6.20092 3.11948 6.02673 3.20933 5.90039 3.35085Z" fill="#364650"/>
<path fill-rule="evenodd" clip-rule="evenodd" d="M4.52251 4.37048C4.71711 4.88848 3.72795 5.60075 3.72795 5.60075C3.72795 5.60075 5.44677 5.17987 5.46295 4.16003C5.47918 3.48015 5.59269 2.92975 6.63048 2.89738C6.34034 2.81776 6.03835 2.79036 5.73862 2.81644C5.30473 2.83728 4.89178 3.00906 4.57112 3.30209C4.18196 3.70677 4.70083 4.20859 3.12793 4.53235C3.59901 4.59515 4.07833 4.53951 4.52251 4.37048Z" fill="#364650"/>
<path fill-rule="evenodd" clip-rule="evenodd" d="M10.4248 7.04163C10.9466 7.11709 11.4776 6.99203 11.9108 6.69167C12.3441 6.3913 12.6474 5.93793 12.7598 5.42285H11.9491C11.8031 6.32935 11.2681 6.94452 10.4572 6.94452L10.4248 7.04163Z" fill="#364650"/>
<path fill-rule="evenodd" clip-rule="evenodd" d="M6.88975 4.9372C6.73415 4.86053 6.56396 4.81798 6.39058 4.8124C6.2172 4.80682 6.04463 4.83834 5.88441 4.90484C5.7471 5.06197 5.65617 5.25418 5.62181 5.46C5.58744 5.66582 5.61099 5.87715 5.68982 6.07036C5.91682 6.87975 7.4735 7.05781 8.05725 7.05781L8.02484 6.94449C7.6843 6.89594 6.45193 6.71785 6.35464 5.82754C6.28976 4.92101 6.88975 4.9372 6.88975 4.9372Z" fill="#364650"/>
<path fill-rule="evenodd" clip-rule="evenodd" d="M8.26828 7.04189H10.2466C10.2466 7.04189 10.2952 6.92855 10.3601 6.75049H8.15479C8.21972 6.92855 8.26828 7.04189 8.26828 7.04189Z" fill="#364650"/>
<path fill-rule="evenodd" clip-rule="evenodd" d="M9.25708 4.87265C9.29549 4.87258 9.33303 4.86114 9.36493 4.83975C9.39683 4.81837 9.42167 4.788 9.43633 4.7525C9.45098 4.717 9.45478 4.67795 9.44725 4.64029C9.43972 4.60263 9.42118 4.56805 9.394 4.54092C9.36682 4.51378 9.33221 4.49531 9.29454 4.48784C9.25687 4.48037 9.21782 4.48424 9.18234 4.49895C9.14687 4.51367 9.11655 4.53856 9.09521 4.5705C9.07388 4.60244 9.0625 4.63998 9.0625 4.67839C9.06597 4.72882 9.08759 4.77629 9.12337 4.812C9.15914 4.84772 9.20664 4.86926 9.25708 4.87265Z" fill="#364650"/>
<path fill-rule="evenodd" clip-rule="evenodd" d="M10.4411 6.52334C10.5329 6.24505 10.5927 5.95722 10.6194 5.6654C10.6194 5.30928 10.4248 4.92076 9.72758 4.79126C9.72758 5.22833 9.51679 6.28053 9.25732 6.28053H9.2249C8.96546 6.28053 8.75464 5.22833 8.75464 4.79126C8.05739 4.9046 7.86279 5.30926 7.86279 5.6654C7.8895 5.95722 7.94933 6.24505 8.04115 6.52334H10.4411Z" fill="#364650"/>
<path fill-rule="evenodd" clip-rule="evenodd" d="M9.25693 5.98963C9.38665 5.98963 9.50014 5.48782 9.50014 5.22881C9.49578 5.16727 9.46826 5.10968 9.42313 5.06763C9.37799 5.02558 9.3186 5.0022 9.25691 5.0022C9.19523 5.0022 9.13582 5.02558 9.09068 5.06763C9.04555 5.10968 9.01803 5.16727 9.01367 5.22881C9.01367 5.48782 9.12725 5.98963 9.25693 5.98963Z" fill="#364650"/>
<path fill-rule="evenodd" clip-rule="evenodd" d="M9.12772 4.16029H9.38719L9.35474 3.83652L9.67905 3.86888V3.60989L9.35474 3.64224L9.38719 3.31848H9.12772L9.16017 3.64224L8.85205 3.60989V3.86888L9.16017 3.83652L9.12772 4.16029Z" fill="#364650"/>
<path fill-rule="evenodd" clip-rule="evenodd" d="M19.8782 9.89067C19.8944 9.8745 19.8782 9.8583 19.8782 9.89067C19.8457 9.89067 19.5376 10.0687 18.8566 9.63167C18.4094 9.31842 17.9096 9.08813 17.381 8.95178C17.2108 9.07084 17.0483 9.20061 16.8945 9.3403C17.1215 9.34963 17.3441 9.40629 17.5479 9.50665C17.7518 9.607 17.9324 9.74884 18.0782 9.92307C18.0782 9.93926 18.0945 9.93926 18.0945 9.92307C18.1337 9.80102 18.128 9.66893 18.0782 9.55075C18.0782 9.55075 18.3701 9.72881 18.9539 10.0687C19.0246 10.1226 19.1058 10.1609 19.1923 10.1812C19.2788 10.2014 19.3686 10.2032 19.4559 10.1864C19.5431 10.1696 19.6258 10.1346 19.6986 10.0836C19.7713 10.0327 19.8325 9.96691 19.8782 9.89067Z" fill="#364650"/>
<path fill-rule="evenodd" clip-rule="evenodd" d="M16.1328 8.98383C16.2252 9.16069 16.2856 9.3525 16.3111 9.5504C16.7165 9.01622 17.7219 8.70865 18.0786 7.4784C18.111 7.36509 18.0786 7.30034 17.9651 7.30034H16.1166C15.3256 7.41086 14.5199 7.26924 13.814 6.89563C13.8299 7.22856 13.9344 7.55118 14.1169 7.83011C14.2994 8.10903 14.5531 8.33411 14.8517 8.48205C14.7594 8.64061 14.6329 8.77663 14.4814 8.88023C14.33 8.98382 14.1574 9.0524 13.9761 9.08098C14.2234 9.20465 14.5041 9.24469 14.7761 9.19506C15.048 9.14543 15.2965 9.00882 15.4842 8.80578C15.5192 9.08788 15.4972 9.37416 15.4193 9.64756C15.715 9.49813 15.9624 9.26801 16.1328 8.98383ZM17.3814 7.67265C17.5273 7.67265 17.5111 7.75356 17.4786 7.83451C17.43 7.89926 17.3003 8.12588 17.3003 8.12588C17.1765 8.0149 17.0336 7.92717 16.8787 7.86688C16.5868 7.75357 16.5057 7.73741 16.5057 7.67266L17.3814 7.67265Z" fill="#364650"/>
<path fill-rule="evenodd" clip-rule="evenodd" d="M17.5597 8.78971C17.5272 8.82211 17.5434 8.82212 17.5759 8.80592C19.1812 8.38505 19.4569 9.19443 19.4569 9.21063C19.4569 9.24299 19.4731 9.25919 19.4893 9.22679C19.5217 9.19443 20.0568 8.61166 19.6677 8.07748C19.2785 7.5433 18.3056 7.59185 18.3056 7.59185C18.1758 8.0539 17.9171 8.46941 17.5597 8.78971ZM18.3704 8.01271C18.4191 7.93171 18.4839 7.7861 18.4839 7.7861C18.6137 7.7861 18.8245 7.83466 18.8245 7.98033C18.673 7.95008 18.5161 7.96128 18.3704 8.01273V8.01271Z" fill="#364650"/>
<path fill-rule="evenodd" clip-rule="evenodd" d="M14.7544 11.9787C14.8322 11.6303 14.9874 11.3039 15.2084 11.0236C15.408 11.4973 15.7784 11.8787 16.2462 12.092C16.0977 11.7738 16.0167 11.4283 16.0083 11.0773C15.9999 10.7262 16.0644 10.3772 16.1975 10.0523C16.1914 9.86815 16.1354 9.68909 16.0354 9.53432C15.9153 9.68442 15.7572 9.79962 15.5776 9.86794C15.3979 9.93626 15.2032 9.9552 15.0138 9.9228C15.1405 9.71364 15.2284 9.48332 15.2732 9.24292C15.169 9.34335 15.0433 9.41884 14.9057 9.4637C14.7681 9.50856 14.6221 9.52163 14.4787 9.50192C14.4787 9.50192 14.1706 10.1171 13.9111 10.8131C14.1433 11.2348 14.4265 11.6262 14.7544 11.9787Z" fill="#364650"/>
<path fill-rule="evenodd" clip-rule="evenodd" d="M6.679 9.89067C6.66277 9.8745 6.6952 9.8583 6.679 9.89067C6.71142 9.89067 7.01952 10.0687 7.70058 9.63167C8.14772 9.31842 8.64754 9.08813 9.17618 8.95178C9.34641 9.07084 9.50888 9.20061 9.66263 9.3403C9.43562 9.34964 9.21306 9.4063 9.00922 9.50665C8.80538 9.60701 8.62476 9.74885 8.47893 9.92307C8.47893 9.93926 8.4627 9.93926 8.4627 9.92307C8.42344 9.80101 8.42921 9.66893 8.47893 9.55075C8.47893 9.55075 8.18703 9.72881 7.60328 10.0687C7.5326 10.1226 7.45136 10.1609 7.36486 10.1812C7.27836 10.2014 7.18855 10.2032 7.10131 10.1864C7.01407 10.1696 6.93136 10.1346 6.85859 10.0836C6.78581 10.0327 6.72462 9.96691 6.679 9.89067Z" fill="#364650"/>
<path fill-rule="evenodd" clip-rule="evenodd" d="M11.1215 9.63166C11.0436 9.35827 11.0216 9.072 11.0566 8.78991C11.242 8.99637 11.4906 9.13542 11.7636 9.18523C12.0365 9.23503 12.3183 9.19277 12.5646 9.06508C12.2728 9.08128 11.8836 8.74135 11.689 8.46615C11.9889 8.31982 12.2437 8.09514 12.4264 7.81588C12.6091 7.53662 12.7129 7.21318 12.7268 6.87976C12.0215 7.2552 11.2152 7.39691 10.4242 7.28444H8.57564C8.46211 7.28444 8.42969 7.34919 8.46211 7.4625C8.83511 8.70896 9.84044 9.00033 10.2296 9.5345C10.2552 9.3366 10.3156 9.14479 10.408 8.96793C10.5702 9.19459 10.9107 9.5831 11.1215 9.63166ZM10.0837 7.67295C10.0837 7.73771 10.0026 7.75387 9.71074 7.86721C9.55309 7.92197 9.40923 8.01034 9.28912 8.12621C9.28912 8.12621 9.1594 7.89959 9.11075 7.83484C9.0621 7.77009 9.04591 7.67297 9.20805 7.67297L10.0837 7.67295Z" fill="#364650"/>
<path fill-rule="evenodd" clip-rule="evenodd" d="M8.25235 7.60843C8.25235 7.60843 7.27943 7.57604 6.89024 8.09405C6.50108 8.62824 7.03619 9.19481 7.06861 9.24337C7.08484 9.27576 7.11726 9.25956 7.10106 9.2272C7.10106 9.19481 7.37669 8.38542 8.98205 8.82249C9.01447 8.83869 9.03071 8.83869 8.99826 8.80633C8.65293 8.47604 8.3964 8.06406 8.25235 7.60843ZM8.18747 8.01311C8.04194 7.96102 7.88492 7.94984 7.73347 7.98075C7.73347 7.83504 7.94425 7.78649 8.07397 7.78649C8.10485 7.86532 8.14284 7.94117 8.18747 8.01311Z" fill="#364650"/>
<path fill-rule="evenodd" clip-rule="evenodd" d="M11.8189 11.9787C11.7411 11.6303 11.5859 11.3039 11.3649 11.0236C11.1653 11.4973 10.7948 11.8786 10.3271 12.092C10.4756 11.7738 10.5566 11.4283 10.565 11.0773C10.5734 10.7262 10.509 10.3772 10.3758 10.0523C10.3819 9.86815 10.4379 9.68909 10.5379 9.53432C10.658 9.68442 10.8161 9.79963 10.9957 9.86795C11.1754 9.93627 11.3701 9.9552 11.5595 9.9228C11.4328 9.71364 11.3449 9.48332 11.3001 9.24292C11.4043 9.34335 11.53 9.41884 11.6676 9.4637C11.8052 9.50856 11.9512 9.52163 12.0946 9.50192C12.0946 9.50192 12.4027 10.1171 12.6622 10.8131C12.4245 11.2312 12.1417 11.6221 11.8189 11.9787Z" fill="#364650"/>
<path d="M16.0028 12.3675C15.6865 12.1947 15.4145 11.9509 15.2083 11.6552C15.0777 11.988 14.9905 12.3362 14.9488 12.6912C14.4474 12.2899 14.0428 11.7809 13.7651 11.2019C13.56 11.8049 13.3974 12.4216 13.2786 13.0473C13.1578 12.422 12.9953 11.8055 12.7922 11.2019C12.5099 11.7781 12.106 12.2862 11.6084 12.6912C11.561 12.3372 11.474 11.9897 11.349 11.6552C11.1428 11.9509 10.8708 12.1947 10.5544 12.3675C10.7166 13.1607 10.068 13.2416 10.0518 13.4035H16.5055C16.4894 13.2254 15.8407 13.1607 16.0028 12.3675Z" fill="#364650"/>
<path d="M17.2025 18.9882V13.8243C17.2025 13.8051 17.1988 13.7861 17.1915 13.7684C17.1842 13.7507 17.1734 13.7346 17.1598 13.721C17.1463 13.7075 17.1302 13.6968 17.1124 13.6895C17.0947 13.6822 17.0757 13.6785 17.0565 13.6786H9.54876C9.52959 13.6785 9.5106 13.6822 9.49287 13.6895C9.47513 13.6968 9.45901 13.7075 9.44544 13.721C9.43188 13.7346 9.42114 13.7507 9.41383 13.7684C9.40651 13.7861 9.40277 13.8051 9.40284 13.8243V19.0044C9.40215 19.2058 9.44648 19.4049 9.53257 19.5871C9.92629 20.2028 10.4893 20.6918 11.1541 20.9954C11.9132 21.369 12.6353 21.8134 13.3108 22.3228C13.9903 21.8194 14.7119 21.3753 15.4674 20.9954C16.129 20.6869 16.6908 20.199 17.089 19.5871C17.1674 19.3974 17.2061 19.1935 17.2025 18.9882ZM14.6728 15.7182L14.6891 15.7668C14.792 16.1432 14.8625 16.5277 14.8999 16.9161C15.1898 17.148 15.466 17.3966 15.7269 17.6608C16.1071 17.2782 16.3568 16.7853 16.4403 16.2525H16.4241C16.3214 16.2511 16.2233 16.2098 16.1506 16.1372C16.0779 16.0647 16.0364 15.9666 16.035 15.8639C16.0392 15.7896 16.0614 15.7173 16.0998 15.6535C15.8922 15.5564 15.6639 15.5119 15.435 15.524C15.2385 15.5232 15.0427 15.545 14.8512 15.5887H14.8188L14.7539 15.6049L14.7701 15.5564L14.8188 15.4107V15.3945H14.835C15.3055 15.2661 15.8065 15.3121 16.2458 15.524C16.3049 15.4881 16.3714 15.466 16.4403 15.4592C16.543 15.4606 16.6412 15.5019 16.7138 15.5744C16.7865 15.647 16.828 15.745 16.8295 15.8477C16.8297 15.9185 16.8101 15.9878 16.7728 16.048C16.7356 16.1081 16.6822 16.1565 16.6187 16.1877C16.5591 16.7931 16.2827 17.3565 15.8404 17.7741C15.8728 17.8065 15.889 17.8389 15.9215 17.8713C15.9377 17.8874 15.9539 17.9198 15.9701 17.936L15.9863 17.9522L15.9701 17.9684C15.9392 17.9973 15.9119 18.0299 15.889 18.0655L15.8728 18.0817L15.8566 18.0655H15.8404C15.8203 18.0471 15.8039 18.0251 15.7918 18.0007C15.7755 17.9684 15.7431 17.9522 15.7269 17.9198L15.5323 18.1141L15.4836 18.1626C15.4483 18.1926 15.4058 18.2128 15.3603 18.2213C15.3149 18.2298 15.2679 18.2263 15.2242 18.2112L15.1918 18.195L15.2242 18.1788C15.3701 18.0331 15.4999 17.9198 15.6134 17.7903C15.3981 17.5625 15.1707 17.3463 14.9324 17.1428C14.9485 17.3533 14.9485 17.5799 14.9485 17.7903C14.9485 17.9846 14.9324 18.1788 14.9161 18.4216V18.4378H14.8999C14.8675 18.454 14.8188 18.4864 14.754 18.5188L14.7215 18.535V18.4864C14.7378 18.2274 14.754 18.0008 14.754 17.7904V17.5152C14.7447 17.2224 14.7176 16.9305 14.6729 16.641H14.6567V16.6249C14.6237 16.3792 14.5749 16.1358 14.5108 15.8964V15.8802L14.527 15.864L14.5432 15.8478C14.5748 15.8196 14.6022 15.7869 14.6242 15.7507L14.6728 15.7182ZM12.127 15.1355C12.4351 14.407 12.8567 14.0023 13.3108 14.0023C13.7648 14.0023 14.1702 14.407 14.4945 15.1355V15.1517L14.4783 15.1679C14.4368 15.1929 14.3935 15.2145 14.3485 15.2326H14.3324L14.3161 15.2164C14.0405 14.5689 13.6675 14.1966 13.2946 14.1966C12.9216 14.1966 12.5487 14.5689 12.273 15.2164L12.2568 15.2326H12.2406C12.1957 15.2145 12.1523 15.1929 12.1108 15.1679L12.0946 15.1517L12.127 15.1355ZM12.0135 15.3297C12.2175 15.4537 12.4614 15.4943 12.6945 15.4431C13.0873 15.3351 13.5018 15.3351 13.8945 15.4431C14.1277 15.4943 14.3716 15.4537 14.5755 15.3297C14.5917 15.3136 14.6242 15.3297 14.6079 15.3621C14.5744 15.5033 14.4994 15.6313 14.3924 15.7294C14.2855 15.8275 14.1515 15.8913 14.008 15.9125C13.5701 16.0096 13.3756 16.5114 13.3107 16.7057C13.3107 16.7219 13.262 16.7219 13.262 16.7057C13.1972 16.4953 13.0026 16.0097 12.5648 15.9125C12.4225 15.8881 12.2902 15.8232 12.1838 15.7256C12.0774 15.628 12.0014 15.5018 11.9648 15.3621C11.9811 15.3297 11.9973 15.3136 12.0135 15.3297ZM12.7594 16.5762C12.8351 16.5797 12.9096 16.5568 12.9702 16.5114C13.0062 16.5799 13.0387 16.6501 13.0675 16.7219C12.9728 16.7732 12.8671 16.801 12.7594 16.8029C12.6012 16.8006 12.45 16.7368 12.338 16.625C12.226 16.5132 12.1619 16.3621 12.1594 16.2039C12.16 16.1258 12.1765 16.0487 12.2081 15.9773C12.273 16.0097 12.3378 16.042 12.4189 16.0744C12.4005 16.1153 12.3896 16.1591 12.3865 16.2039C12.3904 16.3015 12.431 16.394 12.5001 16.463C12.5692 16.532 12.6618 16.5724 12.7594 16.5762ZM12.5973 16.1877C12.5949 16.1649 12.6006 16.1419 12.6135 16.1229C12.7078 16.1691 12.7908 16.2354 12.8567 16.3172C12.8271 16.3351 12.7939 16.3462 12.7594 16.3496C12.7378 16.351 12.7161 16.3477 12.6958 16.3401C12.6756 16.3325 12.6571 16.3206 12.6418 16.3053C12.6264 16.29 12.6145 16.2716 12.6069 16.2513C12.5992 16.231 12.5959 16.2093 12.5973 16.1877ZM12.7594 16.9809C12.9025 16.9814 13.0428 16.9422 13.1648 16.8676C13.1972 16.8999 13.2459 17.0132 13.2945 17.0132C13.3432 17.0132 13.3918 16.8837 13.4243 16.8676C13.5454 16.9442 13.6863 16.9836 13.8296 16.9809C13.932 16.9815 14.0334 16.9618 14.128 16.9229C14.2227 16.884 14.3087 16.8267 14.381 16.7543V16.7704C14.446 16.9908 14.468 17.2216 14.4458 17.4503C14.4283 17.5763 14.4012 17.7008 14.3648 17.8226C14.337 17.916 14.3046 18.0078 14.2674 18.0978C14.2535 18.1291 14.2426 18.1616 14.235 18.195C14.1864 18.3083 14.1053 18.5187 13.9918 18.7453C13.7541 18.5954 13.4783 18.5168 13.1972 18.5187C12.9434 18.52 12.6935 18.581 12.4676 18.6968C12.3703 18.4864 12.3054 18.3083 12.2567 18.195C12.2394 18.1652 12.2283 18.1321 12.2243 18.0978C12.1792 17.9926 12.1413 17.8844 12.1108 17.7741C12.0799 17.6682 12.0582 17.5599 12.046 17.4503C12.026 17.2279 12.0424 17.0038 12.0946 16.7866C12.1126 16.7571 12.1237 16.7239 12.127 16.6895C12.2075 16.7781 12.3049 16.8495 12.4136 16.8995C12.5222 16.9496 12.6399 16.9773 12.7594 16.9809ZM13.8296 16.5762C13.8788 16.577 13.9276 16.568 13.9732 16.5496C14.0188 16.5312 14.0603 16.5038 14.0951 16.4691C14.1299 16.4343 14.1573 16.393 14.1758 16.3474C14.1943 16.3018 14.2034 16.253 14.2026 16.2039C14.2015 16.1588 14.1905 16.1146 14.1702 16.0744C14.2446 16.0519 14.3156 16.0192 14.381 15.9773C14.4142 16.0481 14.4308 16.1256 14.4296 16.2039C14.4271 16.3621 14.3631 16.5132 14.2511 16.625C14.1391 16.7368 13.9879 16.8006 13.8297 16.8029C13.722 16.801 13.6163 16.7732 13.5216 16.7219C13.5466 16.6485 13.5792 16.578 13.6189 16.5114C13.6828 16.5498 13.7552 16.572 13.8296 16.5762ZM13.7323 16.3334C13.7963 16.243 13.8871 16.175 13.9918 16.1391C14.0047 16.1581 14.0104 16.181 14.008 16.2039C14.0079 16.2468 13.9908 16.2879 13.9604 16.3183C13.93 16.3486 13.8888 16.3657 13.8459 16.3658C13.8059 16.3648 13.7668 16.3537 13.7324 16.3334H13.7323ZM10.1488 15.4592C10.2232 15.4634 10.2956 15.4856 10.3595 15.524C10.6053 15.3821 10.8869 15.3146 11.1703 15.3297C11.3658 15.3311 11.561 15.3474 11.7541 15.3783H11.7865V15.3945C11.8027 15.4269 11.8189 15.4916 11.8352 15.5402L11.8514 15.5887L11.7865 15.5726C11.7703 15.5726 11.7379 15.5564 11.7216 15.5564C11.5394 15.5255 11.3551 15.5093 11.1703 15.5078C10.9348 15.4998 10.7009 15.5498 10.4893 15.6535C10.5253 15.7125 10.5474 15.7789 10.5541 15.8477C10.5527 15.9504 10.5112 16.0485 10.4385 16.121C10.3658 16.1936 10.2677 16.2349 10.165 16.2363C10.2518 16.7681 10.501 17.26 10.8785 17.6446C11.1352 17.3761 11.4116 17.1272 11.7055 16.8999C11.7428 16.5168 11.8133 16.1377 11.9163 15.7668L11.9325 15.7182L11.9649 15.7506C11.9973 15.783 12.0136 15.8154 12.046 15.8477L12.0622 15.8639L12.0784 15.8801V15.8963C12.0111 16.135 11.9624 16.3786 11.9325 16.6248V16.6409H11.9163C11.8827 16.8663 11.8611 17.0932 11.8514 17.3208C11.8352 17.4989 11.8352 17.6446 11.8352 17.7903C11.8311 17.9905 11.8419 18.1907 11.8676 18.3892V18.4216L11.8352 18.4054C11.7942 18.3871 11.7503 18.3761 11.7055 18.373H11.6893V18.3569C11.673 18.195 11.673 17.9845 11.673 17.7903C11.673 17.5798 11.6893 17.3694 11.6893 17.1428C11.4476 17.3368 11.22 17.5477 11.0083 17.7741C11.1968 17.9747 11.3972 18.1639 11.6083 18.3407L11.6407 18.373L11.592 18.3892C11.5166 18.4087 11.4369 18.4031 11.365 18.373C11.1704 18.195 11.0083 18.0493 10.8948 17.9198C10.8624 17.9521 10.8462 17.9845 10.8137 18.0169L10.7975 18.0493C10.7651 18.0654 10.7164 18.0816 10.684 18.0978L10.6678 18.114L10.6516 18.0978L10.6191 18.0654C10.6029 18.0654 10.6029 18.0493 10.5867 18.0493L10.5705 18.0331L10.5867 18.0169C10.6516 17.936 10.7164 17.855 10.7651 17.7903C10.3324 17.3675 10.0626 16.8058 10.0029 16.2039C9.9355 16.1718 9.87845 16.1214 9.83831 16.0584C9.79817 15.9954 9.77655 15.9224 9.77593 15.8477C9.77347 15.7974 9.78131 15.7471 9.79897 15.6999C9.81663 15.6527 9.84374 15.6095 9.87864 15.5732C9.91354 15.5368 9.9555 15.5079 10.0019 15.4883C10.0484 15.4688 10.0983 15.4588 10.1488 15.4592ZM14.5593 20.2346C14.4206 20.7303 14.1103 21.1606 13.6837 21.4487C13.6669 21.5396 13.6187 21.6218 13.5476 21.6809C13.4766 21.7401 13.387 21.7724 13.2945 21.7724C13.2021 21.7724 13.1125 21.7401 13.0414 21.6809C12.9703 21.6218 12.9222 21.5396 12.9054 21.4487C12.4834 21.1559 12.1744 20.7274 12.0297 20.2346L12.0135 20.2184L12.1919 20.1699V20.186C12.3156 20.6064 12.5645 20.9791 12.9054 21.2544C12.9328 21.1778 12.9835 21.1117 13.0504 21.0652C13.1172 21.0188 13.1969 20.9944 13.2783 20.9954C13.3592 20.9967 13.4378 21.022 13.5043 21.0681C13.5707 21.1142 13.6219 21.1791 13.6513 21.2544C13.9873 20.9814 14.2354 20.6154 14.3648 20.2022V20.186H14.381C14.4297 20.186 14.4621 20.2022 14.5108 20.2022H14.5432L14.5593 20.2346ZM12.954 20.2022C12.9627 20.0048 12.9953 19.8091 13.0513 19.6195C13.1231 19.5717 13.2086 19.5489 13.2945 19.5547C13.3948 19.5548 13.492 19.5891 13.5702 19.6519C13.6209 19.831 13.6482 20.0161 13.6513 20.2022C13.6513 20.3317 13.3594 20.4289 13.3108 20.4289C13.2459 20.4289 12.954 20.3317 12.954 20.2022ZM16.9268 18.9558C16.9076 18.9857 16.8791 19.0084 16.8457 19.0205C16.8133 19.0367 16.7647 19.0367 16.716 19.0529H16.6836C16.6281 19.0516 16.5732 19.0406 16.5214 19.0205C16.5052 19.0044 16.489 19.0043 16.4728 18.9882C16.3451 19.0139 16.2202 19.0518 16.0998 19.1015C16.2811 19.1111 16.4556 19.1729 16.6025 19.2796C16.7036 19.3318 16.8136 19.3647 16.9268 19.3767C16.9268 19.4091 16.6187 19.6357 16.0512 19.5062L15.9052 19.4738C15.6475 19.399 15.3782 19.3715 15.1107 19.3928C15.136 19.4046 15.1638 19.4101 15.1918 19.409C15.2728 19.4414 15.3377 19.4576 15.4026 19.4899C15.4047 19.4899 15.4068 19.4903 15.4088 19.4911C15.4108 19.4918 15.4126 19.493 15.4141 19.4946C15.4156 19.4961 15.4168 19.4979 15.4176 19.4999C15.4184 19.5018 15.4188 19.504 15.4188 19.5061H15.4674C15.4999 19.5061 15.5161 19.5223 15.5485 19.5223L15.6458 19.5709C15.6944 19.6033 15.7269 19.6194 15.7431 19.668C15.7602 19.6858 15.7715 19.7084 15.7755 19.7328C15.7819 19.7579 15.7824 19.7842 15.7767 19.8095C15.7711 19.8348 15.7596 19.8584 15.7431 19.8784C15.7256 19.908 15.7007 19.9325 15.6708 19.9496C15.641 19.9666 15.6072 19.9756 15.5728 19.9756C15.5384 19.9756 15.5047 19.9666 15.4748 19.9496C15.4449 19.9325 15.42 19.908 15.4026 19.8784C15.3938 19.8697 15.3881 19.8583 15.3863 19.8461C15.3484 19.8108 15.3204 19.7661 15.3052 19.7166C15.3052 19.7004 15.2891 19.6842 15.2891 19.668H15.2728C15.2323 19.6248 15.1824 19.5915 15.1269 19.5709C15.0285 19.5262 14.925 19.4936 14.8188 19.4738C14.7908 19.4763 14.7626 19.4706 14.7377 19.4576C14.8233 19.5098 14.8999 19.5754 14.9647 19.6518C14.9647 19.654 14.9651 19.6561 14.9659 19.6581C14.9667 19.6601 14.9679 19.6619 14.9694 19.6634C14.9709 19.6649 14.9727 19.6661 14.9747 19.6669C14.9767 19.6677 14.9788 19.6681 14.9809 19.668C15.0458 19.7651 15.0296 19.8461 15.062 19.927C15.0972 20.041 15.172 20.1386 15.2728 20.2022C15.1291 20.2213 14.9829 20.2047 14.8472 20.1539C14.7114 20.1031 14.5903 20.0196 14.4945 19.9109C14.4783 19.8947 14.4782 19.8785 14.462 19.8623C14.4121 19.7534 14.3741 19.6394 14.3485 19.5223C14.3161 19.4252 14.3647 19.3443 14.3161 19.3119C14.3047 19.3023 14.2904 19.297 14.2756 19.297C14.2607 19.297 14.2463 19.3023 14.235 19.3119L14.2188 19.3281L14.2026 19.3443C14.1864 19.3605 14.1702 19.3766 14.1702 19.3928L14.1539 19.409C14.1447 19.4174 14.1389 19.429 14.1377 19.4414L14.1215 19.4576C14.1216 19.4597 14.1212 19.4619 14.1204 19.4638C14.1196 19.4658 14.1184 19.4676 14.1169 19.4691C14.1153 19.4707 14.1135 19.4719 14.1115 19.4727C14.1096 19.4734 14.1074 19.4738 14.1053 19.4738L14.0891 19.4899C14.0862 19.4937 14.0826 19.4968 14.0783 19.4989C14.0741 19.501 14.0695 19.5021 14.0647 19.5021C14.06 19.5021 14.0554 19.501 14.0511 19.4989C14.0469 19.4968 14.0432 19.4937 14.0404 19.4899L14.0242 19.5062C14.0155 19.5149 14.0041 19.5206 13.9918 19.5223C13.9664 19.5341 13.9386 19.5396 13.9107 19.5385C13.8783 19.5385 13.8458 19.5223 13.8458 19.4899C13.8448 19.4812 13.8457 19.4722 13.8485 19.4638C13.8513 19.4554 13.8559 19.4478 13.862 19.4414H13.8458C13.8296 19.4414 13.8134 19.4576 13.7972 19.4576C13.7728 19.4536 13.7502 19.4423 13.7323 19.4252C13.7245 19.4163 13.7202 19.4048 13.7202 19.3929C13.7202 19.3809 13.7245 19.3694 13.7323 19.3605C13.7486 19.3443 13.7323 19.3443 13.7323 19.3443C13.7161 19.3605 13.6837 19.3766 13.6675 19.3928C13.6513 19.409 13.6188 19.3928 13.6026 19.3928C13.5864 19.3766 13.5702 19.3605 13.5864 19.3281V19.2471H13.5378C13.4891 19.2309 13.4405 19.2309 13.408 19.2147H13.3756C13.3334 19.2336 13.2901 19.2498 13.2459 19.2633H13.2134C13.1972 19.2633 13.1972 19.2633 13.181 19.2795C13.1702 19.2687 13.1594 19.2579 13.1486 19.2471C13.1578 19.2387 13.1636 19.2272 13.1648 19.2147V19.1985H13.0837C13.0848 19.2073 13.0839 19.2162 13.0811 19.2246C13.0783 19.2331 13.0737 19.2407 13.0675 19.2471L13.0513 19.2633V19.328C13.0547 19.3393 13.055 19.3513 13.0522 19.3627C13.0493 19.3741 13.0434 19.3846 13.0351 19.3929C13.0267 19.4012 13.0163 19.4071 13.0049 19.4099C12.9935 19.4128 12.9815 19.4125 12.9702 19.409C12.954 19.409 12.954 19.3928 12.9378 19.3928C12.9216 19.3928 12.9216 19.3766 12.9054 19.3766H12.8891L12.8729 19.3605C12.873 19.3583 12.8726 19.3562 12.8718 19.3542C12.871 19.3522 12.8698 19.3504 12.8683 19.3489C12.8668 19.3474 12.865 19.3462 12.863 19.3454C12.861 19.3446 12.8589 19.3442 12.8567 19.3443V19.3928C12.8655 19.4016 12.8712 19.4129 12.8729 19.4252C12.8891 19.4414 12.8729 19.4738 12.8729 19.4899C12.8551 19.507 12.8325 19.5183 12.8081 19.5223H12.7756C12.7594 19.5223 12.7594 19.5062 12.7432 19.5062C12.7594 19.5223 12.7594 19.5385 12.7594 19.5709C12.7587 19.5835 12.7533 19.5955 12.7443 19.6044C12.7354 19.6134 12.7234 19.6187 12.7108 19.6195H12.6297L12.6135 19.6033C12.5973 19.5871 12.5973 19.5871 12.581 19.5871C12.5782 19.5909 12.5745 19.5939 12.5703 19.596C12.5661 19.5981 12.5614 19.5992 12.5567 19.5992C12.552 19.5992 12.5474 19.5981 12.5431 19.596C12.5389 19.5939 12.5352 19.5909 12.5324 19.5871L12.5162 19.5709C12.5 19.5547 12.5 19.5385 12.4837 19.5223V19.4738L12.4676 19.4576L12.4513 19.4414C12.3864 19.3767 12.2892 19.6033 12.2892 19.6033C12.2008 19.7873 12.0662 19.9451 11.8985 20.0615C11.7308 20.1778 11.5357 20.2486 11.3325 20.267C11.4287 20.195 11.4974 20.0921 11.527 19.9756C11.5422 19.8787 11.5752 19.7854 11.6243 19.7004C11.6406 19.6842 11.6406 19.668 11.6568 19.6518C11.7082 19.5897 11.7683 19.5352 11.8352 19.4899C11.8071 19.4874 11.779 19.4931 11.7541 19.5062C11.6478 19.526 11.5444 19.5586 11.446 19.6033C11.3905 19.6239 11.3405 19.6572 11.3 19.7004H11.2838C11.2849 19.7092 11.284 19.7181 11.2812 19.7265C11.2784 19.7349 11.2737 19.7426 11.2676 19.749C11.2522 19.79 11.2304 19.8283 11.2028 19.8623C11.2028 19.8785 11.1865 19.8785 11.1703 19.8947L11.1541 19.9109C11.1367 19.9397 11.1125 19.9639 11.0835 19.9811C11.0546 19.9984 11.0218 20.0082 10.9881 20.0098C10.9545 20.0114 10.9209 20.0047 10.8905 19.9903C10.86 19.9758 10.8336 19.9541 10.8135 19.927C10.8074 19.9206 10.8028 19.913 10.8 19.9046C10.7971 19.8962 10.7963 19.8873 10.7974 19.8785C10.7841 19.8423 10.7785 19.8037 10.7811 19.7652L10.8298 19.668C10.849 19.6381 10.8774 19.6154 10.9109 19.6033L11.0081 19.5547C11.0244 19.5547 11.0568 19.5385 11.073 19.5385H11.1216C11.1216 19.5364 11.122 19.5343 11.1228 19.5323C11.1236 19.5303 11.1248 19.5285 11.1263 19.527C11.1278 19.5255 11.1296 19.5243 11.1316 19.5235C11.1336 19.5227 11.1357 19.5223 11.1379 19.5223L11.2352 19.4738L11.3325 19.4252C11.3487 19.4252 11.3649 19.409 11.3811 19.409C11.1244 19.3958 10.8672 19.4231 10.619 19.4899C10.5703 19.5061 10.5217 19.5062 10.473 19.5223C10.1695 19.5621 9.8609 19.5172 9.5812 19.3928C9.5812 19.3605 9.72715 19.3605 9.90551 19.2633C9.99397 19.1988 10.0926 19.1495 10.1974 19.1176C10.2886 19.1016 10.3806 19.0908 10.473 19.0853C10.3311 19.0398 10.184 19.0126 10.0352 19.0043C10.019 19.0205 10.0028 19.0205 9.98658 19.0367C9.92529 19.0631 9.85851 19.0742 9.79198 19.0691C9.74333 19.0691 9.71091 19.0529 9.67849 19.0529C9.64508 19.0408 9.61659 19.0181 9.59739 18.9882C9.56786 18.9457 9.55621 18.8934 9.56496 18.8425C9.57258 18.8106 9.58723 18.781 9.60784 18.7556C9.62846 18.7302 9.65451 18.7097 9.68407 18.6957C9.71364 18.6818 9.74597 18.6746 9.77868 18.6748C9.81139 18.6749 9.84364 18.6825 9.87305 18.6968C9.93776 18.7184 9.99814 18.7513 10.0514 18.7939C10.0677 18.8101 10.0677 18.8101 10.0677 18.8263C10.1792 18.8459 10.288 18.8785 10.392 18.9234C10.4857 18.9655 10.5835 18.998 10.6838 19.0205C10.6591 19.0008 10.6318 18.9845 10.6028 18.972C10.5806 18.9517 10.5517 18.9402 10.5217 18.9396L10.4244 18.891C10.2416 18.8179 10.0759 18.7077 9.93794 18.5673C9.86086 18.4872 9.80995 18.3856 9.79198 18.2759C9.76271 18.1296 9.7136 17.988 9.64603 17.855C9.87361 17.9195 10.0804 18.0423 10.246 18.2111C10.3203 18.2932 10.3707 18.3939 10.392 18.5025V18.5187C10.4082 18.6158 10.5217 18.6968 10.6514 18.7939C10.6677 18.8101 10.6838 18.8263 10.7001 18.8263L10.6028 18.6806V18.6482C10.5865 18.632 10.5704 18.632 10.5704 18.6158L10.5217 18.5672L10.473 18.4701C10.4549 18.4355 10.4441 18.3975 10.4413 18.3585C10.4385 18.3195 10.4438 18.2804 10.4568 18.2435C10.4684 18.2223 10.4847 18.2041 10.5043 18.1901C10.524 18.176 10.5466 18.1666 10.5704 18.1626C10.7001 18.1302 10.7811 18.1949 10.8298 18.373V18.4702C10.834 18.4982 10.8283 18.5269 10.8136 18.5512C10.8136 18.5673 10.8136 18.5673 10.7974 18.5835L10.8136 18.5997C10.8874 18.791 11.0249 18.951 11.2028 19.053C11.0356 18.8871 10.9274 18.671 10.8947 18.4378C11.036 18.4819 11.172 18.5416 11.3 18.6159C11.3968 18.6547 11.4892 18.7035 11.5757 18.7616C11.6365 18.7956 11.6913 18.8393 11.7379 18.8911C11.777 18.9334 11.8204 18.9714 11.8676 19.0044L11.8838 19.0206L11.9649 19.1016C11.9811 19.1178 12.0135 19.134 12.0297 19.1502C12.0784 19.1825 12.1757 19.1502 12.1757 19.1502C12.2023 19.1432 12.2294 19.1378 12.2567 19.134C12.2567 19.1318 12.2571 19.1297 12.2579 19.1277C12.2587 19.1257 12.2599 19.1239 12.2614 19.1224C12.2629 19.1209 12.2647 19.1197 12.2667 19.1189C12.2687 19.1181 12.2708 19.1177 12.273 19.1178L12.2892 19.1016C12.3013 19.0874 12.3162 19.0759 12.3329 19.0675C12.3496 19.0592 12.3678 19.0543 12.3865 19.053V19.0207C12.3931 18.9956 12.4053 18.9725 12.4221 18.9528C12.439 18.9332 12.46 18.9177 12.4838 18.9074C12.5 18.9074 12.5162 18.8912 12.5324 18.8912H12.6135C12.6297 18.875 12.6459 18.8426 12.6621 18.8264H12.6784C12.7131 18.8119 12.7511 18.8072 12.7883 18.8129C12.8255 18.8186 12.8604 18.8345 12.8892 18.8588C12.9033 18.8709 12.9149 18.8858 12.9233 18.9024C12.9317 18.9191 12.9366 18.9373 12.9378 18.9559V19.0369C12.9367 19.0457 12.9376 19.0546 12.9404 19.063C12.9432 19.0714 12.9479 19.0791 12.954 19.0855H13.1162C13.139 19.0831 13.162 19.0888 13.1811 19.1017C13.2135 19.1017 13.2459 19.1178 13.2783 19.1178C13.3033 19.1048 13.3314 19.0992 13.3594 19.1017C13.3756 19.1017 13.3918 19.0855 13.4243 19.0855H13.5053C13.5053 19.0531 13.5216 19.0207 13.5216 18.9883C13.5173 18.9603 13.5231 18.9316 13.5378 18.9074C13.5384 18.8989 13.542 18.891 13.5479 18.8851C13.5539 18.8791 13.5618 18.8755 13.5702 18.875L13.6026 18.8426C13.6281 18.824 13.6582 18.8127 13.6896 18.8098C13.721 18.807 13.7526 18.8127 13.781 18.8264L13.7972 18.8426C13.8173 18.861 13.8337 18.883 13.8459 18.9074H13.9107C13.927 18.9074 13.9432 18.9073 13.9432 18.9235C13.9594 18.9235 13.9594 18.9235 13.9594 18.9397C14.0041 18.9648 14.0386 19.005 14.0567 19.053V19.0692H14.1377C14.203 19.0683 14.2681 19.0738 14.3323 19.0854L14.4945 19.1016L14.5431 19.053L14.6729 18.9235C14.7237 18.8765 14.7779 18.8332 14.835 18.794C14.9347 18.744 15.0376 18.7008 15.1431 18.6645C15.4512 18.535 15.4836 18.357 15.5161 18.3731C15.5017 18.6366 15.3988 18.8875 15.2242 19.0854C15.3987 18.9794 15.535 18.8207 15.6134 18.6322C15.6133 18.63 15.6137 18.6279 15.6145 18.6259C15.6153 18.6239 15.6165 18.6221 15.6181 18.6206C15.6196 18.6191 15.6214 18.6179 15.6234 18.6171C15.6253 18.6163 15.6275 18.6159 15.6296 18.616C15.6296 18.5998 15.6134 18.5998 15.6134 18.5836C15.6134 18.5512 15.5972 18.535 15.5972 18.5026V18.4055C15.6458 18.2436 15.7269 18.1627 15.8566 18.195C15.9082 18.2055 15.9543 18.2342 15.9864 18.276C16.0035 18.312 16.011 18.3517 16.0082 18.3915C16.0054 18.4312 15.9923 18.4695 15.9702 18.5026L15.9215 18.5998C15.9053 18.616 15.8891 18.6483 15.8729 18.6483C15.8566 18.6645 15.8404 18.6645 15.8242 18.6807V18.7131C15.7918 18.7616 15.7593 18.8102 15.7107 18.875C15.7269 18.8588 15.7593 18.8426 15.7756 18.8264C15.9215 18.7131 16.0188 18.616 16.035 18.5188C16.0562 18.4102 16.1067 18.3095 16.1809 18.2275C16.2713 18.0998 16.3946 17.9991 16.5377 17.9361C16.6209 17.9058 16.7086 17.8894 16.7971 17.8875C16.8134 17.9199 16.635 17.9847 16.5863 18.2922C16.5633 18.4199 16.5136 18.5412 16.4404 18.6483C16.3231 18.7677 16.1783 18.8567 16.0188 18.9073L15.9864 18.9235C15.9498 18.9426 15.9119 18.9589 15.8729 18.9721C15.8313 18.9969 15.788 19.0186 15.7431 19.0368C15.8488 19.0147 15.952 18.9822 16.0512 18.9397C16.1544 18.8926 16.2635 18.8599 16.3755 18.8426C16.3755 18.8264 16.3917 18.8264 16.408 18.8102C16.4571 18.7617 16.519 18.7281 16.5863 18.7131C16.6158 18.6988 16.648 18.6913 16.6807 18.6911C16.7134 18.6909 16.7457 18.6981 16.7753 18.7121C16.8049 18.7261 16.8309 18.7465 16.8515 18.7719C16.8722 18.7973 16.8868 18.827 16.8944 18.8588C16.9592 18.891 16.943 18.9396 16.9268 18.9558Z" fill="#364650"/>
<path fill-rule="evenodd" clip-rule="evenodd" d="M23.8508 11.6876C23.2633 11.5322 22.6587 11.4506 22.0509 11.4447C23.0725 10.7487 23.1049 9.25943 22.813 8.17484C22.5676 8.93994 22.1325 9.63048 21.5483 10.1821C21.5633 10.7392 21.4524 11.2926 21.224 11.8009C21.5815 11.9331 21.9196 12.1128 22.2293 12.3351C21.9761 12.6276 21.6936 12.8934 21.3861 13.1283C21.5969 13.3549 21.9537 13.7596 22.1158 13.9862C21.7986 14.1786 21.4615 14.336 21.1104 14.4557C21.283 14.7988 21.4084 15.1636 21.4834 15.5402C21.1077 15.5962 20.7282 15.6233 20.3483 15.6212C20.3623 15.9954 20.3351 16.37 20.2673 16.7382C19.8899 16.7002 19.5221 16.5961 19.1808 16.4307C19.0901 16.7457 18.9535 17.0457 18.7754 17.321C18.6463 17.1521 18.4826 17.0127 18.2952 16.9122C18.1079 16.8117 17.9012 16.7524 17.689 16.7382V16.4631C17.8704 16.4597 18.0504 16.4938 18.2179 16.5635C18.3853 16.6331 18.5365 16.7367 18.662 16.8677C18.7931 16.5928 18.8963 16.3054 18.97 16.0098C19.2821 16.1657 19.6154 16.2748 19.9592 16.3336C20.0054 15.9955 20.0108 15.6531 19.9754 15.3137C20.3428 15.3511 20.7135 15.3402 21.078 15.2814C20.9708 14.9286 20.8182 14.5912 20.624 14.2777C20.968 14.1878 21.3 14.0574 21.6132 13.8892C21.3968 13.6063 21.1582 13.3411 20.8997 13.096C21.1939 12.8934 21.4657 12.6601 21.7105 12.3999C21.407 12.2093 21.0868 12.0467 20.7538 11.9143C21.1414 11.2027 21.2946 10.387 21.1916 9.58331C20.7846 10.6689 20.0252 11.5866 19.0349 12.1895C18.9266 12.2741 18.8557 12.3977 18.8375 12.5339C18.8193 12.6701 18.8553 12.808 18.9376 12.918C19.0933 13.1315 19.183 13.3859 19.1956 13.6497C19.2082 13.9136 19.1432 14.1754 19.0086 14.4027C18.8741 14.6301 18.6758 14.813 18.4384 14.9289C18.201 15.0448 17.9349 15.0885 17.6728 15.0548V13.3711C17.6727 13.3281 17.6556 13.287 17.6252 13.2567C17.5948 13.2263 17.5536 13.2093 17.5107 13.2092H9.04622C9.00328 13.2093 8.96212 13.2263 8.93173 13.2567C8.90134 13.287 8.8842 13.3281 8.88406 13.3711V15.0546C8.62205 15.0884 8.35589 15.0446 8.11848 14.9287C7.88108 14.8129 7.68283 14.6299 7.54826 14.4026C7.4137 14.1753 7.34871 13.9135 7.36133 13.6496C7.37395 13.3857 7.46363 13.1313 7.61928 12.9179C7.70161 12.8079 7.73754 12.6699 7.71935 12.5338C7.70115 12.3976 7.63029 12.2739 7.52197 12.1894C6.52762 11.5912 5.7669 10.6719 5.36531 9.58315C5.27039 10.3866 5.42314 11.1999 5.80312 11.9142C5.46715 12.04 5.14627 12.2029 4.84641 12.3998C5.09121 12.6599 5.363 12.8933 5.65718 13.0959C5.3987 13.3409 5.16011 13.6062 4.9437 13.8891C5.25626 14.0586 5.58847 14.189 5.93285 14.2776C5.73579 14.5895 5.58298 14.9273 5.47884 15.2812C5.8417 15.3562 6.21487 15.3671 6.5815 15.3136C6.54607 15.6529 6.55152 15.9953 6.5977 16.3334C6.94215 16.2772 7.27581 16.168 7.58684 16.0097C7.6532 16.3074 7.75672 16.5956 7.89496 16.8676C8.15705 16.6155 8.5043 16.471 8.86787 16.4629V16.7381C8.65612 16.7539 8.45004 16.814 8.26291 16.9144C8.07578 17.0147 7.91178 17.1532 7.78145 17.3209C7.6034 17.0456 7.46681 16.7456 7.37605 16.4305C7.032 16.5886 6.66549 16.6924 6.28961 16.7381C6.22919 16.3689 6.20206 15.9951 6.20854 15.6211C5.82864 15.6237 5.44913 15.5967 5.07346 15.5401C5.15105 15.1642 5.2764 14.7997 5.44646 14.4555C5.09408 14.339 4.75663 14.1815 4.44109 13.9861C4.66187 13.6817 4.90583 13.3949 5.17079 13.1281C4.87062 12.8848 4.58879 12.6197 4.32759 12.3349C4.63929 12.1159 4.97701 11.9365 5.33296 11.8007C5.09683 11.2949 4.9856 10.7397 5.00864 10.182C4.4244 9.63034 3.98929 8.93979 3.74384 8.17468C3.43575 9.25927 3.48441 10.7485 4.50597 11.4446C3.8995 11.4665 3.29664 11.5478 2.70605 11.6874C3.15826 12.1333 3.67818 12.5048 4.24652 12.7882C3.78497 12.9715 3.35324 13.2225 2.96552 13.5328C3.439 13.7753 3.93985 13.96 4.45734 14.0832C4.1501 14.3622 3.87786 14.6775 3.64658 15.0221C4.07648 15.1322 4.51667 15.1973 4.96004 15.2164C4.80657 15.5445 4.70273 15.8937 4.65195 16.2524C5.04278 16.2615 5.43363 16.2344 5.81946 16.1714C5.78885 16.4898 5.79974 16.8108 5.85187 17.1265C6.18859 17.0695 6.51959 16.9829 6.841 16.8675C6.92947 17.1652 7.04906 17.4528 7.19775 17.7255C7.35248 17.6952 7.50436 17.6519 7.65175 17.5959C7.8548 17.5212 8.07839 17.5245 8.27914 17.6052C8.4799 17.686 8.64349 17.8384 8.73819 18.033C9.04628 18.7453 8.93274 19.587 8.33279 19.409C7.63551 19.5223 8.12201 20.3803 7.7328 20.6555C8.26791 21.0116 8.43007 20.1536 9.07867 20.2993C9.01698 20.6742 9.01153 21.0561 9.06248 21.4325C9.27134 21.2728 9.51642 21.1671 9.77596 21.1249C9.7129 21.4233 9.7074 21.731 9.75974 22.0314C10.087 21.9006 10.423 21.7924 10.7651 21.7077C10.5687 22.133 10.5229 22.6126 10.6354 23.0674C10.7489 23.1484 11.5434 22.7761 11.5596 22.5333C11.5343 22.7647 11.4429 22.984 11.2962 23.1648C11.1495 23.3457 10.9539 23.4805 10.7327 23.5531C10.875 23.7099 11.0474 23.8365 11.2396 23.9255C11.4318 24.0144 11.6399 24.064 11.8515 24.0711C11.9299 24.0722 12.0075 24.0556 12.0785 24.0225C12.0285 24.1794 12.0174 24.346 12.0461 24.5081H12.1434C12.2728 24.516 12.4019 24.4879 12.5164 24.4271C12.533 24.5898 12.6012 24.743 12.711 24.8642L12.7759 24.929C12.836 24.8532 12.9124 24.7921 12.9994 24.75C13.0865 24.708 13.1819 24.6861 13.2785 24.6861C13.3752 24.6861 13.4706 24.708 13.5577 24.75C13.6447 24.7921 13.7211 24.8532 13.7812 24.929C13.8102 24.9162 13.8333 24.8931 13.8461 24.8642C13.9559 24.743 14.0241 24.5899 14.0407 24.4271C14.1578 24.4804 14.2849 24.508 14.4136 24.5081H14.5109C14.5401 24.3461 14.529 24.1793 14.4785 24.0225C14.5495 24.0556 14.6271 24.0722 14.7055 24.0711C14.9174 24.0652 15.1259 24.0163 15.3182 23.9272C15.5106 23.8382 15.6828 23.7109 15.8243 23.5531C15.6024 23.4817 15.406 23.3472 15.2592 23.1662C15.1123 22.9851 15.0213 22.7652 14.9973 22.5333C15.0136 22.7761 15.8081 23.1484 15.9216 23.0674C16.0341 22.6126 15.9884 22.133 15.7919 21.7077C16.1341 21.7924 16.47 21.9006 16.7973 22.0314C16.8496 21.731 16.8441 21.4233 16.7811 21.1249C17.0406 21.1671 17.2857 21.2728 17.4945 21.4325C17.5536 21.0566 17.5481 20.6734 17.4783 20.2993C18.1269 20.1536 18.2891 21.0116 18.8242 20.6555C18.435 20.3803 18.9053 19.5223 18.2242 19.409C17.6242 19.5871 17.5107 18.7453 17.8188 18.033C17.9135 17.8384 18.0771 17.686 18.2778 17.6052C18.4786 17.5245 18.7022 17.5212 18.9052 17.5959C19.0512 17.6445 19.2133 17.6931 19.3592 17.7255C19.505 17.4514 19.6245 17.1641 19.7159 16.8675C20.0374 16.9828 20.3684 17.0695 20.7051 17.1265C20.7494 16.8101 20.7603 16.49 20.7375 16.1714C21.1224 16.2425 21.5141 16.2696 21.905 16.2524C21.852 15.8942 21.7482 15.5453 21.597 15.2164C22.0403 15.1973 22.4805 15.1322 22.9104 15.0221C22.6791 14.6775 22.4069 14.3622 22.0996 14.0832C22.6185 13.9647 23.1199 13.7797 23.5914 13.5328C23.2014 13.2259 22.7702 12.9752 22.3104 12.7882C22.8812 12.5089 23.4017 12.137 23.8508 11.6876ZM17.316 19.7005C17.2953 19.7523 17.2681 19.8013 17.235 19.8462C17.2187 19.8624 17.2187 19.8786 17.2025 19.8947C17.1701 19.9271 17.1539 19.9757 17.1214 20.0081C17.1053 20.0243 17.089 20.0566 17.0728 20.0728C17.0342 20.1253 16.9908 20.1741 16.9431 20.2185L16.8458 20.3157L16.7647 20.3966C16.7229 20.4302 16.6849 20.4682 16.6512 20.5099C16.635 20.5261 16.6026 20.5423 16.5863 20.5746C16.489 20.6556 16.3755 20.7527 16.262 20.8336C16.1084 20.9491 15.9457 21.052 15.7756 21.1412C15.7107 21.1736 15.6621 21.206 15.5972 21.2383C14.7864 21.6211 14.0243 22.0993 13.327 22.6629H13.3108C12.6119 22.1016 11.85 21.6236 11.0407 21.2383C10.9758 21.206 10.9271 21.1736 10.8623 21.1412C10.6921 21.052 10.5294 20.9491 10.3758 20.8336C10.2623 20.7526 10.1488 20.6556 10.0515 20.5746C10.0353 20.5585 10.0029 20.5423 9.98665 20.5099C9.94116 20.4807 9.90245 20.442 9.87315 20.3966L9.79205 20.3157L9.69479 20.2185C9.6471 20.1741 9.60367 20.1253 9.56505 20.0728C9.54885 20.0566 9.53262 20.0243 9.51639 20.0081C9.48412 19.9743 9.45683 19.9362 9.43532 19.8947C9.41912 19.8786 9.41912 19.8624 9.40289 19.8462C9.36978 19.8013 9.34253 19.7523 9.32182 19.7005C9.21627 19.4726 9.16626 19.223 9.17589 18.9721V13.5815C9.17601 13.5386 9.19314 13.4975 9.22353 13.4671C9.25391 13.4368 9.29509 13.4197 9.33803 13.4197H17.2836C17.3266 13.4197 17.3677 13.4368 17.3981 13.4671C17.4285 13.4975 17.4456 13.5386 17.4458 13.5815V18.9721C17.4767 19.2224 17.4315 19.4762 17.316 19.7005Z" fill="#364650"/>
</svg>
