<svg width="90" height="29" viewBox="0 0 90 29" fill="none" xmlns="http://www.w3.org/2000/svg">
<path d="M37.7203 4.26294V8.6395H36.8815V4.94976H34.7966V8.6395H33.9639V4.26294H37.7203Z" fill="#364650"/>
<path d="M40.3644 4.26296C40.8673 4.22197 41.3705 4.33769 41.805 4.59422C41.9593 4.72187 42.0803 4.88509 42.1577 5.06984C42.235 5.2546 42.2663 5.45537 42.2488 5.65489C42.2488 6.57889 41.6207 7.04087 40.3644 7.04081H39.5256V8.63952H38.6929V4.26296H40.3644ZM40.3644 6.39657C41.0574 6.39657 41.4038 6.14735 41.4038 5.64889C41.4114 5.54367 41.3926 5.43821 41.3491 5.34212C41.3056 5.24603 41.2387 5.16235 41.1546 5.09869C40.9153 4.96078 40.6399 4.89832 40.3644 4.91947H39.5256V6.39657H40.3644Z" fill="#364650"/>
<path d="M45.67 8.6395L45.287 7.5514H43.4332L43.0502 8.6395H42.187L43.8585 4.26294H44.8674L46.5394 8.6395H45.67ZM43.6578 6.91317H45.0623L44.4484 5.15641L44.3632 4.87074L44.278 5.1504L43.6578 6.91317Z" fill="#364650"/>
<path d="M49.7047 6.37215C49.997 6.38903 50.2743 6.50728 50.4889 6.70655C50.5865 6.80427 50.6629 6.92116 50.7131 7.04984C50.7633 7.17853 50.7863 7.31622 50.7807 7.45424C50.7807 8.24439 50.1526 8.63949 48.8963 8.63953H47.1274V4.26297H48.8354C49.3005 4.22834 49.7661 4.3252 50.1788 4.5425C50.3184 4.63827 50.4306 4.76887 50.5042 4.92136C50.5777 5.07384 50.6102 5.24291 50.5983 5.41181C50.6034 5.53372 50.5842 5.65542 50.5419 5.76987C50.4996 5.88433 50.4351 5.98925 50.352 6.07857C50.2689 6.16789 50.1689 6.23983 50.0577 6.29022C49.9466 6.34062 49.8266 6.36847 49.7047 6.37215ZM48.8171 4.88291H47.948V6.08648H48.8475C49.492 6.08648 49.8142 5.88793 49.8141 5.49083C49.8141 5.08567 49.4818 4.88303 48.8171 4.88291ZM48.8781 8.01345C49.579 8.01345 49.9295 7.79261 49.9296 7.35092C49.9296 6.88892 49.5668 6.65792 48.8414 6.65792H47.948V8.01341L48.8781 8.01345Z" fill="#364650"/>
<path d="M51.5132 8.63952V4.26295H52.3035V7.57571L52.5101 7.2597L54.6011 4.26294H55.3911V8.6395H54.6011V5.32663L54.4188 5.61243L52.3035 8.63952H51.5132Z" fill="#364650"/>
<path d="M59.5164 4.26294V4.94976H58.1794V8.6395H57.3406V4.94976H56.0093V4.26294H59.5164Z" fill="#364650"/>
<path d="M63.2349 4.94976H60.9615V6.06215H63.1134V6.68223H60.9615V7.95267H63.2349V8.6395H60.1289V4.26294H63.2349V4.94976Z" fill="#364650"/>
<path d="M63.7515 8.6395V7.9404C63.8212 7.94299 63.8907 7.93109 63.9556 7.90546C64.0205 7.87982 64.0793 7.84102 64.1285 7.79148C64.2377 7.67361 64.3242 7.5366 64.3837 7.38733C64.5581 6.85866 64.6584 6.30838 64.6816 5.75218L64.803 4.26294H67.6235V8.6395H66.7846V4.93761H65.569L65.5021 5.78261C65.4706 6.3895 65.3624 6.98996 65.1801 7.56968C65.0833 7.90951 64.8837 8.21105 64.6087 8.43284C64.3546 8.59674 64.0523 8.66961 63.7515 8.6395Z" fill="#364650"/>
<path d="M70.2676 5.98312C70.7634 5.94807 71.2577 6.06927 71.681 6.32967C71.8273 6.45027 71.9454 6.60153 72.0268 6.77277C72.1082 6.94401 72.151 7.13105 72.1522 7.32066C72.1533 7.51026 72.1129 7.69781 72.0336 7.87004C71.9543 8.04227 71.8381 8.19499 71.6933 8.31738C71.2606 8.56381 70.7643 8.67594 70.2676 8.6395H68.5962V4.26294H69.4288V5.98312H70.2676ZM70.2676 8.00127C70.542 8.02177 70.8164 7.96267 71.0579 7.83106C71.1409 7.77275 71.2076 7.69399 71.2512 7.60241C71.2949 7.51083 71.3142 7.40953 71.3072 7.30831C71.3072 6.84631 70.9606 6.61531 70.2676 6.61531H69.4288V8.00123L70.2676 8.00127Z" fill="#364650"/>
<path d="M74.7886 8.72459C74.5021 8.73908 74.2159 8.69208 73.949 8.58672C73.6822 8.48137 73.4411 8.32011 73.2418 8.11379C72.8452 7.65829 72.6414 7.06644 72.6733 6.46336C72.6408 5.85475 72.8445 5.25708 73.2418 4.7949C73.4401 4.58692 73.6809 4.42414 73.9479 4.31765C74.2148 4.21117 74.5015 4.16348 74.7886 4.17783C75.2262 4.15272 75.6593 4.27841 76.0154 4.53395C76.3716 4.78949 76.6294 5.15941 76.7459 5.58204L75.9253 5.80697C75.8768 5.54138 75.7363 5.30136 75.5284 5.12906C75.3205 4.95676 75.0586 4.86319 74.7886 4.86478C74.6161 4.85758 74.4445 4.89224 74.2884 4.96581C74.1323 5.03938 73.9962 5.14966 73.892 5.28722C73.6563 5.63245 73.5419 6.04612 73.5667 6.46336C73.5421 6.87539 73.6579 7.28358 73.8951 7.62136C74.0001 7.75692 74.136 7.86543 74.2914 7.93786C74.4468 8.0103 74.6173 8.04456 74.7886 8.03779C75.0447 8.04321 75.2942 7.95574 75.4909 7.79156C75.7004 7.60688 75.8514 7.36496 75.9253 7.09556L76.7459 7.3265C76.6238 7.7382 76.3736 8.10022 76.0316 8.35987C75.6679 8.61329 75.2315 8.74133 74.7886 8.72459Z" fill="#364650"/>
<path d="M80.5952 4.26294V4.94976H79.2581V8.6395H78.4192V4.94976H77.0879V4.26294H80.5952Z" fill="#364650"/>
<path d="M83.7847 6.37215C84.0771 6.38903 84.3544 6.50728 84.569 6.70655C84.6666 6.80427 84.7429 6.92116 84.7932 7.04984C84.8434 7.17853 84.8664 7.31621 84.8608 7.45424C84.8608 8.24439 84.2326 8.63949 82.9764 8.63953H81.2075V4.26297H82.9155C83.3807 4.22834 83.8461 4.32521 84.2589 4.5425C84.3985 4.63827 84.5106 4.76887 84.5842 4.92135C84.6578 5.07384 84.6903 5.24291 84.6784 5.41181C84.6835 5.53372 84.6643 5.65542 84.622 5.76987C84.5797 5.88432 84.5152 5.98925 84.4321 6.07857C84.3489 6.16789 84.2489 6.23983 84.1378 6.29023C84.0267 6.34062 83.9067 6.36847 83.7847 6.37215ZM82.8973 4.88291H82.0281V6.08648H82.9276C83.5721 6.08648 83.8943 5.88793 83.8942 5.49083C83.8942 5.08567 83.5619 4.88303 82.8973 4.88291ZM82.9581 8.01345C83.659 8.01345 84.0096 7.79261 84.0096 7.35092C84.0096 6.88892 83.647 6.65792 82.9216 6.65792H82.0281V8.01341L82.9581 8.01345Z" fill="#364650"/>
<path d="M89.0834 8.11069C88.6577 8.50535 88.0986 8.72462 87.5181 8.72462C86.9376 8.72462 86.3786 8.50535 85.9529 8.11069C85.5531 7.6556 85.347 7.06232 85.3784 6.45738C85.3456 5.84909 85.5505 5.25187 85.9498 4.79179C86.3766 4.39709 86.9366 4.17786 87.518 4.17786C88.0994 4.17786 88.6594 4.39709 89.0863 4.79179C89.4856 5.25187 89.6904 5.84909 89.6576 6.45738C89.6891 7.06227 89.483 7.65551 89.0834 8.11069ZM87.5243 8.0378C87.6983 8.04504 87.8716 8.01109 88.03 7.93873C88.1885 7.86637 88.3275 7.75764 88.436 7.62138C88.6775 7.28313 88.7954 6.8722 88.7701 6.45737C88.7943 6.03983 88.6766 5.62638 88.436 5.28424C88.3237 5.15117 88.1837 5.04417 88.0259 4.97066C87.868 4.89716 87.696 4.85893 87.5218 4.85863C87.3477 4.85834 87.1756 4.89598 87.0175 4.96893C86.8594 5.04189 86.719 5.14842 86.6063 5.28111C86.3648 5.62401 86.2469 6.03873 86.2718 6.45737C86.2466 6.87223 86.3647 7.28316 86.6063 7.62138C86.7157 7.75815 86.8558 7.86715 87.0154 7.93951C87.1749 8.01188 87.3493 8.04555 87.5243 8.0378Z" fill="#364650"/>
<path d="M35.6354 11.5573C36.1383 11.5163 36.6415 11.632 37.0759 11.8885C37.2303 12.0162 37.3513 12.1794 37.4286 12.3642C37.506 12.5489 37.5373 12.7497 37.5198 12.9492C37.5198 13.8732 36.8917 14.3352 35.6354 14.3351H34.7966V15.934H33.9639V11.5573H35.6354ZM35.6354 13.6909C36.3284 13.6909 36.6748 13.4416 36.6748 12.9432C36.6824 12.838 36.6636 12.7325 36.6201 12.6364C36.5766 12.5403 36.5097 12.4567 36.4256 12.393C36.1863 12.2551 35.9109 12.1926 35.6354 12.2138H34.7966V13.6909H35.6354Z" fill="#364650"/>
<path d="M41.2853 12.2442H39.012V13.3566H41.1637V13.9767H39.012V15.2472H41.2853V15.9341H38.1792V11.5574H41.2853V12.2442Z" fill="#364650"/>
<path d="M43.9598 16.0189C43.6734 16.0334 43.3871 15.9863 43.1203 15.881C42.8535 15.7756 42.6123 15.6144 42.413 15.4081C42.0165 14.9526 41.8128 14.3607 41.8447 13.7577C41.8122 13.1491 42.0158 12.5514 42.413 12.0892C42.6113 11.8813 42.8522 11.7185 43.1191 11.612C43.3861 11.5055 43.6728 11.4578 43.9598 11.4721C44.3975 11.447 44.8305 11.5727 45.1867 11.8283C45.5429 12.0838 45.8007 12.4537 45.9171 12.8763L45.0968 13.1013C45.0483 12.8356 44.9077 12.5956 44.6998 12.4233C44.4919 12.251 44.2299 12.1575 43.9598 12.1591C43.7874 12.1519 43.6157 12.1865 43.4596 12.2601C43.3035 12.3337 43.1675 12.444 43.0632 12.5815C42.8278 12.9268 42.7134 13.3405 42.7382 13.7577C42.7136 14.1697 42.8293 14.5778 43.0663 14.9157C43.1714 15.0512 43.3072 15.1597 43.4627 15.2321C43.6181 15.3046 43.7885 15.3388 43.9598 15.3321C44.216 15.3376 44.4654 15.2502 44.6621 15.086C44.8717 14.9013 45.0227 14.6594 45.0968 14.39L45.9171 14.6209C45.7951 15.0326 45.5449 15.3946 45.2029 15.6542C44.8392 15.9076 44.4028 16.0356 43.9598 16.0189Z" fill="#364650"/>
<path d="M50.3395 11.5574V15.9341H49.5006V12.2442H47.4156V15.9341H46.583V11.5574H50.3395Z" fill="#364650"/>
<path d="M51.9268 16.013C51.7541 16.0171 51.5819 15.9946 51.4161 15.9461V15.2715C51.5744 15.3016 51.7351 15.3178 51.8962 15.3201C52.0541 15.3269 52.2093 15.2773 52.3341 15.1804C52.3923 15.1291 52.438 15.0652 52.4675 14.9935C52.497 14.9217 52.5096 14.8442 52.5042 14.7668C52.4917 14.5867 52.4376 14.412 52.3461 14.2563L50.9419 11.5574H51.8356L53.0452 14.08L54.1696 11.5574H55.0571L53.5377 14.7122C53.3789 15.0875 53.1498 15.429 52.8629 15.7183C52.598 15.9288 52.2645 16.0338 51.9268 16.013Z" fill="#364650"/>
<path d="M57.3321 13.3019C58.5884 13.3019 59.2166 13.7396 59.2165 14.615C59.2322 14.8062 59.1994 14.9983 59.1213 15.1736C59.0433 15.3489 58.9223 15.5017 58.7697 15.618C58.3323 15.8631 57.832 15.9731 57.3321 15.9341H55.6606V11.5574H58.8398V12.2442H56.4932V13.3018L57.3321 13.3019ZM57.3321 15.2959C58.0252 15.2959 58.3717 15.0709 58.3716 14.621C58.3716 14.1592 58.0251 13.9281 57.3321 13.928H56.4932V15.2959H57.3321Z" fill="#364650"/>
<path d="M59.6387 15.9341V15.235C59.7084 15.2375 59.7779 15.2256 59.8428 15.2C59.9077 15.1744 59.9665 15.1356 60.0157 15.0861C60.1248 14.9681 60.2114 14.8311 60.2709 14.6819C60.4453 14.1532 60.5455 13.6029 60.5687 13.0466L60.6902 11.5574H63.5106V15.9341H62.6718V12.2321H61.4562L61.3893 13.0771C61.3577 13.684 61.2495 14.2845 61.0672 14.8643C60.9705 15.2041 60.7709 15.5056 60.4958 15.7274C60.2417 15.8913 59.9395 15.9641 59.6387 15.9341Z" fill="#364650"/>
<path d="M64.4834 15.9341V11.5574H65.2736V14.8703L65.4803 14.5541L67.5713 11.5574H68.3613V15.9341H67.5713V12.6211L67.389 12.9069L65.2736 15.9341L64.4834 15.9341Z" fill="#364650"/>
<path d="M72.0999 15.9341L70.8115 13.9645H70.1609V15.9341H69.3403V11.5574H70.1609V13.314H70.7992L72.0027 11.5574H72.9388L71.4434 13.612L73.03 15.9341H72.0999Z" fill="#364650"/>
<path d="M73.6206 15.9341V11.5574H74.4109V14.8703L74.6176 14.5541L76.7086 11.5574H77.4985V15.9341H76.7086V12.6211L76.5262 12.9069L74.4109 15.9341L73.6206 15.9341Z" fill="#364650"/>
<path d="M35.6354 20.5962C36.8915 20.5962 37.5197 21.0338 37.5198 21.9092C37.5355 22.1004 37.5027 22.2925 37.4246 22.4678C37.3465 22.643 37.2256 22.7958 37.0729 22.9121C36.6355 23.1572 36.1353 23.2672 35.6354 23.2282H33.9639V18.8516H37.1428V19.5384H34.7966V20.5962H35.6354ZM35.6354 22.59C36.3284 22.59 36.6748 22.3651 36.6748 21.9152C36.6748 21.4533 36.3284 21.2223 35.6354 21.2221H34.7966V22.59H35.6354Z" fill="#364650"/>
<path d="M41.2891 23.2282L40.9062 22.1402H39.0523L38.6693 23.2282H37.8062L39.4777 18.8516H40.4868L42.1584 23.2282H41.2891ZM39.2771 21.5019H40.6813L40.0674 19.745L39.9822 19.4595L39.8972 19.739L39.2771 21.5019Z" fill="#364650"/>
<path d="M47.7007 18.8516H48.5393V23.2282H42.7466V18.8516H43.5793V22.5414H45.245V18.8516H46.0413V22.5414H47.7007V18.8516Z" fill="#364650"/>
<path d="M52.2747 23.2282L50.9863 21.2587H50.3358V23.2282H49.5151V18.8516H50.3358V20.6082H50.9739L52.1776 18.8516H53.1136L51.6182 20.9063L53.2048 23.2283L52.2747 23.2282Z" fill="#364650"/>
<path d="M56.999 22.6993C56.5733 23.094 56.0141 23.3132 55.4336 23.3132C54.8532 23.3132 54.2941 23.094 53.8684 22.6993C53.4686 22.2443 53.2625 21.651 53.2939 21.0461C53.2611 20.4378 53.466 19.8405 53.8653 19.3804C54.2922 18.9857 54.8521 18.7665 55.4335 18.7665C56.0149 18.7665 56.575 18.9857 57.0018 19.3804C57.4011 19.8405 57.606 20.4378 57.5732 21.0461C57.6046 21.651 57.3986 22.2442 56.999 22.6993ZM55.4398 22.6264C55.6138 22.6337 55.7871 22.5997 55.9456 22.5274C56.104 22.455 56.2431 22.3463 56.3516 22.21C56.593 21.8718 56.711 21.4609 56.6857 21.0461C56.7099 20.6286 56.5921 20.2151 56.3516 19.8729C56.2392 19.7398 56.0993 19.6328 55.9414 19.5593C55.7835 19.4858 55.6116 19.4476 55.4374 19.4473C55.2633 19.447 55.0912 19.4846 54.933 19.5576C54.7749 19.6305 54.6346 19.737 54.5218 19.8697C54.2803 20.2127 54.1624 20.6275 54.1874 21.0461C54.1622 21.4609 54.2802 21.8718 54.5218 22.21C54.6312 22.3468 54.7714 22.4558 54.931 22.5281C55.0905 22.6005 55.2648 22.6342 55.4398 22.6264Z" fill="#364650"/>
<path d="M60.0005 18.8517C60.5035 18.8108 61.0068 18.9265 61.4413 19.1829C61.5956 19.3106 61.7166 19.4739 61.7938 19.6586C61.8711 19.8434 61.9024 20.0441 61.8849 20.2436C61.8849 21.1676 61.2568 21.6296 60.0005 21.6295H59.1617V23.2284H58.3291V18.8517H60.0005ZM60.0005 20.9853C60.6936 20.9853 61.0401 20.7361 61.04 20.2376C61.0477 20.1324 61.0289 20.0269 60.9854 19.9308C60.9418 19.8347 60.875 19.7511 60.7908 19.6874C60.5515 19.5495 60.276 19.487 60.0005 19.5082H59.1617V20.9853H60.0005Z" fill="#364650"/>
<path d="M65.8051 18.8516V19.5384H64.468V23.2282H63.6292V19.5384H62.2979V18.8516H65.8051Z" fill="#364650"/>
<path d="M69.8173 22.6993C69.3916 23.094 68.8326 23.3133 68.2521 23.3133C67.6716 23.3133 67.1125 23.094 66.6868 22.6993C66.287 22.2443 66.0808 21.651 66.1123 21.0461C66.0795 20.4378 66.2844 19.8405 66.6836 19.3804C67.1105 18.9857 67.6706 18.7665 68.2519 18.7665C68.8333 18.7665 69.3933 18.9857 69.8202 19.3804C70.2195 19.8405 70.4244 20.4378 70.3915 21.0461C70.4229 21.651 70.2169 22.2442 69.8173 22.6993ZM68.2582 22.6264C68.4322 22.6337 68.6055 22.5997 68.7639 22.5274C68.9223 22.455 69.0615 22.3463 69.17 22.21C69.4114 21.8718 69.5294 21.4609 69.5041 21.0461C69.5283 20.6286 69.4105 20.2151 69.17 19.8729C69.0577 19.7398 68.9177 19.6328 68.7598 19.5593C68.602 19.4858 68.4299 19.4476 68.2558 19.4473C68.0817 19.447 67.9095 19.4846 67.7514 19.5576C67.5933 19.6305 67.453 19.7371 67.3402 19.8697C67.0988 20.2127 66.9808 20.6275 67.0058 21.0461C66.9806 21.461 67.0986 21.8718 67.3402 22.21C67.4496 22.3468 67.5898 22.4558 67.7493 22.5281C67.9088 22.6005 68.0832 22.6342 68.2582 22.6264Z" fill="#364650"/>
<path d="M73.0801 23.3132C72.7936 23.3277 72.5074 23.2807 72.2405 23.1754C71.9737 23.07 71.7326 22.9087 71.5333 22.7024C71.1367 22.247 70.9329 21.6552 70.9648 21.0521C70.9323 20.4435 71.136 19.8458 71.5333 19.3835C71.7316 19.1756 71.9724 19.0128 72.2394 18.9063C72.5063 18.7998 72.793 18.7521 73.0801 18.7665C73.5177 18.7413 73.9508 18.867 74.3069 19.1226C74.6631 19.3781 74.9209 19.748 75.0374 20.1707L74.2168 20.3956C74.1683 20.13 74.0277 19.89 73.8198 19.7178C73.612 19.5455 73.35 19.4519 73.0801 19.4535C72.9076 19.4463 72.736 19.481 72.5799 19.5546C72.4238 19.6281 72.2877 19.7384 72.1835 19.876C71.9478 20.2212 71.8334 20.6349 71.8582 21.0521C71.8336 21.4641 71.9494 21.8722 72.1866 22.21C72.2916 22.3455 72.4275 22.454 72.5829 22.5265C72.7383 22.5989 72.9088 22.6332 73.0801 22.6264C73.3362 22.6318 73.5856 22.5444 73.7824 22.3803C73.9919 22.1956 74.1429 21.9537 74.2168 21.6843L75.0374 21.9153C74.9154 22.3269 74.6652 22.6889 74.3231 22.9485C73.9594 23.2019 73.523 23.3299 73.0801 23.3132Z" fill="#364650"/>
<path d="M78.8862 18.8516V19.5384H77.5491V23.2282H76.7103V19.5384H75.3789V18.8516H78.8862Z" fill="#364650"/>
<path d="M82.0765 23.2282L81.6935 22.1402H79.8394L79.4564 23.2282H78.5933L80.265 18.8516H81.2739L82.9457 23.2282H82.0765ZM80.0644 21.5019H81.4686L80.8547 19.745L80.7695 19.4595L80.6843 19.739L80.0644 21.5019Z" fill="#364650"/>
<path d="M86.4518 18.8516H87.2906V23.2282H86.4518V21.289H84.3668V23.2282H83.5342V18.8516H84.3668V20.6022H86.4518V18.8516Z" fill="#364650"/>
<path d="M12.8037 17.046C12.8316 17.0454 12.8595 17.0468 12.8872 17.0502C12.9039 16.7497 12.9205 16.445 12.9373 16.1404C12.9085 16.148 12.8792 16.1535 12.8496 16.1571C12.8329 16.4534 12.8162 16.7539 12.8037 17.046Z" fill="#364650"/>
<path d="M13.5049 17.1211C13.5345 17.1261 13.5638 17.133 13.5925 17.142C13.6467 16.854 13.7052 16.5619 13.7595 16.2697L13.6718 16.2572C13.6134 16.5452 13.5591 16.8373 13.5049 17.1211Z" fill="#364650"/>
<path d="M7.53271 6.26198C7.7497 6.95894 7.96948 7.6559 8.19208 8.35287L8.20044 8.34867L8.25891 8.34035L8.28387 8.15252C8.08771 7.49313 7.8916 6.82952 7.69128 6.17017L7.53271 6.26198Z" fill="#364650"/>
<path d="M12.7206 16.1821C12.7081 16.4659 12.6997 16.7539 12.6914 17.0376C12.7206 17.0376 12.7498 17.0418 12.7791 17.0418C12.7874 16.7539 12.7957 16.4575 12.8082 16.1654C12.7787 16.169 12.7494 16.1745 12.7206 16.1821Z" fill="#364650"/>
<path d="M12.5825 17.0376H12.666C12.666 16.758 12.6702 16.4701 12.6744 16.1863L12.5867 16.1988C12.5867 16.4784 12.5825 16.7622 12.5825 17.0376Z" fill="#364650"/>
<path d="M13.5425 16.2363C13.4925 16.5243 13.4424 16.8164 13.3965 17.1044L13.4841 17.1169C13.5301 16.8289 13.5801 16.541 13.6302 16.2488L13.5425 16.2363Z" fill="#364650"/>
<path d="M13.4133 16.2156C13.3715 16.5077 13.3298 16.7998 13.2881 17.0878L13.3757 17.1003C13.4175 16.8123 13.4592 16.5202 13.5009 16.2281L13.4133 16.2156Z" fill="#364650"/>
<path d="M13.3675 16.0444C13.3462 16.048 13.3252 16.0536 13.3049 16.0611C13.259 16.3992 13.2172 16.7372 13.1797 17.0711L13.2673 17.0836C13.3049 16.779 13.3424 16.466 13.38 16.1571L13.3675 16.0444Z" fill="#364650"/>
<path d="M12.4409 16.2197C12.4451 16.491 12.4493 16.7664 12.4534 17.0335H12.5369C12.5328 16.7622 12.5286 16.4826 12.5286 16.2072L12.4409 16.2197Z" fill="#364650"/>
<path d="M10.7671 17.2547C10.7785 17.2904 10.7924 17.3253 10.8088 17.359C10.8338 17.3465 10.8631 17.3382 10.8923 17.3256C10.8715 17.2756 10.8547 17.2255 10.8339 17.1754C10.8139 17.2037 10.7916 17.2302 10.7671 17.2547Z" fill="#364650"/>
<path d="M8.02136 5.96985L7.86279 6.06585C7.9379 6.33294 8.013 6.59585 8.09229 6.85879C8.06857 6.68594 8.05747 6.51159 8.05896 6.33713C8.07761 6.32694 8.09567 6.31579 8.11316 6.30373C8.07973 6.19521 8.05059 6.08251 8.02136 5.96985Z" fill="#364650"/>
<path d="M15.1871 16.0236C14.9742 16.4952 14.7614 16.9793 14.5527 17.4509L14.6404 17.4884C14.8449 17.021 15.0577 16.5494 15.2622 16.082C15.2372 16.0612 15.2121 16.0444 15.1871 16.0236Z" fill="#364650"/>
<path d="M11.0093 16.8874C11.0468 17.0084 11.0803 17.1294 11.1178 17.2504C11.147 17.2421 11.1762 17.2296 11.2054 17.2212C11.1595 17.0668 11.1136 16.9082 11.0677 16.7496C11.051 16.7956 11.0301 16.8414 11.0093 16.8874Z" fill="#364650"/>
<path d="M11.0845 16.6996C11.1304 16.8749 11.1762 17.046 11.2263 17.2171C11.255 17.2082 11.2844 17.2012 11.314 17.1963C11.2556 16.9793 11.1971 16.7581 11.1387 16.541C11.122 16.5953 11.1053 16.6454 11.0845 16.6996Z" fill="#364650"/>
<path d="M10.8506 17.1587C10.8673 17.213 10.8882 17.2673 10.9091 17.3215C10.9362 17.3099 10.9641 17.3001 10.9925 17.2923C10.9633 17.2172 10.9382 17.142 10.9132 17.0669C10.8923 17.0961 10.8715 17.1295 10.8506 17.1587Z" fill="#364650"/>
<path d="M11.5142 16.2949C11.56 16.5703 11.606 16.8457 11.6561 17.117L11.7437 17.1045C11.6978 16.8374 11.6477 16.5619 11.6017 16.2906C11.5725 16.2906 11.5434 16.2949 11.5142 16.2949Z" fill="#364650"/>
<path d="M12.186 16.2489C12.1986 16.516 12.2153 16.7831 12.232 17.0461C12.2597 17.0427 12.2875 17.0413 12.3154 17.0419C12.2987 16.7748 12.2862 16.5077 12.2695 16.2406C12.2415 16.2411 12.2136 16.2439 12.186 16.2489Z" fill="#364650"/>
<path d="M11.769 16.2823C11.8024 16.5494 11.8358 16.8165 11.8734 17.0836L11.961 17.0711C11.9276 16.8081 11.8942 16.541 11.8608 16.2739C11.8316 16.2781 11.8024 16.2781 11.769 16.2823Z" fill="#364650"/>
<path d="M11.6436 16.2864C11.6811 16.5577 11.7229 16.8331 11.7646 17.1002L11.8522 17.0877C11.8104 16.8206 11.7729 16.5535 11.7312 16.2822C11.7021 16.2857 11.6728 16.2871 11.6436 16.2864Z" fill="#364650"/>
<path d="M12.3115 16.2364C12.3199 16.5035 12.3282 16.7706 12.3408 17.0377C12.37 17.0377 12.3992 17.0335 12.4284 17.0335C12.4159 16.7664 12.4075 16.4952 12.3992 16.2239L12.3115 16.2364Z" fill="#364650"/>
<path d="M11.3809 16.299C11.4351 16.5828 11.4893 16.8624 11.5477 17.142C11.5764 17.1331 11.6058 17.1261 11.6354 17.1211C11.5812 16.8498 11.5269 16.5702 11.4727 16.2948C11.4422 16.2984 11.4115 16.2998 11.3809 16.299Z" fill="#364650"/>
<path d="M16.1091 16.733C15.8503 17.1128 15.5874 17.4968 15.3286 17.8765C15.3495 17.8932 15.3745 17.9099 15.3996 17.9266C15.65 17.5594 15.9046 17.1879 16.155 16.8206C16.138 16.7923 16.1227 16.7631 16.1091 16.733Z" fill="#364650"/>
<path d="M16.6852 17.3549C16.439 17.6303 16.1886 17.9057 15.9424 18.1729L16.0801 18.1603C16.3138 17.9016 16.5475 17.647 16.7812 17.3883C16.7472 17.3841 16.7145 17.3727 16.6852 17.3549Z" fill="#364650"/>
<path d="M16.1886 16.8666C15.9298 17.2213 15.6711 17.5844 15.4165 17.9391C15.4425 17.9558 15.4676 17.974 15.4916 17.9934C15.742 17.6428 15.9966 17.2881 16.247 16.9375C16.2263 16.9149 16.2068 16.8912 16.1886 16.8666Z" fill="#364650"/>
<path d="M16.5808 17.2714C16.3095 17.576 16.0466 17.8848 15.7837 18.1895L15.9089 18.177C16.1509 17.8974 16.3972 17.6136 16.6434 17.3298C16.6226 17.3089 16.6017 17.2922 16.5808 17.2714Z" fill="#364650"/>
<path d="M16.3471 17.021C16.3268 17.0054 16.3073 16.9887 16.2887 16.9709C16.0258 17.3173 15.767 17.6638 15.5083 18.006C15.5333 18.0226 15.5542 18.0393 15.5751 18.0559C15.8338 17.7137 16.0925 17.3674 16.3513 17.021L16.3471 17.021Z" fill="#364650"/>
<path d="M16.0342 16.5869C15.7671 16.9959 15.4958 17.4091 15.2329 17.8181L15.3081 17.8681C15.5627 17.4758 15.8255 17.0752 16.0801 16.6787C16.0665 16.6473 16.0512 16.6167 16.0342 16.5869Z" fill="#364650"/>
<path d="M15.3079 16.1154C15.0909 16.5744 14.8738 17.0377 14.6567 17.4968C14.6817 17.5093 14.711 17.5218 14.7402 17.5343C14.9531 17.0794 15.1701 16.6203 15.3871 16.1654C15.3579 16.1488 15.3329 16.132 15.3079 16.1154Z" fill="#364650"/>
<path d="M15.4287 16.1904C15.2034 16.6411 14.978 17.0961 14.7568 17.5426C14.7818 17.5551 14.8111 17.5718 14.8361 17.5844C15.0573 17.1378 15.2827 16.6871 15.5081 16.2405C15.4788 16.2238 15.4538 16.2071 15.4287 16.1904Z" fill="#364650"/>
<path d="M14.014 16.4825C13.9514 16.7204 13.8888 16.9625 13.8262 17.1962C13.8558 17.2012 13.8851 17.2081 13.9138 17.2171C13.9681 17.0084 14.0223 16.7997 14.0807 16.5911C14.0557 16.5535 14.0349 16.5159 14.014 16.4825Z" fill="#364650"/>
<path d="M15.5541 16.2656C15.3204 16.708 15.0825 17.1545 14.853 17.5969C14.8817 17.6091 14.9096 17.6231 14.9365 17.6387C15.1661 17.1963 15.404 16.7497 15.6377 16.3074C15.6087 16.296 15.5807 16.282 15.5541 16.2656Z" fill="#364650"/>
<path d="M15.9507 16.4534C15.6795 16.8874 15.4082 17.3256 15.1411 17.7555C15.1662 17.7722 15.1912 17.793 15.2162 17.8097C15.4791 17.3882 15.7421 16.9583 16.005 16.5368C15.9894 16.5075 15.9712 16.4796 15.9507 16.4534Z" fill="#364650"/>
<path d="M14.3148 16.7998C14.2564 16.9667 14.2022 17.1295 14.1479 17.2923C14.1764 17.3001 14.2042 17.3099 14.2314 17.3215C14.2856 17.1587 14.3399 16.996 14.3984 16.829C14.3692 16.8237 14.341 16.8139 14.3148 16.7998Z" fill="#364650"/>
<path d="M14.2062 16.733C14.152 16.9083 14.0977 17.0878 14.0435 17.2589C14.0727 17.2672 14.1019 17.2756 14.127 17.2839C14.177 17.1211 14.2313 16.95 14.2814 16.7831C14.2551 16.7684 14.2299 16.7516 14.2062 16.733Z" fill="#364650"/>
<path d="M14.1521 16.6954C14.1354 16.6704 14.1187 16.6496 14.1061 16.6287C14.0477 16.829 13.9893 17.0251 13.9351 17.2213C13.9643 17.2297 13.9935 17.2422 14.0227 17.2505C14.0728 17.0711 14.1271 16.8916 14.1771 16.7121C14.1687 16.708 14.1604 16.6996 14.1521 16.6954Z" fill="#364650"/>
<path d="M14.248 17.3256C14.2773 17.3381 14.3065 17.3465 14.3315 17.3589C14.3941 17.1837 14.4567 17.0084 14.5235 16.8331C14.4916 16.8373 14.4594 16.8373 14.4275 16.8331C14.3649 17.0001 14.3065 17.1628 14.248 17.3256Z" fill="#364650"/>
<path d="M14.9116 15.7731C14.8866 15.7439 14.8657 15.7189 14.8448 15.6938C14.8374 15.707 14.8319 15.721 14.8281 15.7356C14.8406 15.7898 14.8573 15.8399 14.8699 15.89C14.8813 15.8502 14.8952 15.8112 14.9116 15.7731Z" fill="#364650"/>
<path d="M16.923 17.5093C16.7186 17.7179 16.5141 17.9266 16.3096 18.1311L16.4514 18.1186C16.6225 17.9433 16.7979 17.768 16.9731 17.5927C16.959 17.5635 16.9422 17.5356 16.923 17.5093Z" fill="#364650"/>
<path d="M16.9272 18.0643L17.0859 18.0476C17.1067 18.0267 17.1318 18.0059 17.1569 17.985L17.1193 17.8973C17.0525 17.9558 16.9898 18.0101 16.9272 18.0643Z" fill="#364650"/>
<path d="M16.8397 17.3966L16.8355 17.3925C16.5976 17.647 16.3556 17.9016 16.1177 18.1562L16.2637 18.1395C16.4724 17.9183 16.6853 17.6971 16.8981 17.4717C16.8821 17.4442 16.8624 17.419 16.8397 17.3966Z" fill="#364650"/>
<path d="M17.1734 18.0392V18.0309C17.1692 18.0351 17.165 18.0351 17.165 18.0392H17.1734Z" fill="#364650"/>
<path d="M10.9341 17.0336C10.9592 17.117 10.9842 17.2005 11.0134 17.284C11.0384 17.2756 11.0677 17.2673 11.0969 17.2589C11.0593 17.1504 11.0259 17.0377 10.9883 16.925C10.9728 16.9624 10.9546 16.9987 10.9341 17.0336Z" fill="#364650"/>
<path d="M6.58545 16.7622C7.11545 17.2296 7.68721 17.7263 8.25897 18.2313C8.25882 18.2291 8.25788 18.2271 8.25635 18.2255C8.25482 18.224 8.25277 18.2231 8.25061 18.2229C8.08761 18.0973 7.95376 17.9378 7.85828 17.7555C7.50774 17.4467 7.15714 17.1378 6.81915 16.8415C6.73561 16.8362 6.65499 16.8088 6.58545 16.7622Z" fill="#364650"/>
<path d="M7.62891 16.829C7.71657 16.9208 7.80418 17.0126 7.89185 17.1086C7.90436 17.0759 7.92117 17.045 7.94189 17.0168C7.86675 16.9417 7.79581 16.8624 7.72491 16.7872L7.62891 16.829Z" fill="#364650"/>
<path d="M7.54132 16.8707C7.46205 16.8289 7.40362 16.7956 7.35352 16.7747C7.51627 16.9416 7.68743 17.1127 7.85437 17.2838C7.85688 17.2442 7.86387 17.205 7.87524 17.167C7.77087 17.0626 7.6666 16.9624 7.56641 16.8581L7.54132 16.8707Z" fill="#364650"/>
<path d="M7.91699 16.6621C7.9754 16.7289 8.03379 16.7957 8.09222 16.8666C8.09948 16.8584 8.10793 16.8514 8.11725 16.8457C8.13207 16.8343 8.14603 16.8217 8.159 16.8082L7.97113 16.5953L7.91699 16.6621Z" fill="#364650"/>
<path d="M7.85852 16.7288L7.7876 16.7622C7.85022 16.829 7.91282 16.8999 7.97961 16.9709C7.99927 16.9475 8.02013 16.9252 8.04218 16.9041C7.98793 16.8415 7.92952 16.7789 7.87109 16.7163L7.85852 16.7288Z" fill="#364650"/>
<path d="M8.86816 12.0588C8.95995 12.3093 9.06429 12.5972 9.17694 12.9102C9.20532 12.8946 9.23459 12.8807 9.26459 12.8685C9.15193 12.5597 9.04762 12.28 8.95996 12.0338C8.93055 12.046 8.8997 12.0544 8.86816 12.0588Z" fill="#364650"/>
<path d="M8.18805 10.2017C8.20057 10.1892 8.21308 10.1808 8.22565 10.1683C8.20626 10.0764 8.15798 9.99301 8.08789 9.93042C8.12128 10.0222 8.15466 10.1099 8.18805 10.2017Z" fill="#364650"/>
<path d="M9.81567 11.5455C9.77394 11.5664 9.74056 11.5831 9.72803 11.5914C9.74892 11.6666 9.76976 11.75 9.79065 11.8334L9.8783 11.7875C9.85744 11.7042 9.83237 11.6206 9.81567 11.5455Z" fill="#364650"/>
<path d="M9.26904 11.7333C9.3567 12.0213 9.46103 12.3593 9.58203 12.7433L9.66974 12.7183C9.52782 12.2592 9.40265 11.8627 9.30664 11.5455C9.30344 11.6096 9.29076 11.6729 9.26904 11.7333Z" fill="#364650"/>
<path d="M9.08936 11.9628C9.17281 12.2132 9.26878 12.5012 9.37738 12.8184C9.40586 12.8054 9.43509 12.7943 9.46497 12.785C9.35231 12.4553 9.25216 12.1548 9.16455 11.896C9.14162 11.9206 9.11643 11.9429 9.08936 11.9628Z" fill="#364650"/>
<path d="M9.68207 11.9587C9.64032 11.8251 9.60281 11.6957 9.5694 11.583L9.46924 11.5747C9.53183 11.7875 9.60276 12.0421 9.68622 12.3217C9.68206 12.1965 9.68207 12.0755 9.68207 11.9587Z" fill="#364650"/>
<path d="M8.55975 16.324C8.55549 16.316 8.54982 16.309 8.54303 16.3031C8.4015 16.1679 8.27296 16.0198 8.15906 15.8607C8.15267 15.8722 8.1457 15.8833 8.13818 15.8941C8.26336 16.0652 8.38855 16.2363 8.51373 16.4158C8.53072 16.386 8.5461 16.3554 8.55975 16.324Z" fill="#364650"/>
<path d="M16.9023 15.0845C16.9399 15.026 16.9775 14.9676 17.0109 14.9092C16.9608 14.9425 16.9065 14.976 16.8564 15.0093C16.8564 15.0135 16.8773 15.0427 16.9023 15.0845Z" fill="#364650"/>
<path d="M17.3405 14.7256C17.2946 14.7464 17.2445 14.7757 17.1945 14.8007C17.1152 14.9217 17.0358 15.0469 16.9565 15.1721C16.9732 15.2014 16.9899 15.2306 17.0067 15.2556C17.1152 15.0886 17.2195 14.9301 17.3238 14.7715C17.328 14.7548 17.3363 14.7381 17.3405 14.7256Z" fill="#364650"/>
<path d="M17.2571 15.0594C17.2419 15.0765 17.2279 15.0946 17.2153 15.1137L17.2488 15.0928C17.2529 15.0803 17.2529 15.0678 17.2571 15.0594Z" fill="#364650"/>
<path d="M8.0293 16.0194C8.15869 16.1905 8.29221 16.3658 8.42578 16.5453C8.44246 16.5203 8.45912 16.4993 8.47583 16.4743C8.34229 16.3031 8.21285 16.1279 8.08771 15.9609C8.0672 15.9794 8.04772 15.9989 8.0293 16.0194Z" fill="#364650"/>
<path d="M16.4766 9.42543C16.5195 9.42043 16.5627 9.41764 16.606 9.41707C16.9398 8.36536 17.2737 7.31366 17.6075 6.26198L17.449 6.17017C17.1151 7.25524 16.7979 8.34451 16.4766 9.42543Z" fill="#364650"/>
<path d="M16.1592 9.46705C16.1957 9.47179 16.231 9.4831 16.2635 9.50044L16.2719 9.49625C16.6058 8.35277 16.9438 7.20925 17.2776 6.06573L17.1191 5.96973C16.7894 7.13413 16.4805 8.3027 16.1592 9.46705Z" fill="#364650"/>
<path d="M7.15332 19.3872V19.2871C6.544 18.9949 5.94718 18.707 5.38379 18.4315L5.40045 18.5442C5.95968 18.8155 6.55231 19.0993 7.15332 19.3872Z" fill="#364650"/>
<path d="M16.7852 9.43368C16.8245 9.44004 16.8635 9.44838 16.902 9.45868C17.2484 8.44874 17.599 7.44296 17.9412 6.43298L17.7826 6.36621C17.4404 7.38455 17.1149 8.41121 16.7852 9.43368Z" fill="#364650"/>
<path d="M7.85437 19.0701C6.96125 18.5359 6.05978 17.9975 5.271 17.5176L5.28357 17.6386C6.03057 18.0893 6.86114 18.586 7.70416 19.0868L7.85437 19.0701Z" fill="#364650"/>
<path d="M7.26141 19.1368L7.41162 19.1201C6.69378 18.732 5.98015 18.348 5.3291 17.9891L5.34161 18.1018C5.94672 18.4315 6.59784 18.7821 7.26141 19.1368Z" fill="#364650"/>
<path d="M7.48688 19.1118L7.63715 19.0951C6.82748 18.636 6.02614 18.177 5.3042 17.7596L5.31671 17.8765C5.98862 18.2646 6.73145 18.6861 7.48688 19.1118Z" fill="#364650"/>
<path d="M7.15302 19.2329L7.1488 19.1495L7.17383 19.1453C6.54783 18.8239 5.93015 18.5109 5.3584 18.2146L5.37091 18.3273C5.93437 18.6153 6.53952 18.9241 7.15302 19.2329Z" fill="#364650"/>
<path d="M3.59729 15.4559C4.47789 16.1112 6.50619 17.5844 8.45099 19.0033L8.53027 18.995V18.9532C6.58134 17.5301 4.5405 16.036 3.63904 15.3641C3.5806 15.3265 3.53053 15.2932 3.48047 15.2556L3.50549 15.3975C3.53451 15.4194 3.56518 15.4389 3.59729 15.4559Z" fill="#364650"/>
<path d="M4.13593 13.3776L4.10254 13.4986C4.30701 13.7072 4.51568 13.9117 4.72015 14.1204C5.05404 14.4626 5.57161 14.9843 6.19342 15.6061L6.2226 15.5435C6.22958 15.5362 6.23524 15.5278 6.23932 15.5185C5.62997 14.9009 5.11669 14.3792 4.78699 14.037C4.56999 13.8199 4.35295 13.5987 4.13593 13.3776Z" fill="#364650"/>
<path d="M6.27252 15.2556C5.72997 14.6755 5.27087 14.1914 4.9704 13.8659C4.71583 13.6029 4.46542 13.3317 4.21503 13.0646L4.18164 13.194C4.42364 13.4402 4.65743 13.6948 4.89948 13.941C5.21248 14.279 5.69655 14.7882 6.27246 15.3975C6.27663 15.3516 6.27252 15.3015 6.27252 15.2556Z" fill="#364650"/>
<path d="M3.96484 10.6273C4.59503 11.462 5.2252 12.2883 5.8512 13.1189C6.07241 13.4152 6.38955 13.8409 6.76935 14.3417C6.79018 14.3291 6.81522 14.3167 6.84027 14.2999C6.46046 13.7949 6.14332 13.3693 5.92218 13.0646C5.28365 12.2091 4.64923 11.341 4.01904 10.4688L3.96484 10.6273Z" fill="#364650"/>
<path d="M8.27979 19.0242L8.40918 19.0075C6.48524 17.6678 4.47782 16.2739 3.54297 15.6145L3.56805 15.7522C4.5029 16.4075 6.41843 17.7346 8.27979 19.0242Z" fill="#364650"/>
<path d="M3.74353 15.2556C4.61576 15.9317 6.61073 17.455 8.52631 18.9157C8.52215 18.8739 8.51373 18.8322 8.50958 18.7905C6.62321 17.3465 4.66587 15.8441 3.78528 15.1638C3.6601 15.0678 3.53906 14.976 3.40967 14.88L3.4389 15.0261C3.53906 15.1054 3.63922 15.1805 3.74353 15.2556Z" fill="#364650"/>
<path d="M6.29755 14.976C5.82178 14.4501 5.42117 14.0077 5.1499 13.6989C4.86607 13.3817 4.58226 13.0645 4.29846 12.7432L4.26514 12.8767C4.53641 13.173 4.80768 13.4694 5.08313 13.7698C5.36272 14.0828 5.7801 14.5461 6.27667 15.0928C6.28161 15.0535 6.28857 15.0145 6.29755 14.976Z" fill="#364650"/>
<path d="M3.21771 13.7991C3.54742 14.0954 3.88128 14.3876 4.21515 14.6755C4.69515 15.1012 5.52978 15.8357 6.5022 16.6913C6.44518 16.626 6.40629 16.5468 6.38947 16.4617C5.49219 15.6688 4.72432 14.9927 4.26941 14.5837C3.90213 14.2666 3.54324 13.941 3.18018 13.6113L3.21771 13.7991Z" fill="#364650"/>
<path d="M4.05225 14.8633C4.86187 15.5519 6.67308 17.0711 8.45514 18.561C8.43017 18.4916 8.39654 18.4257 8.35498 18.3648C6.63136 16.9125 4.89941 15.456 4.10229 14.7715C3.81849 14.5378 3.54302 14.2999 3.25928 14.0579L3.29266 14.229C3.54304 14.446 3.80184 14.6547 4.05225 14.8633Z" fill="#364650"/>
<path d="M3.89813 15.0595C4.74113 15.7397 6.64838 17.2672 8.50555 18.7571C8.49686 18.7093 8.48573 18.6619 8.47217 18.6152C6.65257 17.1504 4.78287 15.6521 3.94403 14.9676C3.73953 14.8049 3.53919 14.6463 3.33887 14.4794L3.3681 14.6379C3.54337 14.7799 3.71865 14.9176 3.89813 15.0595Z" fill="#364650"/>
<path d="M6.3811 14.7549C5.95123 14.254 5.58808 13.8284 5.33771 13.532C5.01639 13.1648 4.69921 12.7892 4.38202 12.4136L4.34863 12.5471C4.65329 12.8977 4.96212 13.2524 5.26678 13.5988C5.52134 13.8993 5.89703 14.3292 6.34357 14.8467C6.35607 14.8133 6.36855 14.7841 6.3811 14.7549Z" fill="#364650"/>
<path d="M5.78027 8.56563C6.36868 9.72584 6.95296 10.8944 7.53723 12.0504C7.71671 12.4177 7.98802 12.956 8.30518 13.5904C8.32607 13.5654 8.35111 13.5403 8.37195 13.5153C8.06313 12.8935 7.80022 12.3676 7.62494 12.0045C7.04063 10.8276 6.47307 9.62985 5.89716 8.44043L5.78027 8.56563Z" fill="#364650"/>
<path d="M6.27686 8.01058C6.84864 9.28344 7.42457 10.5647 7.99213 11.8334C8.14239 12.184 8.3636 12.6806 8.62653 13.2732L8.7016 13.2106C8.44287 12.6305 8.23002 12.1381 8.07977 11.7916C7.50386 10.5021 6.95718 9.18323 6.39795 7.8728L6.27686 8.01058Z" fill="#364650"/>
<path d="M4.09814 10.2684C4.74921 11.1698 5.40022 12.0755 6.05127 12.9686C6.26827 13.2816 6.58547 13.7198 6.96106 14.2456C6.99029 14.2373 7.01951 14.2248 7.04871 14.2164C6.66471 13.6822 6.34345 13.2315 6.12225 12.9143C5.45867 11.9878 4.81597 11.0404 4.15656 10.0973L4.09814 10.2684Z" fill="#364650"/>
<path d="M6.03027 8.29027C6.60619 9.50889 7.18349 10.7261 7.76221 11.942C7.92914 12.3009 8.17117 12.8142 8.45917 13.4277C8.48006 13.4027 8.5051 13.3818 8.53009 13.3568C8.24632 12.7558 8.01266 12.2508 7.84991 11.8961C7.27391 10.6608 6.71472 9.40875 6.14294 8.16089L6.03027 8.29027Z" fill="#364650"/>
<path d="M6.87354 6.60835C7.21996 7.56824 7.49542 8.31109 7.76666 9.05397C7.77322 8.95988 7.79285 8.86718 7.82507 8.77853C7.59552 8.09409 7.35347 7.39296 7.03632 6.5249C6.98041 6.54939 6.92605 6.57726 6.87354 6.60835Z" fill="#364650"/>
<path d="M7.19922 6.43308C7.44129 7.15089 7.68331 7.86454 7.93372 8.58238C7.965 8.53917 7.99989 8.49869 8.03802 8.46139C7.81268 7.76439 7.58737 7.06329 7.35779 6.36633L7.19922 6.43308Z" fill="#364650"/>
<path d="M8.20068 5.86551C8.22991 5.97818 8.25913 6.09088 8.28833 6.19937C8.3399 6.17311 8.3946 6.15348 8.45111 6.14097C8.42188 6.01575 8.38848 5.89472 8.35925 5.76953L8.20068 5.86551Z" fill="#364650"/>
<path d="M5.54199 8.83281C6.13461 9.94709 6.73144 11.0614 7.31989 12.1674C7.516 12.5472 7.81236 13.1064 8.1629 13.7741C8.18376 13.7491 8.2046 13.7199 8.22546 13.6906C7.87907 13.0438 7.59112 12.497 7.39917 12.1214C6.81071 10.9946 6.23478 9.85111 5.65466 8.71179L5.54199 8.83281Z" fill="#364650"/>
<path d="M4.37793 9.5088C5.07489 10.573 5.76908 11.6317 6.46045 12.6848C6.68166 13.0354 7.01133 13.5445 7.40778 14.1497H7.52051C7.11151 13.5195 6.76928 12.9895 6.53973 12.6305C5.83443 11.5413 5.14166 10.427 4.44476 9.32104L4.37793 9.5088Z" fill="#364650"/>
<path d="M4.23584 9.89699C4.90777 10.8736 5.58384 11.8501 6.25159 12.8267C6.47278 13.1522 6.79417 13.6238 7.17395 14.1831C7.20696 14.1755 7.24036 14.1699 7.27405 14.1664C6.88175 13.5904 6.55209 13.1064 6.33093 12.7725C5.6465 11.7625 4.97459 10.74 4.29846 9.71753L4.23584 9.89699Z" fill="#364650"/>
<path d="M4.52393 9.11241C5.24172 10.2559 5.9595 11.4078 6.67316 12.5513C6.89853 12.9269 7.24492 13.4861 7.65808 14.1581C7.6954 14.1633 7.73315 14.1647 7.77075 14.1622C7.34509 13.4695 6.98617 12.8852 6.74829 12.4929C6.02213 11.3118 5.31685 10.1098 4.59485 8.91626L4.52393 9.11241Z" fill="#364650"/>
<path d="M15.8506 9.49221C15.8913 9.47853 15.9332 9.46876 15.9758 9.46301C16.2972 8.26525 16.6186 7.06609 16.9399 5.86553L16.7812 5.76953C16.4599 7.00906 16.1594 8.25272 15.8506 9.49221Z" fill="#364650"/>
<path d="M14.2563 10.452C14.2896 10.4104 14.3275 10.3726 14.3691 10.3393C14.5944 8.85359 14.817 7.36508 15.0368 5.87381L14.8699 5.82373C14.657 7.36788 14.4775 8.92039 14.2563 10.452Z" fill="#364650"/>
<path d="M13.9683 10.6524L14.0518 10.619L14.0684 10.6148C14.2729 8.99974 14.4774 7.37626 14.6777 5.76117L14.5192 5.70691C14.323 7.35957 14.1685 9.01642 13.9683 10.6524Z" fill="#364650"/>
<path d="M15.7462 6.09502L15.5834 6.04492C15.3414 7.34703 15.116 8.6533 14.8823 9.94705C14.9202 9.90787 14.9621 9.87288 15.0075 9.84271C15.2496 8.59489 15.4958 7.34566 15.7462 6.09502Z" fill="#364650"/>
<path d="M13.6342 4.65522C13.5924 4.65105 13.4923 4.64685 13.4548 4.64685C13.3504 6.57915 13.3003 8.52394 13.2085 10.4479C13.2378 10.4479 13.2711 10.452 13.3045 10.452C13.4088 8.51977 13.5257 6.58332 13.6342 4.65522Z" fill="#364650"/>
<path d="M14.5566 10.2475C14.5879 10.239 14.6202 10.2348 14.6526 10.235L14.6568 10.2267C14.903 8.81188 15.1478 7.39848 15.3913 5.9865L15.2286 5.93225C14.9948 7.3721 14.7903 8.81188 14.5566 10.2475Z" fill="#364650"/>
<path d="M19.6735 11.1698C20.0366 10.6189 20.3955 10.0638 20.7628 9.50883L20.696 9.32104C20.4498 9.70915 20.2118 10.0931 19.9698 10.477C19.979 10.4811 19.9876 10.4868 19.9949 10.4937L19.9364 10.5271C19.8237 10.7066 19.7152 10.8818 19.6025 11.0571L19.6735 11.1698Z" fill="#364650"/>
<path d="M19.7065 18.3606C19.7274 18.3522 20.5955 17.8264 20.6163 17.8139L20.6288 17.7012C20.6038 17.7137 19.7357 18.2395 19.7107 18.2521L19.7065 18.3606Z" fill="#364650"/>
<path d="M20.5455 8.91626C20.2575 9.39203 19.9737 9.86779 19.6899 10.3394C19.7317 10.3603 19.7693 10.3811 19.8068 10.402C20.0781 9.97212 20.3452 9.54228 20.6165 9.11241L20.5455 8.91626Z" fill="#364650"/>
<path d="M20.6832 17.2463C20.6499 17.2672 19.7692 17.8014 19.7358 17.8181L19.7275 17.9308C19.7609 17.9141 20.6374 17.384 20.6707 17.3632L20.6832 17.2463Z" fill="#364650"/>
<path d="M20.7166 17.0043C20.5663 17.0961 19.5731 17.697 19.4229 17.7888L19.6524 17.7639C19.7192 17.7221 20.6331 17.1671 20.7041 17.1253L20.7166 17.0043Z" fill="#364650"/>
<path d="M20.6582 17.4758C20.629 17.4925 19.7526 18.0226 19.7234 18.0392L19.7192 18.1477C19.7443 18.1311 20.6165 17.6052 20.6457 17.5885L20.6582 17.4758Z" fill="#364650"/>
<path d="M12.9458 10.4395H13.046C13.1044 8.50721 13.1795 6.57074 13.2421 4.63432C13.2004 4.63012 13.1002 4.63013 13.0626 4.63013C13.0042 6.56659 13.0001 8.5114 12.9458 10.4395Z" fill="#364650"/>
<path d="M10.1035 5.8738C10.2204 6.68759 10.3401 7.5014 10.4625 8.31523C10.4995 8.281 10.5385 8.24895 10.5793 8.21923C10.4791 7.42213 10.379 6.62083 10.2704 5.82373L10.1035 5.8738Z" fill="#364650"/>
<path d="M9.74902 5.9865C9.89926 6.89214 10.0537 7.79638 10.2123 8.69921C10.2415 8.6366 10.2749 8.57821 10.3083 8.51974C10.1789 7.66003 10.0496 6.79612 9.91187 5.93225L9.74902 5.9865Z" fill="#364650"/>
<path d="M9.39404 6.09502C9.41904 6.22857 9.44413 6.35794 9.46918 6.49149L9.47748 6.49567C9.51505 6.67095 9.55265 6.85043 9.5777 7.03822C9.6361 7.31783 9.69034 7.59743 9.74469 7.87705C9.76137 7.90628 9.77383 7.93133 9.78638 7.95634C9.86565 8.13581 9.90324 8.34449 9.99506 8.50725C9.85316 7.68925 9.70708 6.86847 9.55682 6.04492L9.39404 6.09502Z" fill="#364650"/>
<path d="M21.5972 15.6145C21.0379 16.0068 20.0989 16.662 19.0264 17.4091C19.0514 17.4299 19.0723 17.4508 19.0973 17.4717C20.1198 16.7622 21.0171 16.1404 21.5721 15.7522L21.5972 15.6145Z" fill="#364650"/>
<path d="M10.8844 8.10246C10.7967 7.30531 10.7133 6.50401 10.6215 5.70691L10.4629 5.76117C10.5589 6.54994 10.6549 7.34288 10.755 8.13167C10.7975 8.11948 10.8407 8.10973 10.8844 8.10246Z" fill="#364650"/>
<path d="M11.7229 7.84786L11.823 7.88126C11.7813 6.80451 11.7396 5.7236 11.6853 4.64685C11.6477 4.64685 11.5476 4.65105 11.5059 4.65522C11.5601 5.71944 11.6227 6.77947 11.6853 7.84369C11.698 7.84301 11.7107 7.84442 11.7229 7.84786Z" fill="#364650"/>
<path d="M12.4449 10.2058C12.4407 8.34866 12.4825 6.48734 12.4699 4.62183H12.2905C12.3072 6.42891 12.3267 8.23459 12.3489 10.0389C12.3781 10.0931 12.4115 10.1516 12.4449 10.2058Z" fill="#364650"/>
<path d="M11.8984 4.63433C11.9318 5.75277 11.9735 6.87124 12.011 7.98972L12.1404 8.10658L12.1447 8.11074C12.128 6.95053 12.1112 5.79033 12.0779 4.63013C12.0403 4.63009 11.9402 4.63009 11.8984 4.63433Z" fill="#364650"/>
<path d="M12.7829 10.4353C12.8037 8.4989 12.826 6.56107 12.8496 4.62183H12.6702C12.6535 6.56245 12.6994 8.50307 12.6869 10.4353H12.7829Z" fill="#364650"/>
<path d="M12.0736 9.8135C12.1028 9.8135 12.1362 9.8177 12.1738 9.8177C12.1654 9.488 12.1613 9.16246 12.1571 8.83276C12.1511 8.94849 12.1152 9.06067 12.0527 9.15829C12.0569 9.37946 12.0653 9.5965 12.0736 9.8135Z" fill="#364650"/>
<path d="M12.1152 8.59908C12.137 8.64491 12.1497 8.6945 12.1528 8.74515C12.1528 8.67005 12.1528 8.59492 12.1486 8.51978L12.1152 8.59908Z" fill="#364650"/>
<path d="M11.8398 9.64241C11.8564 9.67476 11.876 9.7055 11.8983 9.73422C11.8941 9.68414 11.8899 9.62989 11.8899 9.57983L11.8398 9.64241Z" fill="#364650"/>
<path d="M18.6799 12.6848C18.7509 12.5721 18.826 12.4594 18.9011 12.3467L18.7885 12.3342C18.7259 12.4344 18.6632 12.5346 18.6006 12.6306C18.5213 12.7516 18.4337 12.8935 18.3335 13.0479C18.359 13.0651 18.3828 13.0846 18.4045 13.1063C18.5088 12.9477 18.6006 12.81 18.6799 12.6848Z" fill="#364650"/>
<path d="M19.4981 10.8986C19.5357 10.8401 19.5733 10.7817 19.6108 10.7191L19.4438 10.8193L19.4981 10.8986Z" fill="#364650"/>
<path d="M19.9447 11.5914V11.5955C19.6359 12.0379 19.3312 12.4803 19.0182 12.9143C18.9013 13.0771 18.7594 13.2774 18.5967 13.5028C18.6088 13.5369 18.6228 13.5703 18.6384 13.603C18.8137 13.3567 18.9639 13.1439 19.0891 12.9686C19.7401 12.0755 20.3912 11.1698 21.0423 10.2684L20.9839 10.0973C20.6333 10.5981 20.2911 11.0947 19.9447 11.5914Z" fill="#364650"/>
<path d="M18.4422 15.7857C18.438 15.8066 18.4339 15.8316 18.4297 15.8567C19.1976 15.047 19.8487 14.3584 20.241 13.9411C20.483 13.6949 20.7168 13.4403 20.9588 13.1941L20.9254 13.0647C20.675 13.3318 20.4246 13.6031 20.17 13.866C19.8486 14.2124 19.352 14.734 18.7678 15.3559C18.7002 15.526 18.5877 15.6746 18.4422 15.7857Z" fill="#364650"/>
<path d="M20.4202 14.1205C20.6247 13.9119 20.8334 13.7074 21.0378 13.4987L21.0045 13.3777C20.7875 13.5988 20.5705 13.82 20.3534 14.0371C19.9319 14.4669 19.2308 15.1806 18.4086 16.0111C18.3939 16.0815 18.3715 16.1501 18.3418 16.2156C19.2224 15.3266 19.9778 14.5671 20.4202 14.1205Z" fill="#364650"/>
<path d="M19.2185 13.0646C19.0725 13.2608 18.893 13.5028 18.6802 13.7866C18.6844 13.8325 18.6843 13.8784 18.6843 13.9243C18.9263 13.603 19.1309 13.3317 19.2895 13.1189C19.9155 12.2884 20.5457 11.462 21.1758 10.6273L21.1216 10.4688C20.4914 11.341 19.8571 12.2091 19.2185 13.0646Z" fill="#364650"/>
<path d="M19.7778 11.3284L19.8446 11.4328C20.1952 10.9236 20.5485 10.4117 20.9046 9.89699L20.842 9.71753C20.4832 10.2559 20.1326 10.7943 19.7778 11.3284Z" fill="#364650"/>
<path d="M18.2378 9.83025C18.2771 9.84789 18.3147 9.86883 18.3505 9.89284C18.6009 9.36284 18.8555 8.82864 19.11 8.29027L18.9973 8.16089C18.7427 8.72015 18.4882 9.27514 18.2378 9.83025Z" fill="#364650"/>
<path d="M17.9663 9.69666C17.9907 9.71826 18.013 9.74202 18.0331 9.76765C18.0456 9.76765 18.0581 9.77182 18.0706 9.77182C18.3336 9.18755 18.5979 8.60051 18.8636 8.01067L18.7427 7.87292C18.4797 8.4822 18.2251 9.09155 17.9663 9.69666Z" fill="#364650"/>
<path d="M18.8301 10.0014C18.8718 10.0097 18.9135 10.0222 18.9594 10.0306C19.1723 9.63409 19.3851 9.23342 19.598 8.83279L19.4852 8.71179C19.2641 9.1416 19.0471 9.57148 18.8301 10.0014Z" fill="#364650"/>
<path d="M18.5049 9.97206C18.5522 9.96928 18.5997 9.97069 18.6468 9.97626C18.8846 9.50466 19.1225 9.03726 19.3604 8.56565L19.2436 8.44043C18.9932 8.94958 18.7511 9.46291 18.5049 9.97206Z" fill="#364650"/>
<path d="M18.4966 13.2357C18.5123 13.2684 18.5263 13.3018 18.5384 13.3359C18.6719 13.1439 18.7888 12.9728 18.8889 12.8268C19.1685 12.4178 19.4523 12.0046 19.7361 11.5956H19.5984C19.3355 11.9879 19.0726 12.3844 18.8096 12.7725C18.7178 12.9061 18.6134 13.0605 18.4966 13.2357Z" fill="#364650"/>
<path d="M18.6008 12.3217C18.5379 12.4165 18.4536 12.4951 18.3547 12.5512C18.2962 12.6472 18.2336 12.7515 18.1585 12.8684V12.8725C18.1418 12.9018 18.1251 12.9268 18.1084 12.956C18.1398 12.9632 18.1704 12.973 18.2002 12.9853C18.3004 12.8225 18.388 12.6764 18.4673 12.5513C18.5132 12.4761 18.5633 12.3968 18.6093 12.3217L18.6008 12.3217Z" fill="#364650"/>
<path d="M17.0605 9.51726C17.0763 9.52468 17.0917 9.53303 17.1065 9.54226C17.1358 9.52364 17.1684 9.51088 17.2025 9.5047C17.5364 8.60326 17.8451 7.76022 18.2667 6.60835C18.2142 6.57727 18.1598 6.5494 18.1039 6.5249C17.6657 7.70598 17.3778 8.57825 17.0605 9.51726Z" fill="#364650"/>
<path d="M21.9604 13.6113C21.5974 13.941 21.2384 14.2666 20.8712 14.5837C20.3245 15.072 19.327 15.9526 18.2002 16.9459C18.2211 16.9667 18.2419 16.9918 18.2628 17.0126C19.3938 16.0235 20.3828 15.1513 20.9254 14.6755C21.2593 14.3875 21.5932 14.0954 21.9229 13.7991L21.9604 13.6113Z" fill="#364650"/>
<path d="M21.7307 14.88C21.6013 14.976 21.4802 15.0678 21.355 15.1638C20.7916 15.5978 19.79 16.3699 18.6465 17.2422C18.6874 17.2494 18.7278 17.2592 18.7675 17.2714C19.8818 16.42 20.85 15.6771 21.3967 15.2556C21.5011 15.1805 21.6012 15.1054 21.7014 15.0261L21.7307 14.88Z" fill="#364650"/>
<path d="M21.8809 14.0579C21.5971 14.2999 21.3216 14.5379 21.0378 14.7715C20.4786 15.2473 19.4645 16.1028 18.3169 17.0711C18.321 17.0794 18.3294 17.0878 18.3336 17.0961C18.3591 17.1011 18.3842 17.1081 18.4087 17.1169C19.5439 16.1654 20.5413 15.3265 21.088 14.8633C21.3384 14.6546 21.5972 14.446 21.8475 14.2289L21.8809 14.0579Z" fill="#364650"/>
<path d="M21.8015 14.4794C21.6012 14.6463 21.4009 14.8049 21.1964 14.9676C20.6372 15.4226 19.6272 16.2322 18.4795 17.1545C18.5087 17.1712 18.5337 17.1921 18.5588 17.2088C19.6981 16.299 20.6914 15.5019 21.2422 15.0595C21.4217 14.9176 21.597 14.7799 21.7723 14.6379L21.8015 14.4794Z" fill="#364650"/>
<path d="M19.8025 13.532C19.5354 13.845 19.1515 14.2916 18.6924 14.8216L18.7173 14.9343C19.1973 14.3793 19.598 13.916 19.8734 13.5988C20.178 13.2524 20.4868 12.8977 20.7915 12.5471L20.7582 12.4136C20.4411 12.7892 20.1239 13.1648 19.8025 13.532Z" fill="#364650"/>
<path d="M21.6597 15.2556C21.6097 15.2932 21.5596 15.3265 21.5011 15.3641C20.9502 15.7731 19.9737 16.4867 18.8594 17.3089C18.8894 17.3226 18.9187 17.3379 18.947 17.3548C20.0488 16.5535 21.0045 15.8566 21.5428 15.4559C21.575 15.4389 21.6056 15.4194 21.6346 15.3975L21.6597 15.2556Z" fill="#364650"/>
<path d="M18.7844 15.1804C19.3144 14.592 19.7609 14.0995 20.0573 13.7698C20.3327 13.4694 20.6039 13.173 20.8752 12.8767L20.8419 12.7432C20.5581 13.0645 20.2742 13.3817 19.9905 13.6989C19.6983 14.0244 19.2685 14.5002 18.751 15.0719C18.7636 15.1053 18.7718 15.1429 18.7844 15.1804Z" fill="#364650"/>
<path d="M19.1602 11.9503C19.2395 11.8335 19.3188 11.7124 19.3981 11.5956H19.2687C19.2478 11.718 19.2113 11.8372 19.1602 11.9503Z" fill="#364650"/>
<path d="M8.64307 8.74589C8.42607 8.67912 8.28414 8.72917 8.22571 8.90448C8.07548 9.3552 8.35922 9.61398 8.60968 9.89775C8.65141 9.87275 8.65141 10.1315 8.64307 10.432C8.56793 10.482 8.44277 10.4987 8.42609 10.5738C8.4428 10.6656 8.60138 10.6239 8.65979 10.6072C8.68253 10.8566 8.71877 11.1046 8.76831 11.3501C8.77667 11.4419 8.68488 11.4503 8.68488 11.5254C8.71826 11.6005 8.74331 11.6756 8.81842 11.6673C8.94363 11.6423 8.93524 11.3668 8.83508 11.3334C8.84342 11.1414 8.76 10.8242 8.74329 10.5738C9.08866 10.5023 9.42278 10.3843 9.73657 10.2233C9.80525 10.3011 9.88719 10.3661 9.97858 10.4153C9.97858 10.7074 9.46104 11.0997 9.59454 11.1748C9.72809 11.2416 10.1038 10.7909 10.2206 10.5822C10.3754 10.6551 10.5165 10.7539 10.6379 10.8744C10.8883 10.9411 10.9968 10.9662 11.0302 11.0329C11.0302 11.0663 11.0469 11.0997 10.9968 11.1164C10.8883 11.1248 10.7214 11.1164 10.5544 11.1248C10.4292 11.1832 10.4292 11.2333 10.5544 11.2833H10.7131C10.7798 11.3501 10.7047 11.3918 10.5628 11.3752C10.4209 11.3502 10.6379 11.4753 10.6296 11.5421C10.6296 11.6089 10.1622 12.2015 10.1204 12.1514C10.0787 12.1013 10.1121 12.2599 10.1121 12.3184C10.1595 12.3062 10.2092 12.3053 10.2571 12.3158C10.305 12.3262 10.3497 12.3477 10.3878 12.3785C10.4259 12.4093 10.4563 12.4486 10.4766 12.4932C10.4968 12.5378 10.5063 12.5866 10.5044 12.6355C10.759 12.6923 11.0201 12.7148 11.2806 12.7023C11.3056 12.7357 11.3056 12.7858 11.3224 12.8108C10.9312 12.9742 10.511 13.0566 10.087 13.0528C9.24404 13.1363 8.32585 13.9376 8.30914 14.5135C8.10051 14.4467 8.00036 14.6053 7.86682 14.597C7.70379 14.5498 7.53229 14.5396 7.36481 14.567C7.19732 14.5944 7.03803 14.6589 6.89856 14.7556C6.80027 14.8613 6.73096 14.9906 6.69733 15.131C6.66369 15.2714 6.66684 15.4181 6.70654 15.5569C6.68149 15.7154 6.43946 15.8574 6.63977 15.874C6.74415 15.8533 6.85063 15.8449 6.95697 15.849C6.9486 16.1245 6.87354 16.283 6.7984 16.3081C6.79006 16.4333 6.83178 16.4333 6.87354 16.4333C6.98065 16.3797 7.09827 16.3504 7.21802 16.3475C7.33777 16.3446 7.45671 16.3682 7.56628 16.4166C7.77497 16.3498 7.56624 16.3165 7.48279 15.9325C7.58295 15.7656 7.71647 15.8658 7.87506 15.5569C8.00866 15.3649 7.60804 14.9726 8.30084 14.7639C8.18397 15.657 9.01862 16.0743 9.01862 16.2329C8.97323 16.4409 8.88529 16.6373 8.76031 16.8097C8.63534 16.9821 8.47607 17.1267 8.29248 17.2345C8.25075 17.2763 8.30082 17.5016 8.25909 17.6185C8.21731 17.7187 8.87674 17.9941 8.93518 18.7871C9.0321 18.8571 9.13493 18.9186 9.24255 18.9708C9.12959 19.0973 9.02373 19.2299 8.92548 19.3682L7.57465 19.5174L7.58295 20.2519L6.52295 20.2937L5.55469 21.2077C7.26629 21.3806 8.92993 21.8747 10.4584 22.6642H10.663C10.601 22.4641 10.5687 22.256 10.567 22.0465C10.5691 21.4502 10.8075 20.8791 11.2299 20.4582C11.6523 20.0374 12.2243 19.8011 12.8206 19.8011C13.4169 19.8011 13.9889 20.0374 14.4113 20.4582C14.8337 20.8791 15.072 21.4502 15.0742 22.0465C15.0744 22.2624 15.0449 22.4772 14.9866 22.685L15.3079 22.6642C16.6532 21.9315 18.1267 21.464 19.6483 21.287L20.1824 19.7428L19.6399 18.9749L17.3154 19.1335V19.0042L19.2852 18.7496L19.3144 18.2154L19.1016 18.2404C19.034 18.0329 18.9165 17.8451 18.7593 17.6937C18.6437 17.6555 18.5221 17.6385 18.4004 17.6436C18.3796 17.5863 18.338 17.539 18.2838 17.5112C18.2296 17.4833 18.1669 17.477 18.1083 17.4933C17.983 17.1678 17.5073 16.9842 17.3403 16.6169C17.2421 16.2686 17.0379 15.9594 16.7561 15.7322C16.8312 15.5318 16.3805 15.1562 16.4055 14.9309C16.5307 14.6054 17.2319 14.405 17.7493 13.996C17.7567 14.2334 17.7763 14.4702 17.8078 14.7055C17.7828 14.8724 17.5824 15.0644 17.7327 15.2147C17.8913 15.3566 17.7076 15.5903 17.5156 15.44C17.3654 15.3232 17.5073 16.3415 17.5156 16.3916C17.5907 16.4834 18.0165 16.1746 18.0248 15.9492C18.0295 15.8249 18.0492 15.7016 18.0833 15.5819C18.1918 15.4484 18.3754 15.3482 18.3921 15.2481C18.2669 14.7804 18.2329 14.293 18.2919 13.8124C18.1751 13.6204 18.2168 13.4285 18.0916 13.37C17.7493 13.2532 17.1568 13.5704 16.5224 13.4952C16.6059 13.1029 16.464 12.936 16.4974 12.7357C16.6142 12.2432 16.7645 11.7925 17.0649 11.6923C17.0435 11.8382 17.0578 11.9872 17.1067 12.1263C17.0483 12.2265 16.9982 12.3266 16.9398 12.4268C16.8813 12.4435 16.8229 12.4519 16.7645 12.4685L16.5892 12.7189C16.5946 12.7484 16.6064 12.7764 16.6237 12.8009C16.641 12.8254 16.6634 12.8458 16.6893 12.8608C16.8036 12.7419 16.9435 12.6506 17.0983 12.5937C17.0733 12.6772 17.2235 12.6605 16.9898 12.8608C16.9147 12.8942 16.8312 12.8608 16.7895 12.9693C16.7727 13.0194 16.7895 13.1112 16.9564 13.1029C17.2152 13.1029 17.3404 13.1613 17.4072 13.0945C17.5574 12.9025 17.7577 12.7941 17.716 12.7607C17.7327 12.6355 18.0916 12.1847 18.1918 12.1847C18.2502 12.168 18.317 12.0011 18.4005 11.9093C18.509 11.8342 18.6258 11.926 18.7427 11.926C18.8751 11.6963 18.9168 11.4253 18.8595 11.1664C18.9763 11.1748 19.0932 11.1831 19.2101 11.1831C19.0098 10.8159 18.8345 10.9661 18.7844 10.7073C18.8846 10.6489 19.0181 10.6072 19.1266 10.5404C18.5256 10.2316 18.2919 10.4987 18.2502 10.3819C18.0749 10.0563 17.8913 10.2316 17.8412 10.1565C17.4573 9.60559 17.2485 10.0647 17.0231 9.9478C16.4055 9.62227 16.3972 10.0563 16.272 9.93944C16.0883 9.82258 15.9214 9.83094 15.7795 10.098C15.6877 10.2399 15.3371 9.78922 14.9282 10.5988C14.8447 10.7073 14.5359 10.482 14.5192 10.9661C14.4774 11.0997 14.0852 10.8409 13.9265 11.2666C13.8431 11.2499 13.7763 11.2082 13.6928 11.1915C13.7022 11.1287 13.6921 11.0646 13.6637 11.0078C13.6353 10.9511 13.5901 10.9044 13.5342 10.8743C13.2087 10.8659 12.8915 10.8493 12.5743 10.8409C12.3406 10.8075 12.1737 10.507 11.9984 10.2065C11.556 10.1815 11.6729 9.92277 11.2889 9.66401C11.3139 9.64732 11.3974 9.65568 11.4141 9.6056C11.4159 9.53302 11.4215 9.46058 11.4308 9.38859C11.4809 9.38026 11.5393 9.41359 11.5477 9.37191C11.4976 8.97127 11.5852 9.28846 11.5435 9.04638C11.7313 9.12567 11.8983 8.8127 11.6729 8.64575C11.5978 8.47047 11.9149 8.39535 11.7397 8.27848C11.6303 8.24546 11.5133 8.24786 11.4053 8.28534C11.2974 8.32281 11.2041 8.39345 11.1387 8.48716C10.5127 8.47047 10.6546 9.14655 10.304 9.34687C10.1537 9.28846 10.1037 8.9796 9.86157 9.08813C9.87825 8.97127 9.75309 8.79598 9.71136 8.87114C9.66963 8.93791 9.73646 8.73759 9.60291 8.67914C9.5194 8.07814 9.19391 7.86947 9.19391 7.54397C9.22059 7.28933 9.20076 7.03197 9.13544 6.78441C9.10206 6.76772 9.06027 6.75101 9.01855 6.73432C9.01855 6.73432 9.00187 7.06818 8.95178 7.10994C8.90169 7.1517 8.86002 7.14331 8.82666 7.07653C8.78869 6.92949 8.77735 6.77684 8.79321 6.62581C8.75986 6.55069 8.71808 6.51731 8.65131 6.53399C8.60124 6.54235 8.53447 6.52564 8.48438 6.56736C8.49043 6.66527 8.50157 6.76279 8.51776 6.85953V7.18503C8.52275 7.25559 8.54519 7.3238 8.58307 7.38353C8.62095 7.44327 8.67311 7.49266 8.7348 7.52726C8.7598 7.55226 8.77649 7.61908 8.75977 7.73594C8.71814 8.06978 8.68478 8.412 8.64307 8.74589ZM10.0208 10.3412L9.84558 10.1867C9.87173 10.1625 9.8996 10.1401 9.92902 10.1199C9.97875 10.1588 10.0249 10.2021 10.0668 10.2493L10.0208 10.3412ZM10.9097 14.2266C10.9306 14.1681 10.9891 14.1431 10.9849 14.2182C11.0058 14.3935 11.0266 14.5062 11.106 14.5605C11.156 14.6481 11.1226 14.669 11.0058 14.6063C10.8889 14.5312 10.8555 14.4102 10.9097 14.2266ZM10.1002 14.4853C10.217 14.4436 10.459 14.9277 10.3881 14.9653C10.3714 15.0363 10.3506 15.0488 10.3214 15.0029C10.3128 14.9118 10.2831 14.824 10.2346 14.7464C10.186 14.6689 10.12 14.6038 10.0417 14.5563C9.9958 14.4937 10.0125 14.4645 10.1002 14.4853ZM8.58099 17.4526C8.46831 17.4943 8.39324 17.4276 8.5351 17.3274C8.67248 17.2362 8.80358 17.1358 8.92743 17.0269C9.04014 16.9309 9.10692 17.0311 8.99005 17.1271C9.0151 17.1563 8.69372 17.4109 8.58099 17.4526ZM8.76886 14.6481C8.78554 14.573 8.76887 14.5146 8.86066 14.6022C9.00258 14.8317 9.54923 14.8109 9.87476 15.2365C9.89976 15.2741 9.93321 15.2532 9.92487 15.2073C9.92487 14.9193 9.64942 14.7566 9.51166 14.5312C9.49498 14.4812 9.52004 14.4645 9.57013 14.4853C10.3339 14.9653 10.2546 15.2908 10.2337 15.6247C10.2877 15.6981 10.3246 15.7827 10.3419 15.8722C10.3592 15.9617 10.3565 16.0539 10.3339 16.1422C10.3798 16.1004 10.4173 16.0921 10.4089 15.5704C10.4048 15.4118 10.5634 15.1906 10.5383 14.8901C10.5217 14.719 10.1543 14.4436 10.1461 14.0555C10.1502 13.9929 10.1961 14.0555 10.2212 14.0513C10.243 14.1176 10.2826 14.1768 10.3355 14.2224C10.3885 14.268 10.4528 14.2983 10.5217 14.31C10.5489 14.3458 10.5672 14.3876 10.5752 14.4318C10.5832 14.4761 10.5806 14.5216 10.5676 14.5646C10.6803 14.6648 10.843 14.7316 10.8096 14.9778C11.0892 15.608 10.6552 15.7582 10.7303 15.9293C10.7349 16.125 10.6994 16.3196 10.626 16.5011C10.4882 16.9811 10.1836 16.8517 10.0543 17.4026C10.0095 17.7281 10.2098 17.864 10.2818 18.1027L10.2613 18.1156C9.98062 18.0651 9.98742 17.8598 9.85388 17.6696C9.78297 17.5111 10.0501 17.2899 10 17.0394C9.93397 17.2044 9.83611 17.3547 9.71204 17.4818C9.77881 16.9518 9.98745 16.9142 10.1293 16.6597C10.217 16.6305 10.1001 16.9894 10.1794 16.9936C10.2587 16.9977 10.2963 16.4385 10.2337 16.476C10.2671 16.4176 10.1502 16.4176 10.1418 16.4635C10.096 16.5929 10.0501 16.6889 9.98328 16.6012C9.92989 16.424 9.83559 16.2618 9.70801 16.1277C9.58042 15.9936 9.42314 15.8913 9.24878 15.8292C9.18622 15.8208 9.19037 15.7958 9.24878 15.7582C9.36372 15.7301 9.48442 15.7364 9.59576 15.7765C9.70711 15.8166 9.80414 15.8886 9.87476 15.9836C9.89351 15.9721 9.91164 15.9595 9.92902 15.946C9.87478 15.2407 9.28218 15.5245 8.76886 14.6481ZM10.4048 18.9676C10.4969 19.0125 10.5674 19.092 10.601 19.1887C10.601 19.1804 10.0209 19.2472 10.0209 19.2472C10.0501 19.1929 10.0292 19.1721 10.1879 19.0969C10.1127 19.0844 10.0376 19.0719 9.95831 19.0552C10.0911 18.9716 10.2502 18.9404 10.4048 18.9676H10.4048ZM9.73364 18.6324C9.87358 18.5121 10.0201 18.3996 10.1725 18.2956C10.3697 18.4069 10.5492 18.5473 10.7048 18.7119C10.7632 18.7954 10.8049 18.9289 10.8884 18.9707C10.9541 18.9858 11.022 18.9886 11.0887 18.9791C11.096 19.0288 11.0988 19.0791 11.097 19.1293L10.7673 19.1669C10.7075 19.0492 10.6236 18.9454 10.5211 18.8622C10.4663 18.7925 10.0971 18.8443 9.73358 18.6324H9.73364ZM11.3397 18.8924C11.5609 18.6921 11.757 18.7964 11.9448 19.0343L11.2812 19.1136C11.2817 19.083 11.2803 19.0523 11.277 19.0218C11.3438 19.0093 11.4105 18.9968 11.4815 18.9801C11.4815 18.9133 11.3856 18.9175 11.3397 18.8924ZM12.0861 19.0208C11.9746 18.8382 11.8251 18.6816 11.6479 18.5617C11.4726 18.5283 11.289 18.6452 11.1053 18.5784C10.8947 18.3868 10.7277 18.2439 10.5377 18.0753C11.0749 17.7871 11.6668 17.6152 12.2748 17.5709C12.8829 17.5265 13.4934 17.6106 14.0668 17.8178C14.559 17.9996 15.0153 18.2666 15.4149 18.6065L15.4641 18.646L12.0861 19.0208ZM9.51166 16.6889C9.51585 16.5971 9.54087 16.5887 9.58264 16.6639C9.61546 16.721 9.63275 16.7858 9.63275 16.8517C9.63275 16.9176 9.61546 16.9823 9.58264 17.0395C9.5367 17.1188 9.51166 17.1146 9.49915 17.0353C9.53674 17.0311 9.53673 16.6847 9.51166 16.6889ZM9.44434 17.2596C9.3692 17.5184 9.27734 17.6436 9.30243 17.7104C9.34101 17.8165 9.39747 17.9153 9.46936 18.0025C9.51111 18.0275 9.61124 17.9941 9.71143 18.0442C9.83373 18.1054 9.95628 18.1702 10.0743 18.2379C9.92403 18.341 9.78004 18.453 9.64313 18.5733C9.36866 18.3603 9.17727 18.0579 9.10211 17.7187C9.09373 17.5017 9.27738 17.3765 9.44434 17.2596ZM9.36884 18.983C9.43368 18.9789 9.49875 18.986 9.56116 19.0041C9.65361 19.0734 9.72455 19.1674 9.76569 19.2754L9.05957 19.3534C9.15581 19.2243 9.25904 19.1007 9.36884 18.983ZM15.5974 18.6312C14.915 18.0001 14.0513 17.5999 13.1287 17.4873C12.206 17.3747 11.2714 17.5553 10.4572 18.0037C10.4239 17.9738 10.3897 17.943 10.3541 17.9107C10.2893 17.8435 10.2409 17.7622 10.2128 17.6731C10.1847 17.5841 10.1776 17.4897 10.1922 17.3975C10.2068 17.3052 10.2425 17.2176 10.2967 17.1416C10.3509 17.0655 10.422 17.0031 10.5044 16.9592C10.6319 16.8159 10.7281 16.6476 10.787 16.4651C10.846 16.2826 10.8662 16.0899 10.8466 15.8991C11.8256 15.9235 12.8025 15.7968 13.7429 15.5235C13.7596 15.632 13.7679 15.7489 13.7763 15.8574C13.9215 15.8731 14.0594 15.9291 14.1744 16.0191C14.2895 16.109 14.3771 16.2294 14.4273 16.3665C14.5108 16.475 14.5609 16.4667 14.5358 16.2329C14.4841 15.9275 14.3856 15.6319 14.2437 15.3565C14.5059 15.2643 14.7856 15.2329 15.0617 15.2647C15.3212 15.6409 15.6963 15.9222 16.1301 16.066C16.3972 16.2497 16.4139 16.4583 16.5391 16.6503C16.7311 16.7505 16.8146 16.9592 16.898 16.9925C17.0816 16.9675 17.2903 17.1845 17.5741 17.9023C17.6158 18.0108 17.691 18.0442 17.7744 17.9691C17.908 17.8272 17.9998 17.8522 18.0499 18.0442C18.0582 18.1486 18.0624 18.2529 18.0666 18.3572L15.5974 18.6312ZM14.5073 13.7967C14.6278 13.9007 14.7137 14.039 14.7535 14.1932C14.9731 14.4145 15.1139 14.702 15.1541 15.0112C15.1208 15.1656 15.0873 15.2491 15.0164 15.1364C14.7702 14.9068 14.6158 14.5062 14.3946 14.4979C14.2736 14.4812 14.211 14.406 14.2485 14.2308C14.0857 13.8844 13.706 13.7466 13.7101 13.6089C13.7143 13.5422 13.7853 13.4962 13.9355 13.4796C13.9105 13.4503 13.8896 13.4211 13.8687 13.3961C13.7644 13.3669 13.5891 13.4044 13.5724 13.4879C13.5557 13.5714 13.1801 13.2792 13.201 13.1874C13.2218 13.0956 13.5056 13.0956 13.5682 13.0998C13.6309 13.1039 13.5224 13.0247 13.5015 12.9913C13.4572 12.9683 13.4083 12.9557 13.3584 12.9542C13.3085 12.9528 13.259 12.9626 13.2134 12.9829C13.176 12.9736 13.1423 12.953 13.1169 12.9239C13.0915 12.8947 13.0757 12.8586 13.0715 12.8202C13.0421 12.835 13.0169 12.8568 12.9979 12.8837C12.979 12.9107 12.967 12.9419 12.963 12.9746C12.8587 12.8702 12.5582 12.745 12.746 12.6824C12.7865 12.6111 12.8445 12.5514 12.9147 12.509C12.9848 12.4666 13.0647 12.443 13.1467 12.4404C13.2153 12.3586 13.2988 12.2906 13.3929 12.2401C13.4597 12.3319 13.5265 12.4278 13.5807 12.4988C13.9558 12.8802 14.2684 13.3181 14.5073 13.7967ZM14.2777 12.1983C14.4251 12.214 14.5652 12.2708 14.6818 12.3623C14.7984 12.4539 14.8868 12.5763 14.9371 12.7158C14.9371 12.8869 14.8995 12.8953 14.8119 12.7367C14.7574 12.6294 14.6815 12.5345 14.5889 12.4577C14.4963 12.3809 14.389 12.3239 14.2736 12.2901C14.1066 12.286 14.115 12.1816 14.2778 12.1983H14.2777ZM13.1592 14.8651C13.1968 14.7942 13.4722 14.6648 13.5641 14.3935C13.6309 14.1849 13.393 13.8051 13.5891 13.8343C14.5824 14.6439 13.6183 15.416 12.8504 15.2825C12.721 15.2407 12.8337 15.1781 12.9673 15.1656C13.1884 15.1823 13.6726 14.8776 13.66 14.6898C13.6559 14.7692 13.1342 14.9736 13.1592 14.8651ZM13.8478 15.1072C14.0042 15.0474 14.1485 14.9598 14.2736 14.8484C14.4113 14.8234 14.4447 14.8526 14.3821 14.936C14.2708 15.0491 14.1476 15.1499 14.0148 15.2365C13.8562 15.3409 13.6726 15.2073 13.8478 15.1072V15.1072ZM12.8129 13.6298C12.8542 13.6729 12.8905 13.7205 12.9213 13.7717C12.9479 13.8179 12.9649 13.869 12.9714 13.9219C12.9047 14.0138 12.8171 14.0179 12.7753 13.9345C12.7754 13.8949 12.7698 13.8556 12.7586 13.8176C12.7441 13.7777 12.7244 13.7398 12.7001 13.7049C12.6292 13.6048 12.7044 13.5714 12.8129 13.6298ZM12.7001 13.876C12.65 13.9678 12.5666 13.9887 12.5124 13.9219C12.4999 13.876 12.4915 13.8426 12.4832 13.8134C12.4667 13.777 12.4471 13.7421 12.4247 13.7091C12.3747 13.6173 12.4539 13.563 12.5541 13.6048C12.5867 13.647 12.616 13.6916 12.6417 13.7383C12.6654 13.7823 12.685 13.8284 12.7002 13.876H12.7001ZM12.1618 13.7466C12.12 13.659 12.2161 13.5964 12.3037 13.6256C12.3288 13.6674 12.358 13.7091 12.3788 13.7508C12.4038 13.7904 12.4248 13.8323 12.4414 13.876C12.4038 13.9637 12.3287 13.9929 12.2578 13.9386C12.2411 13.8969 12.2285 13.8676 12.2161 13.8426C12.2003 13.8094 12.1821 13.7773 12.1618 13.7466ZM12.1743 13.9052C12.1721 13.9245 12.1649 13.9428 12.1535 13.9585C12.1421 13.9741 12.1268 13.9866 12.1091 13.9946C12.0915 14.0026 12.072 14.0058 12.0527 14.0041C12.0334 14.0023 12.0149 13.9956 11.999 13.9845C11.974 13.947 11.9615 13.9177 11.9448 13.8927C11.9317 13.8641 11.9149 13.8375 11.8947 13.8134C11.8655 13.7341 11.974 13.6548 12.0491 13.6799C12.0677 13.7187 12.0886 13.7563 12.1118 13.7926C12.1284 13.8259 12.1535 13.8677 12.1743 13.9052ZM12.4706 12.912C12.3589 12.7861 12.2312 12.6752 12.0908 12.5823C11.9573 12.5197 12.0532 12.336 12.2035 12.3819C12.3121 12.4671 12.4128 12.5621 12.504 12.6657C12.6168 12.8035 12.5583 13.0455 12.4706 12.912ZM12.3037 12.937C12.3872 12.9787 12.3621 13.0079 12.2411 13.0246C12.0825 12.9286 11.9239 12.8368 11.7653 12.745C11.5984 12.674 11.7403 12.5488 11.9072 12.6114C12.0366 12.72 12.1702 12.8285 12.3037 12.937V12.937ZM11.8112 13.7633C11.8205 13.7979 11.8361 13.8304 11.8571 13.8593C11.8738 13.8885 11.9031 13.9261 11.9239 13.9553C11.9197 14.043 11.8571 14.0805 11.757 14.0596C11.7331 14.0346 11.7108 14.0081 11.6902 13.9804C11.6734 13.9592 11.658 13.9369 11.6443 13.9136C11.6317 13.8468 11.7444 13.755 11.8112 13.7633V13.7633ZM15.3628 15.2657C15.3586 15.249 15.4505 15.1447 15.5131 15.2198C15.5757 15.2949 15.7634 15.5328 15.8886 15.6914C15.9095 15.7833 15.4129 15.4703 15.3628 15.2657V15.2657ZM18.906 18.2664C18.7558 18.2873 18.5972 18.2956 18.4511 18.3165C18.4595 18.2372 18.5012 18.2288 18.4845 18.2163C18.4135 18.0911 18.3885 18.1621 18.2967 18.2372C18.2633 18.3081 18.184 18.1662 18.2007 18.0702C18.5513 17.9117 18.8559 17.9158 18.906 18.2664V18.2664ZM16.5522 15.6455C16.4145 15.5411 16.2768 15.4368 16.1432 15.3367C16.1349 15.3575 16.1182 15.4076 16.1099 15.4327C16.5354 15.6511 16.8696 16.0134 17.053 16.4552C17.0113 16.4134 16.9529 16.3633 16.9111 16.3216C16.9028 16.3675 16.9278 16.3675 16.9236 16.4176C17.3994 17.0102 17.5872 17.006 18.0671 17.678C18.1298 17.6321 18.2132 17.6738 18.3093 17.7948C18.2759 17.8282 18.2466 17.8616 18.2174 17.895C18.0296 17.8365 17.8418 17.7781 17.6581 17.7239C17.4703 17.3191 17.2742 16.956 16.9445 16.8558C16.4897 16.4844 16.74 16.355 15.6633 15.1489C15.8302 15.1099 15.9936 15.0569 16.1516 14.9903C16.1807 15.0028 16.6315 15.6497 16.5522 15.6455V15.6455ZM17.6206 16.2047C17.6206 16.2047 17.5788 15.6204 17.5914 15.6121C17.7792 15.5245 17.8585 15.6204 17.8627 15.9251C17.8185 16.0445 17.7325 16.1439 17.6206 16.2048V16.2047ZM17.7708 13.5171C17.9628 13.3961 18.0546 13.684 18.1631 13.876C18.0911 14.3304 18.1124 14.7947 18.2257 15.2407C18.1728 15.3603 18.0798 15.4577 17.9628 15.5161C17.9545 15.441 18.0003 15.3241 17.9586 15.2365C17.9419 15.1572 17.8585 15.1572 17.8334 15.0696C17.8556 14.9411 17.8949 14.8161 17.9503 14.6981C17.9067 14.4376 17.8886 14.1734 17.8961 13.9094C17.8752 13.8217 17.825 13.7967 17.7374 13.8384C17.5447 14.0068 17.3245 14.1409 17.0864 14.2348C17.003 14.2598 16.9696 14.2265 17.0113 14.1514C17.1935 14.0592 17.3669 13.9502 17.5289 13.8259C17.5038 13.8175 17.4537 13.8384 17.4329 13.8342C17.2433 13.9686 17.0333 14.0715 16.811 14.1389C16.3895 14.335 16.2768 14.6188 16.16 14.6272C15.9137 14.6188 15.8053 14.7399 15.7093 14.6772C15.4004 14.0721 14.9664 14.1931 15.0374 13.9802C15.2335 14.0762 15.4213 14.022 15.3337 13.9802C15.246 13.9385 14.8788 13.7215 14.9496 13.6881C15.0205 13.6547 14.983 13.638 15.0498 13.6672C15.271 13.8801 15.3962 13.7131 15.6007 13.9009C15.6208 13.8177 15.6236 13.7313 15.609 13.647C15.5944 13.5626 15.5627 13.4822 15.5157 13.4106C15.4688 13.339 15.4076 13.2778 15.3361 13.2308C15.2646 13.1838 15.1842 13.1519 15.0999 13.1372C15.0957 13.1122 15.0289 13.083 15.0832 13.0537C15.2202 13.0281 15.3617 13.0433 15.4901 13.0975C15.6184 13.1516 15.728 13.2424 15.8052 13.3584C15.9052 13.2023 15.9494 13.017 15.9304 12.8326C16.0389 12.9661 16.2058 13.012 16.1015 13.4627C16.0848 13.517 15.8302 13.5378 15.8135 13.6505C16.452 13.4712 16.6983 13.7633 17.7709 13.5171L17.7708 13.5171ZM17.775 12.2901C17.7082 12.3777 17.6415 12.4695 17.5747 12.5613C17.462 12.6031 17.4287 12.5655 17.4745 12.457L17.7083 12.2233C17.7709 12.1733 17.8543 12.2317 17.775 12.2902V12.2901ZM14.7535 10.8043C14.7785 10.725 14.9454 11.0297 15.3837 10.3661C15.4755 10.2534 15.7927 10.5957 16.0472 10.1282C16.089 10.0615 16.3852 10.2492 16.6064 10.0615C16.6857 9.99047 17.0697 10.3369 17.4537 10.1408C17.5455 10.1158 17.4871 10.3745 17.9086 10.3411C17.9796 10.3578 17.9378 10.508 18.209 10.5498C18.6973 10.5414 18.6931 10.8878 18.7015 11.0088C18.5599 10.9669 18.4281 10.8974 18.3134 10.8043C18.2842 10.9796 18.3885 11.0839 18.6389 11.109C18.6389 11.1424 18.6807 11.2008 18.6807 11.2342C18.6222 11.23 18.5221 11.2008 18.4678 11.1966C18.7224 11.3844 18.7766 11.5681 18.5805 11.735C18.5096 11.447 18.184 11.2885 18.2007 10.9421C17.9837 11.2968 18.4135 11.5222 18.3551 11.7433C18.28 11.7767 18.2132 11.8894 18.1506 11.952C18.1221 11.9135 18.0816 11.8857 18.0355 11.8728C17.9894 11.86 17.9403 11.8629 17.8961 11.8811C17.8876 11.8054 17.8943 11.7287 17.9158 11.6556C17.9373 11.5825 17.9731 11.5145 18.0212 11.4554C17.9962 11.447 18.0671 11.3677 17.9461 11.4304C17.8251 11.493 17.6623 12.0188 17.7416 11.9813C17.8209 11.9437 17.6457 12.0814 17.6415 12.0021C17.5996 11.8326 17.5953 11.656 17.629 11.4846C17.5622 11.3886 17.5872 11.4054 17.5246 11.4638C17.5035 11.5718 17.4546 11.6725 17.3828 11.7559C17.2743 11.6558 17.2993 11.4221 17.3953 11.1299C17.437 10.963 17.7584 10.9212 18.0672 10.8712C18.0881 10.842 18.0797 10.8253 18.0589 10.8044C17.8847 10.7936 17.7103 10.8236 17.5497 10.892C17.558 10.867 17.6124 10.8002 17.6207 10.7752C17.4873 10.8379 17.3473 10.8855 17.2033 10.9171C17.2189 10.8203 17.2697 10.7326 17.3459 10.671C17.4222 10.6094 17.5185 10.5781 17.6165 10.5832C17.6582 10.5457 17.6415 10.5164 17.5831 10.4956C17.3395 10.4625 17.0926 10.5254 16.8945 10.6708C16.7902 10.6291 16.8277 10.5164 16.882 10.3912C16.7045 10.4276 16.5381 10.5056 16.3967 10.6188C16.2552 10.7319 16.1426 10.8771 16.0682 11.0422C16.0348 11.1883 15.9847 11.0464 15.9971 11.0422C15.9673 10.9137 15.9136 10.7919 15.8386 10.6833C15.7676 10.6082 15.7301 10.6249 15.7426 10.7167C15.872 10.892 15.6007 11.0089 15.6299 11.3886C15.3795 11.5013 15.463 10.988 15.3127 10.9045C15.258 11.0525 15.2338 11.2101 15.2418 11.3678C15.0789 11.2898 14.8925 11.2763 14.7201 11.3302C14.8526 11.3951 14.9566 11.5065 15.0123 11.6432C15.0123 11.6432 14.1525 11.3469 14.1567 11.3469C14.2652 11.1007 14.5865 11.4137 14.7535 10.8044V10.8043ZM14.0524 11.4303C14.8704 11.7141 15.6898 11.9965 16.5105 12.2775C16.4969 12.2999 16.4857 12.3237 16.4771 12.3485C16.0222 12.1899 15.5673 12.0396 15.1124 11.881C15.0807 11.9091 15.0592 11.9467 15.0509 11.9881C15.0426 12.0295 15.0481 12.0725 15.0665 12.1106C14.5873 11.9161 14.0526 11.9086 13.5682 12.0897C13.6309 11.6725 13.9313 11.7434 14.0524 11.4304V11.4303ZM12.913 11.2801C13.0127 11.272 13.1109 11.251 13.2052 11.2175C13.297 11.2675 13.1551 11.447 13.4263 11.4303C13.4973 11.4428 13.5766 11.3677 13.6392 11.2759C13.7017 11.2967 13.7894 11.3427 13.8561 11.3677C13.8186 11.6014 13.5223 11.4178 13.4346 11.9895C13.3344 11.9562 13.2593 11.8476 13.2218 11.5805C13.0298 11.543 12.8671 11.4887 12.8337 11.3218C12.8045 11.2718 12.8379 11.2718 12.913 11.2802V11.2801ZM11.3813 9.32692C11.3542 9.33275 11.3277 9.34112 11.3021 9.35192C11.2972 9.38091 11.2945 9.41019 11.2938 9.43957H11.2103C11.1519 9.43957 11.2312 9.49798 11.2645 9.56057C11.252 9.59394 11.2019 9.62319 11.1143 9.61067C11.0183 9.50633 10.9473 9.44371 10.8513 9.33938C10.8638 9.25592 10.8639 9.15575 10.9014 9.13907C10.9598 9.19332 11.0475 9.26845 11.106 9.32686C11.1226 9.31018 11.1352 9.28513 11.156 9.2726C11.156 9.2726 11.1352 9.03055 11.1393 9.02636C11.1737 9.01845 11.2085 9.01288 11.2437 9.00969C11.2394 9.04725 11.2353 9.08898 11.2311 9.13069C11.277 9.15569 11.3355 9.1766 11.3856 9.20582C11.3821 9.24611 11.3806 9.28657 11.3813 9.32701V9.32692ZM11.59 8.37123C11.5733 8.37123 11.5733 8.6258 11.5441 8.59659C11.4608 8.55375 11.3702 8.52686 11.277 8.51728C11.2312 8.48817 11.5567 8.32955 11.59 8.37131V8.37123ZM11.0976 8.62162C11.261 8.5854 11.4321 8.61541 11.5734 8.70508C11.6151 8.77601 11.6151 8.81779 11.5817 8.847C11.4323 8.78059 11.269 8.75192 11.106 8.76351C11.106 8.76351 10.6803 8.9555 10.6927 8.9555C10.7094 8.83455 10.7846 8.69682 11.0976 8.62172V8.62162ZM9.97498 9.2852C10.0501 9.25599 10.1252 9.47719 10.2421 9.4563C10.3589 9.43541 10.3381 9.56064 10.5008 9.79016C10.6636 10.0197 10.5759 9.87781 10.5842 9.76095C10.555 9.68582 10.4048 9.56896 10.3547 9.43126C10.4048 9.40626 10.4716 9.38116 10.5258 9.35612C10.5279 9.39251 10.5321 9.42875 10.5383 9.46467C10.5258 9.49803 10.5133 9.53143 10.505 9.56067C10.7721 9.7109 11.0392 9.86533 11.3104 10.0198C11.3096 9.99601 11.311 9.97224 11.3146 9.94876C11.1017 9.79016 10.8889 9.63575 10.6802 9.48134C10.7011 9.45213 10.722 9.41873 10.7429 9.38534C10.8597 9.49384 10.9766 9.59818 11.0934 9.70668C11.1226 9.70252 11.1518 9.69832 11.1852 9.69416C11.5358 9.95292 11.4857 10.2451 11.9197 10.3118C11.9836 10.5159 12.1163 10.6915 12.2953 10.8084C12.4159 10.8863 12.5182 10.9892 12.5953 11.1102C12.6723 11.2312 12.7223 11.3675 12.7419 11.5096C12.8447 11.5759 12.9596 11.6213 13.0799 11.6431C13.1592 11.689 13.0841 11.9019 13.3303 12.1189C13.3762 12.1857 13.2343 12.1773 13.0883 12.3609C12.7586 12.4026 12.6625 12.6781 12.6458 12.603C12.5332 12.4527 12.2829 12.2941 12.2327 12.219C12.3079 12.0521 12.6542 11.9936 12.8086 11.8017C12.8336 11.689 12.8044 11.6681 12.7376 11.7349C12.5331 11.9978 12.2744 11.9352 12.1742 12.0562C12.0323 12.1981 11.8821 12.3692 11.7444 12.5153C11.601 12.5076 11.4572 12.5118 11.3145 12.5278C11.206 12.4694 11.2185 12.3943 11.3521 12.3776C11.4689 12.3609 11.6442 12.3943 11.7026 12.3359C11.8243 12.0721 12.0317 11.8573 12.2911 11.7265C12.3537 11.6431 12.3328 11.6139 12.241 11.6431C11.9888 11.7235 11.7674 11.8793 11.6066 12.0896C11.4248 12.0671 11.2406 12.0713 11.0599 12.1022L11.0474 11.9769C11.2352 11.81 11.4272 11.6807 11.6191 11.5179C11.6567 11.4678 11.6359 11.4344 11.5441 11.4302C11.3817 11.4945 11.2141 11.5448 11.0432 11.5805C10.9722 11.5888 10.943 11.568 10.9681 11.4803C11.2269 10.9002 11.5774 10.9795 11.8987 10.9044C11.9989 10.871 12.0156 10.7124 11.8278 10.7792C11.668 10.8165 11.5013 10.8122 11.3436 10.7666C11.2873 10.6833 11.2124 10.6143 11.1248 10.565C11.0371 10.5157 10.9391 10.4876 10.8386 10.4829C10.6846 10.4021 10.5462 10.2947 10.4296 10.1657C10.3211 10.0947 10.3002 10.1198 10.3754 10.2408C10.4695 10.3858 10.5915 10.5106 10.7343 10.6081C10.8386 10.6999 10.8177 10.7249 10.6675 10.6832L10.2168 10.3326C10.2251 10.1782 10.2252 9.99461 10.2252 9.79007C10.1626 9.66071 10.1292 9.65654 10.125 9.77756C10.125 9.87773 10.125 10.053 10.0874 10.0864C10.0498 10.1198 9.73269 9.84018 9.78278 9.81513C9.85616 9.76778 9.92464 9.71326 9.98724 9.65236C10.0165 9.58976 9.97891 9.52715 9.94971 9.57724C9.87769 9.64262 9.80098 9.70261 9.72015 9.75672C9.63254 9.8068 9.51147 9.66072 9.61163 9.61898C9.71179 9.57724 9.89984 9.31448 9.97498 9.28528V9.2852ZM9.61182 9.00139C9.70364 8.97639 9.74122 9.25599 9.65356 9.2852L9.39484 9.58568C9.34057 9.55227 9.26545 9.49387 9.3197 9.2852L9.61182 9.00139ZM9.10681 7.84539C9.27493 8.12289 9.39224 8.42814 9.45319 8.74682C9.51996 8.75098 9.5367 8.83864 9.55341 8.95134C9.46993 9.0348 9.4073 9.08904 9.32385 9.17669C9.18615 9.12244 9.16105 8.83864 9.11932 8.60077C9.32801 8.797 9.01921 8.11255 9.10687 7.84546L9.10681 7.84539ZM8.78546 8.96386C8.78546 8.96386 8.87311 8.0123 8.87311 8.00814C8.9524 8.342 8.98997 9.23927 9.16943 9.3144C9.15494 9.37216 9.15229 9.43225 9.16162 9.49106C9.17095 9.54987 9.19204 9.60619 9.22369 9.65663C9.18612 9.77349 9.33633 9.86947 9.5116 9.97381C9.25288 10.1032 8.96078 10.2534 8.70203 10.387C8.70203 10.2159 8.75206 9.9446 8.66858 9.86531C8.25126 9.45215 8.18868 9.18503 8.30139 8.95131C8.35139 8.84698 8.43909 8.75095 8.60602 8.9263C8.65617 9.06408 8.75629 9.02652 8.78552 8.96395L8.78546 8.96386Z" fill="#364650"/>
<path d="M24.7307 9.2511C24.4939 8.61487 24.205 7.99929 23.8669 7.41063C23.3469 6.51297 22.7342 5.67231 22.0389 4.90242C20.3196 3.03799 18.0785 1.73489 15.6077 1.16304C15.2697 1.10046 14.919 1.05039 14.5768 0.996136C12.2611 0.677688 9.9025 0.995058 7.75337 1.91426C6.71341 2.39838 5.73423 3.00354 4.83613 3.71718C3.85107 4.54802 2.99083 5.51646 2.28199 6.59264C1.4152 7.87604 0.77963 9.3012 0.404001 10.8036C-0.0110301 12.3925 -0.107497 14.0477 0.120188 15.674C0.392082 17.3486 0.97377 18.9578 1.83546 20.4191C2.16874 21.0144 2.58627 21.5583 3.07502 22.0342C3.28175 21.7403 3.58909 21.5324 3.93885 21.45L3.88874 21.3999C3.7176 21.1972 3.61924 20.943 3.6092 20.6779C3.6103 20.4867 3.64562 20.2973 3.71351 20.1187C3.43794 20.1491 3.16068 20.0788 2.93287 19.9208C2.70506 19.7628 2.54209 19.5277 2.47401 19.2589C2.3697 18.8666 2.5658 18.6162 2.9748 18.8499C3.03034 18.9253 3.07039 19.011 3.0926 19.102C3.11481 19.193 3.11875 19.2874 3.1042 19.3799C3.28492 19.2815 3.43944 19.1413 3.55488 18.9709C3.63992 18.7976 3.65301 18.5977 3.59126 18.4147C3.5295 18.2318 3.39793 18.0807 3.22523 17.9944C3.2631 17.8803 3.27311 17.7589 3.2544 17.6402C3.2357 17.5215 3.18879 17.409 3.11769 17.3122C3.04658 17.2153 2.95329 17.1369 2.84565 17.0835C2.73801 17.0301 2.61917 17.0033 2.49903 17.0053L2.38221 17.022L2.16517 17.093C2.29456 17.2307 2.43647 17.335 2.43647 17.5437C2.40724 17.8609 2.1527 18.0361 1.90229 17.7857C1.76526 17.6142 1.67737 17.4087 1.64796 17.1912C1.61855 16.9736 1.64873 16.7521 1.7353 16.5504C1.81761 16.3841 1.91995 16.2286 2.03999 16.0871C1.865 16.0173 1.70698 15.9108 1.57667 15.7747C1.44636 15.6386 1.34674 15.4762 1.28456 15.2984C1.19692 15.0229 1.13431 14.2467 1.63514 14.3719C2.01488 14.5221 1.8981 14.8351 1.7729 15.1148C2.24031 15.0522 2.54498 14.9186 2.59089 14.4094C2.59692 14.2202 2.53469 14.035 2.4156 13.8878C2.48251 13.8091 2.53272 13.7177 2.56318 13.619C2.59364 13.5204 2.60372 13.4165 2.59278 13.3139C2.58185 13.2112 2.55014 13.1118 2.49958 13.0218C2.44903 12.9318 2.38069 12.853 2.29872 12.7902C2.1422 12.6886 1.95947 12.6349 1.7729 12.6358C1.8981 12.9195 1.99408 13.1365 1.69776 13.3536C1.20112 13.5497 1.1844 12.8569 1.25117 12.5481C1.30046 12.3494 1.39669 12.1653 1.53175 12.0114C1.66681 11.8574 1.83681 11.7381 2.02748 11.6634C1.7719 11.4071 1.62658 11.0612 1.62263 10.6993C1.63516 10.4197 1.7979 9.8354 2.15681 9.86045C2.48652 9.96895 2.4782 10.3028 2.29041 10.5449L2.14851 10.6784C2.5784 10.812 2.8872 10.7994 3.14179 10.3863C3.24394 10.2017 3.26941 9.98436 3.21272 9.78115C3.36733 9.70477 3.4899 9.5761 3.55866 9.41796C3.62743 9.25982 3.63792 9.08243 3.58833 8.91727C3.5442 8.80126 3.47763 8.6951 3.3924 8.60486C3.30718 8.51463 3.20499 8.44209 3.09168 8.39141C3.10005 8.70859 3.07914 8.9882 2.68684 9.00905C2.51572 8.9882 2.46152 8.90891 2.43647 8.75032C2.44573 8.47596 2.5525 8.21389 2.73762 8.01117C2.92274 7.80846 3.17408 7.67839 3.44648 7.64432H3.7386C3.65698 7.47599 3.61184 7.29233 3.60609 7.10535C3.60034 6.91837 3.63409 6.73228 3.70521 6.55925C3.83876 6.28797 4.32704 5.68701 4.59413 6.16278C4.67758 6.53837 4.49812 6.6302 4.19349 6.76793C4.49396 6.99746 4.75691 7.14768 5.12416 6.93903C5.23136 6.87437 5.32148 6.78488 5.38685 6.67811C5.45222 6.57134 5.49092 6.45042 5.49977 6.32553C5.60748 6.31517 5.71144 6.28035 5.80366 6.22373C5.89588 6.1671 5.97396 6.09017 6.03193 5.99879C6.0899 5.90741 6.1262 5.804 6.13813 5.69645C6.15007 5.58889 6.1373 5.48003 6.10078 5.37816C6.04711 5.23183 5.96156 5.09927 5.85035 4.99006C5.74185 5.32392 5.65422 5.48667 5.27027 5.42405C4.96561 5.27378 5.17846 4.93576 5.32453 4.73961C5.46559 4.59091 5.6427 4.48124 5.83869 4.42128C6.03469 4.36131 6.24289 4.35308 6.443 4.3974L6.70173 4.4934C6.69743 4.17794 6.80047 3.87038 6.99391 3.62115C7.22761 3.38743 7.78266 3.02015 8.0456 3.38743C8.06847 3.44282 8.07764 3.50291 8.07228 3.5626C8.06691 3.62228 8.04716 3.67977 8.01478 3.73019C7.9824 3.78061 7.93834 3.82245 7.8863 3.85215C7.83426 3.88185 7.77577 3.89853 7.71589 3.90076L7.60737 3.9133L7.45295 3.91745C7.51142 4.02508 7.57553 4.12955 7.64497 4.23045C7.72542 4.31569 7.82486 4.38076 7.93519 4.42035C8.04552 4.45994 8.16362 4.47294 8.27992 4.4583C8.39621 4.44366 8.50743 4.4018 8.6045 4.3361C8.70158 4.27041 8.78175 4.18273 8.83857 4.08021C8.94792 4.11715 9.06455 4.12718 9.1786 4.10945C9.29264 4.09171 9.40076 4.04674 9.49372 3.97834C9.58669 3.90995 9.66178 3.82014 9.71266 3.71654C9.76353 3.61294 9.78868 3.4986 9.78596 3.38321L9.7776 3.25799L9.71498 3.0243C9.50634 3.23295 9.27678 3.42078 9.0055 3.16619C8.71336 2.8198 9.26849 2.54854 9.55226 2.50262C9.69553 2.68412 9.88442 2.82428 10.0997 2.90873C10.3149 2.99317 10.5488 3.01888 10.7773 2.9832C11.0058 2.94753 11.2206 2.85177 11.3999 2.70572C11.5792 2.55967 11.7164 2.36858 11.7975 2.15204C12.0729 2.18128 12.4611 2.29814 12.2775 2.66957C12.0647 2.9283 11.8518 2.85321 11.568 2.74887C11.5772 2.84159 11.5926 2.93361 11.614 3.0243C11.6463 3.1463 11.7092 3.25806 11.7967 3.34905C11.8842 3.44004 11.9934 3.50727 12.114 3.54442C12.2347 3.58157 12.3628 3.58742 12.4863 3.56141C12.6098 3.53539 12.7247 3.47838 12.8201 3.39573C12.9732 3.52323 13.1705 3.58511 13.369 3.56791C13.5675 3.55072 13.7512 3.45584 13.8801 3.30392C14.0011 3.14409 14.067 2.94933 14.0679 2.74887C13.7925 2.85321 13.4919 2.94086 13.3333 2.61948C13.2582 2.28142 13.5086 2.19796 13.7966 2.1604C14.0342 2.15051 14.2691 2.21466 14.4687 2.344C14.6683 2.47333 14.8228 2.66147 14.9109 2.8824L14.9652 2.99508C15.1059 2.79645 15.3043 2.6459 15.5335 2.56379C15.7626 2.48168 16.0115 2.47198 16.2463 2.53602C16.3711 2.58069 16.487 2.64708 16.5886 2.73214C16.8265 2.94914 16.7096 3.21215 16.4133 3.28305C16.2171 3.32478 16.046 3.15366 15.925 3.0243C15.8879 3.16615 15.8669 3.31174 15.8624 3.4583C15.8709 3.56655 15.9039 3.67144 15.959 3.76501C16.0141 3.85858 16.0897 3.93838 16.1802 3.99833C16.2708 4.05827 16.3738 4.0968 16.4814 4.11097C16.589 4.12515 16.6985 4.1146 16.8015 4.08014C16.8588 4.18411 16.9401 4.2729 17.0386 4.33915C17.1372 4.40541 17.2501 4.44721 17.3681 4.46108C17.486 4.47495 17.6055 4.4605 17.7167 4.41892C17.8279 4.37734 17.9276 4.30984 18.0075 4.22201L18.0743 4.12185L18.187 3.91735C17.8239 3.90903 17.611 3.88814 17.561 3.48751C17.7196 3.00338 18.333 3.32057 18.5835 3.55845C18.8182 3.81078 18.9454 4.14458 18.9382 4.48912C19.1079 4.40866 19.2939 4.36901 19.4816 4.37336C19.6693 4.3777 19.8534 4.42591 20.0191 4.51413C20.2821 4.6602 20.7954 5.19858 20.3571 5.42813C19.9982 5.51159 19.873 5.28623 19.7853 4.98574C19.5391 5.31543 19.3597 5.6076 19.6143 5.99987C19.6706 6.09035 19.7469 6.16673 19.8373 6.22316C19.9277 6.27959 20.0299 6.31457 20.1359 6.32541C20.1411 6.43586 20.171 6.54374 20.2233 6.64112C20.2757 6.73851 20.3492 6.82294 20.4385 6.88819C20.5278 6.95344 20.6305 6.99787 20.7392 7.0182C20.8479 7.03853 20.9598 7.03425 21.0666 7.00568C21.2077 6.95228 21.3367 6.87143 21.4464 6.7678C21.1125 6.63007 20.979 6.53824 21.0458 6.15429C21.1751 5.90805 21.3838 5.97067 21.5758 6.10421C21.7861 6.26806 21.9363 6.497 22.0028 6.75524C22.0692 7.01348 22.0482 7.28646 21.9431 7.53151L21.9013 7.64419C22.0853 7.62529 22.2711 7.64938 22.4442 7.71456C22.6173 7.77974 22.7729 7.88423 22.8987 8.01979C23.0865 8.22847 23.3202 8.65834 23.1366 8.93795C23.0677 8.98558 22.9852 9.00933 22.9015 9.00557C22.8178 9.0018 22.7377 8.97073 22.6733 8.9171C22.5636 8.76527 22.5172 8.57668 22.544 8.39125C22.4479 8.4504 22.3559 8.51594 22.2686 8.58741C22.177 8.66418 22.1062 8.76277 22.0628 8.8741C22.0194 8.98542 22.0046 9.10588 22.02 9.22438C22.0354 9.34289 22.0804 9.45561 22.1508 9.55216C22.2212 9.6487 22.3148 9.72596 22.4229 9.77681C22.3862 9.89082 22.3771 10.0119 22.3962 10.1302C22.4154 10.2484 22.4624 10.3604 22.5333 10.4569C22.6042 10.5535 22.697 10.6318 22.804 10.6855C22.9111 10.7393 23.0293 10.7668 23.1491 10.7659L23.266 10.7492L23.483 10.6783C23.2576 10.4362 23.1241 10.311 23.2868 9.98549C23.4245 9.86028 23.4788 9.83106 23.6541 9.89783C23.8306 10.0661 23.9497 10.2855 23.9946 10.5252C24.0396 10.7648 24.0081 11.0126 23.9046 11.2333C23.8297 11.3917 23.7296 11.5369 23.6082 11.6632C23.7992 11.7392 23.9695 11.8594 24.1052 12.0139C24.2408 12.1684 24.338 12.3528 24.3886 12.5521C24.4471 12.8276 24.4596 13.4786 24.0172 13.3826C23.6457 13.2282 23.725 12.9319 23.867 12.6356C23.6192 12.638 23.3818 12.7351 23.2034 12.9069C23.0992 13.0499 23.0444 13.2231 23.0474 13.4C23.0504 13.577 23.111 13.7482 23.22 13.8876C23.1543 13.9651 23.1052 14.0553 23.0758 14.1526C23.0464 14.2499 23.0372 14.3522 23.049 14.4531C23.0607 14.5541 23.0931 14.6516 23.1441 14.7395C23.195 14.8275 23.2635 14.904 23.3452 14.9644C23.5022 15.0609 23.6826 15.1129 23.867 15.1146C23.725 14.8016 23.6583 14.6472 23.9379 14.3926C24.1841 14.2966 24.2884 14.3843 24.3803 14.6096C24.4518 14.8863 24.4242 15.1793 24.3022 15.4377C24.1802 15.6962 23.9716 15.9037 23.7125 16.0244L23.5999 16.087C23.7892 16.2723 23.9186 16.5102 23.9714 16.7698C24.0243 17.0294 23.998 17.2989 23.8961 17.5435C23.7667 17.8065 23.5122 18.0986 23.2576 17.7564C23.1157 17.4726 23.2785 17.2806 23.4788 17.0928C23.3542 17.0294 23.215 17.0005 23.0755 17.0093C22.936 17.0181 22.8014 17.0642 22.6859 17.1428C22.5615 17.242 22.4693 17.3758 22.421 17.5273C22.3727 17.6789 22.3705 17.8414 22.4146 17.9942C22.3164 18.0422 22.2303 18.1119 22.163 18.198C22.0956 18.2842 22.0487 18.3845 22.0258 18.4914C22.0029 18.5983 22.0046 18.7091 22.0307 18.8152C22.0569 18.9214 22.1068 19.0203 22.1767 19.1043C22.278 19.2178 22.3998 19.3113 22.5357 19.3798C22.5273 19.0793 22.5315 18.8163 22.8945 18.7621C23.4245 18.783 23.1283 19.4966 22.9196 19.7387C22.794 19.8725 22.6398 19.9762 22.4685 20.042C22.2972 20.1077 22.1133 20.1339 21.9304 20.1185C22.0181 20.3402 22.0439 20.5816 22.005 20.8169C21.966 21.0521 21.8638 21.2723 21.7092 21.4539C22.0471 21.551 22.3481 21.7473 22.5732 22.0174C23.1327 21.4718 23.6018 20.8407 23.9629 20.1477C24.9188 18.5122 25.4853 16.6786 25.6184 14.7889C25.7516 12.8992 25.4478 11.0043 24.7308 9.25093L24.7307 9.2511Z" fill="#364650"/>
<path d="M11.391 22.0585C11.3841 21.9795 11.347 21.9062 11.2874 21.8539C11.2278 21.8016 11.1503 21.7743 11.0711 21.7776C10.9919 21.781 10.917 21.8149 10.8621 21.8721C10.8072 21.9293 10.7765 22.0055 10.7764 22.0848C10.7777 22.1651 10.8108 22.2416 10.8684 22.2975C10.926 22.3535 11.0034 22.3843 11.0837 22.3833C11.1542 22.3844 11.223 22.3616 11.2788 22.3185C11.3346 22.2755 11.3742 22.2147 11.391 22.1463H12.3306C12.3461 22.2609 12.401 22.3665 12.4859 22.4451C12.5708 22.5236 12.6805 22.5701 12.796 22.5765H12.8837C12.9933 22.5657 13.0956 22.5167 13.1727 22.438C13.2497 22.3593 13.2967 22.2561 13.3052 22.1463L14.2623 22.1375C14.2748 22.2056 14.3105 22.2673 14.3633 22.3121C14.4161 22.357 14.4828 22.3821 14.5521 22.3833C14.6333 22.3824 14.7109 22.3497 14.7683 22.2922C14.8257 22.2348 14.8584 22.1572 14.8594 22.076C14.858 21.9957 14.825 21.9192 14.7674 21.8633C14.7098 21.8073 14.6324 21.7765 14.5521 21.7775C14.4758 21.7773 14.4024 21.8064 14.3469 21.8586C14.2914 21.9109 14.258 21.9824 14.2535 22.0585H13.3052C13.2959 22.0045 13.2811 21.9515 13.2613 21.9004L14.0867 21.4174C14.1337 21.4684 14.1964 21.5022 14.2649 21.5134C14.3333 21.5245 14.4035 21.5124 14.4642 21.4789C14.5341 21.4393 14.5854 21.3736 14.6068 21.2962C14.6282 21.2188 14.6181 21.1361 14.5785 21.0662C14.5356 20.9999 14.4699 20.9517 14.3938 20.9306C14.3177 20.9096 14.2365 20.9172 14.1657 20.952C14.0997 20.9907 14.0504 21.0527 14.0277 21.1258C14.005 21.1989 14.0103 21.2778 14.0428 21.3472L13.2174 21.8213C13.1837 21.7818 13.1454 21.7464 13.1033 21.716L13.5862 20.873C13.6519 20.894 13.7229 20.8914 13.787 20.8658C13.8511 20.8402 13.9043 20.7931 13.9374 20.7325C13.9744 20.6621 13.9831 20.5803 13.9619 20.5036C13.9407 20.427 13.8912 20.3613 13.8233 20.3198C13.756 20.2831 13.6772 20.2736 13.603 20.2932C13.5289 20.3127 13.465 20.3599 13.4246 20.4251C13.3841 20.4902 13.3702 20.5684 13.3856 20.6435C13.4009 20.7187 13.4444 20.7851 13.5072 20.8291L13.0242 21.6633C12.9745 21.6395 12.921 21.6246 12.8661 21.6194V20.6623C12.9343 20.6498 12.996 20.6141 13.0408 20.5613C13.0857 20.5085 13.1108 20.4418 13.112 20.3725C13.1115 20.2927 13.0802 20.2161 13.0245 20.1588C12.9689 20.1015 12.8933 20.068 12.8135 20.0652C12.739 20.0692 12.6686 20.1002 12.6154 20.1524C12.5622 20.2046 12.5299 20.2744 12.5245 20.3488C12.5191 20.4231 12.5411 20.4969 12.5862 20.5562C12.6313 20.6155 12.6965 20.6564 12.7696 20.6711L12.7608 21.6106C12.7056 21.614 12.6531 21.6356 12.6115 21.672L12.1374 20.8379C12.198 20.7923 12.2402 20.7264 12.2563 20.6522C12.2725 20.5781 12.2614 20.5006 12.2252 20.434C12.1855 20.3641 12.1199 20.3129 12.0425 20.2915C11.9651 20.27 11.8823 20.2803 11.8124 20.3198C11.7457 20.3623 11.6972 20.428 11.6761 20.5042C11.655 20.5805 11.6629 20.6618 11.6983 20.7325C11.734 20.7928 11.7888 20.8394 11.8541 20.8649C11.9193 20.8903 11.9912 20.8932 12.0583 20.873L12.5413 21.716C12.4923 21.7445 12.4504 21.7834 12.4183 21.8301L11.6017 21.3471C11.6276 21.2934 11.6372 21.2334 11.6295 21.1743C11.6218 21.1152 11.597 21.0597 11.5582 21.0145C11.5194 20.9692 11.4682 20.9363 11.411 20.9197C11.3538 20.9031 11.2929 20.9036 11.236 20.921C11.179 20.9385 11.1283 20.9721 11.0902 21.0179C11.0521 21.0637 11.0281 21.1196 11.0212 21.1788C11.0144 21.238 11.025 21.2979 11.0516 21.3512C11.0783 21.4045 11.12 21.4488 11.1714 21.4788C11.2322 21.5123 11.3024 21.5245 11.3708 21.5133C11.4393 21.5022 11.502 21.4684 11.549 21.4174L12.3744 21.9004C12.3569 21.953 12.3481 22.0057 12.3305 22.0584L11.391 22.0585Z" fill="#364650"/>
<path d="M22.2049 21.9716C20.6948 20.7617 16.7817 22.1664 15.2032 22.8756C13.617 22.5878 11.9921 22.5861 10.4054 22.8707C8.81983 22.16 4.9213 20.7645 3.41465 21.9716C2.79465 22.4735 3.27683 23.2313 3.59178 23.5462C3.91397 23.9849 4.32089 24.3546 4.78843 24.6333C5.25597 24.912 5.77467 25.0942 6.31382 25.1689C6.31169 25.2855 6.32886 25.4015 6.36466 25.5124C6.61391 26.2379 6.95421 26.9288 7.37736 27.5686L7.37834 27.5716C7.67357 28.103 8.11647 28.5262 8.38218 28.5262L8.36509 28.5123L8.38218 28.514C8.36685 28.5023 8.35293 28.4905 8.33891 28.4787C8.37239 28.4886 8.4066 28.496 8.4412 28.5007C9.02183 28.5696 9.7894 27.3099 10.0552 26.8277C10.9502 26.601 11.868 26.4755 12.7911 26.4537C13.6947 26.4759 14.5928 26.6013 15.4679 26.8277C15.7336 27.3099 16.5405 28.5598 17.1408 28.5007C17.1754 28.496 17.2097 28.4886 17.2431 28.4787C17.2291 28.4905 17.2152 28.5023 17.1999 28.514L17.217 28.5123L17.1999 28.5262C17.4657 28.5262 17.879 28.1227 18.2037 27.5716L18.2048 27.5686C18.6279 26.9288 18.9682 26.2379 19.2174 25.5124C19.2531 25.4019 19.2703 25.2863 19.2683 25.1701C19.8148 25.1022 20.3415 24.9231 20.8161 24.6437C21.2907 24.3644 21.7032 23.9909 22.0279 23.5461C22.3427 23.2313 22.8249 22.4735 22.2049 21.9716ZM4.54637 23.7627C4.48812 23.8302 4.44839 23.9116 4.43101 23.999C4.41363 24.0864 4.41918 24.1768 4.44718 24.2614C4.28889 24.1195 4.12713 23.9569 3.95585 23.7726C3.89487 23.6678 3.85843 23.5506 3.84928 23.4297C3.84014 23.3089 3.85853 23.1875 3.90306 23.0748C3.94758 22.9621 4.0171 22.8609 4.10636 22.7789C4.19563 22.6969 4.30234 22.6362 4.41844 22.6014C5.50144 22.0644 8.55239 22.4114 10.0018 22.957C9.84284 22.9939 9.68481 23.0344 9.52763 23.0785C7.34238 22.537 4.91273 23.0563 4.54637 23.7627ZM5.97404 24.9931C5.59025 24.7274 5.59024 24.4715 5.78703 24.1763C6.22766 23.7552 6.76289 23.4459 7.34776 23.2744C7.93263 23.1029 8.55008 23.0741 9.14836 23.1906C8.6066 23.3644 8.07478 23.5679 7.55534 23.8001C6.6895 24.1798 6.34676 24.6649 6.3162 25.12C6.19288 25.109 6.07471 25.0652 5.97404 24.9931V24.9931ZM8.69358 28.338C8.60447 28.3906 8.49949 28.4094 8.39768 28.3909C8.29588 28.3725 8.20405 28.3181 8.13902 28.2376C8.10495 28.1719 8.08564 28.0996 8.08232 28.0256C8.11016 27.8489 8.18445 27.6827 8.29765 27.5442C8.41085 27.4056 8.5589 27.2996 8.72654 27.2371C9.11095 27.0679 9.5068 26.9261 9.91123 26.8128C9.61761 27.4015 9.20266 27.9213 8.69364 28.338H8.69358ZM16.886 28.338C16.3735 27.9264 15.9593 27.4056 15.6735 26.8136C16.0769 26.9268 16.4718 27.0683 16.8553 27.2371C17.023 27.2996 17.171 27.4056 17.2842 27.5441C17.3974 27.6827 17.4717 27.8489 17.4996 28.0256C17.4967 28.0948 17.4796 28.1626 17.4494 28.2249C17.3854 28.3092 17.2929 28.3672 17.1891 28.388C17.0854 28.4088 16.9776 28.3911 16.886 28.338H16.886ZM18.7941 26.3729C18.6302 26.7215 18.4471 27.0607 18.2457 27.3891C18.2725 26.9413 17.7706 26.4581 17.1998 26.2333C15.8151 25.6041 14.3118 25.2786 12.7909 25.2786C11.27 25.2786 9.76674 25.6041 8.38206 26.2333C7.81128 26.4581 7.30937 26.9413 7.33616 27.389C7.13475 27.0607 6.95166 26.7215 6.78776 26.3729C6.58111 25.871 7.14202 25.31 7.74235 25.0049C9.31194 24.2281 11.0396 23.824 12.7909 23.824C14.5422 23.824 16.2699 24.2281 17.8395 25.0049C18.4398 25.31 19.0008 25.871 18.7942 26.3729H18.7941ZM19.6454 24.9931C19.5341 25.0722 19.4021 25.1168 19.2657 25.1216C19.2358 24.6661 18.8933 24.1803 18.0265 23.8001C17.5104 23.5694 16.9822 23.367 16.4441 23.1938C17.0462 23.0734 17.6685 23.0998 18.2583 23.2708C18.8481 23.4418 19.3881 23.7524 19.8324 24.1763C20.0293 24.4715 20.0292 24.7274 19.6454 24.9931V24.9931ZM21.6636 23.7726C21.4923 23.9569 21.3306 24.1196 21.1722 24.2614C21.2002 24.1768 21.2058 24.0864 21.1885 23.999C21.1711 23.9116 21.1313 23.8302 21.0731 23.7627C20.7057 23.0541 18.2625 22.5337 16.0721 23.0833C15.9164 23.0396 15.76 22.9993 15.6028 22.9625C17.0462 22.4137 20.1144 22.0627 21.2011 22.6015C21.3172 22.6363 21.4238 22.6969 21.5131 22.7789C21.6024 22.8609 21.6719 22.9621 21.7164 23.0748C21.7609 23.1875 21.7793 23.3089 21.7702 23.4298C21.761 23.5506 21.7246 23.6678 21.6636 23.7726Z" fill="#364650"/>
<path d="M9.43805 24.7261L9.43182 24.7292L9.37891 25.411L9.53143 25.3674L9.54077 25.3643L9.547 25.2398L9.76184 25.1775L9.83344 25.2803L9.98907 25.2367L9.99841 25.2335L9.58752 24.6825L9.43805 24.7261ZM9.55322 25.1215L9.56256 24.8786L9.7027 25.0779L9.55322 25.1215Z" fill="#364650"/>
<path d="M10.6365 24.4271L10.6305 24.4301L10.7365 24.9351L10.5495 24.9751L10.4405 24.4681L10.2885 24.5021H10.2815L10.3905 25.0091L10.2005 25.0471L10.0955 24.5421L9.9425 24.5771H9.93652L10.0705 25.2021L10.9105 25.0251L10.9205 25.0221L10.7895 24.3961L10.6365 24.4271Z" fill="#364650"/>
<path d="M9.28247 25.2273L9.26691 25.1962L9.25452 25.1775L9.24512 25.1619C9.21799 25.1334 9.18354 25.1129 9.14551 25.1028C9.0919 25.0932 9.0366 25.0997 8.98669 25.1215L8.84351 25.1775L8.80304 25.0685L9.12372 24.944L9.08008 24.8257L8.6131 25.0063L8.60693 25.0094L8.83728 25.6071L9.12061 25.4981L9.12994 25.495C9.18415 25.4788 9.23202 25.4461 9.26697 25.4016C9.2885 25.3718 9.29945 25.3357 9.2981 25.2989C9.2981 25.2833 9.29498 25.2678 9.29498 25.2615L9.28247 25.2273ZM9.12372 25.3581C9.10103 25.3735 9.07709 25.3871 9.05212 25.3985L8.94312 25.439L8.88708 25.2865L8.99609 25.246L9.01788 25.2367L9.0459 25.2335C9.06276 25.231 9.07999 25.2331 9.0957 25.2398C9.112 25.2505 9.12497 25.2656 9.13306 25.2833C9.13797 25.2956 9.13969 25.3088 9.13806 25.3219C9.13643 25.335 9.13149 25.3474 9.12372 25.3581Z" fill="#364650"/>
<path d="M15.7924 24.6011L15.2695 24.4711L15.2634 24.4681L15.2314 24.5891L15.4185 24.6361L15.2944 25.1371L15.4434 25.1741L15.4495 25.1771L15.5775 24.6731L15.7645 24.7201L15.7924 24.6011Z" fill="#364650"/>
<path d="M15.1136 24.5642C15.101 24.523 15.0786 24.4856 15.0482 24.4552C14.9981 24.4152 14.9376 24.3903 14.8738 24.3836H14.8645C14.8215 24.374 14.7768 24.3746 14.7341 24.3854C14.6914 24.3963 14.6518 24.4169 14.6185 24.4458C14.5559 24.5101 14.5164 24.5933 14.5064 24.6825C14.4943 24.7261 14.4919 24.7719 14.4994 24.8165C14.507 24.8612 14.5243 24.9036 14.55 24.9409C14.5953 24.9924 14.6549 25.0292 14.7212 25.0467L14.7399 25.0498L14.7524 25.0529L14.7649 25.0561H14.771C14.8071 25.0617 14.8437 25.0628 14.88 25.0592C14.907 25.0585 14.9335 25.0521 14.9579 25.0405C14.9972 25.0207 15.0314 24.9919 15.0575 24.9564C15.07 24.9315 15.0824 24.916 15.0855 24.9066L15.0948 24.8786L15.098 24.8693L15.1042 24.86L14.9516 24.8351H14.9423L14.9361 24.8569L14.9236 24.8817C14.9099 24.8993 14.893 24.914 14.8738 24.9253C14.8646 24.9319 14.8539 24.9362 14.8427 24.9378C14.8273 24.935 14.8116 24.9339 14.796 24.9347C14.7898 24.9316 14.7773 24.9285 14.768 24.9253C14.7618 24.9253 14.7493 24.9191 14.7431 24.9191C14.7294 24.9102 14.7178 24.8985 14.7088 24.8849C14.6929 24.8623 14.6813 24.8369 14.6746 24.8101C14.6729 24.8019 14.6718 24.7936 14.6714 24.7852C14.6709 24.7717 14.672 24.7581 14.6746 24.7448L14.6808 24.7043C14.6879 24.6494 14.7082 24.597 14.74 24.5517C14.754 24.5346 14.7724 24.5216 14.7932 24.5139C14.814 24.5063 14.8364 24.5043 14.8583 24.5081C14.8738 24.5113 14.8925 24.5175 14.9049 24.5206C14.9146 24.5262 14.9231 24.5336 14.9298 24.5424C14.9442 24.5556 14.9559 24.5715 14.9641 24.5891L14.9673 24.6171C14.9698 24.6241 14.9708 24.6315 14.9703 24.6389L15.1136 24.6638H15.1229L15.1291 24.642L15.126 24.6202C15.1242 24.6011 15.12 24.5823 15.1136 24.5642Z" fill="#364650"/>
<path d="M11.6324 24.2711L11.4495 24.3031L11.2784 24.5921L11.2344 24.3311L10.8984 24.3831L10.9164 24.5051L11.1005 24.4771L11.1135 24.5551L11.1815 24.9871L11.3434 24.9631L11.2935 24.6641L11.5554 24.9281L11.7485 24.8971L11.4274 24.5981L11.6324 24.2711Z" fill="#364650"/>
<path d="M16.9034 24.9532L16.8165 25.1802L16.6085 25.1002L16.6954 24.8722L16.5485 24.8162H16.5424L16.3154 25.4142L16.4554 25.4672L16.4644 25.4732L16.5645 25.2152L16.7734 25.2962L16.6735 25.5512L16.8165 25.6072L16.8254 25.6102L17.0565 25.0122L16.9105 24.9562L16.9034 24.9532Z" fill="#364650"/>
<path d="M14.1361 24.284H14.1267C14.0799 24.2737 14.0312 24.2752 13.9851 24.2882C13.9389 24.3012 13.8967 24.3254 13.8622 24.3587C13.8094 24.4195 13.7748 24.4939 13.7625 24.5735C13.7528 24.6563 13.7692 24.7401 13.8092 24.8132L13.8061 24.8101C13.832 24.8504 13.8674 24.8837 13.9092 24.907C13.951 24.9304 13.9979 24.9431 14.0458 24.944H14.0551C14.101 24.9542 14.1487 24.9533 14.1942 24.9414C14.2397 24.9295 14.2817 24.9069 14.3167 24.8755C14.374 24.8153 14.4101 24.7381 14.4197 24.6555C14.4292 24.573 14.4116 24.4895 14.3696 24.4178C14.3443 24.3784 14.3098 24.3457 14.2692 24.3224C14.2286 24.2991 14.1829 24.2859 14.1361 24.284ZM14.2452 24.6327L14.242 24.6763C14.2368 24.6967 14.2295 24.7165 14.2202 24.7354C14.2051 24.7583 14.1885 24.7802 14.1704 24.8008H14.1673C14.1367 24.8199 14.1003 24.8276 14.0645 24.8226C14.0427 24.8206 14.0215 24.8142 14.0022 24.8039C13.9864 24.7968 13.9734 24.7848 13.9649 24.7696C13.9473 24.7414 13.9366 24.7094 13.9338 24.6763C13.9318 24.673 13.9304 24.6694 13.9299 24.6657C13.9294 24.6619 13.9296 24.6581 13.9306 24.6545V24.6358L13.9338 24.614L13.9369 24.5953C13.9388 24.5475 13.9539 24.5012 13.9805 24.4614C13.9994 24.4407 14.0228 24.4247 14.049 24.4147C14.0612 24.4109 14.0737 24.4078 14.0863 24.4054L14.1175 24.4085L14.1455 24.4147C14.1548 24.4147 14.1642 24.4241 14.1766 24.4303C14.2016 24.4467 14.222 24.4692 14.2358 24.4957C14.2528 24.5393 14.256 24.5871 14.2451 24.6327H14.2452Z" fill="#364650"/>
<path d="M16.0536 24.6762L16.0474 24.6731L15.6396 25.2241L15.7922 25.2677L15.8015 25.2708L15.8731 25.1681L16.088 25.2303L16.0942 25.3549L16.2498 25.3984L16.2592 25.4016L16.2031 24.7197L16.0536 24.6762ZM15.9385 25.0716L16.0786 24.8724L16.0911 25.1152L15.9385 25.0716Z" fill="#364650"/>
<path d="M12.0877 24.2342H12.0784C12.0309 24.233 11.9838 24.243 11.9411 24.2636C11.8983 24.2842 11.8611 24.3147 11.8324 24.3525C11.7887 24.4222 11.768 24.5039 11.7733 24.586C11.7761 24.6679 11.8056 24.7466 11.8573 24.8102H11.8542C11.8871 24.8446 11.9276 24.8707 11.9726 24.8864C12.0175 24.9021 12.0655 24.9069 12.1126 24.9005H12.1219C12.1691 24.9022 12.2161 24.8927 12.2589 24.8727C12.3017 24.8526 12.3391 24.8227 12.3679 24.7853C12.4147 24.7168 12.4367 24.6344 12.4302 24.5518C12.4276 24.4678 12.3956 24.3874 12.3399 24.3245C12.3085 24.2899 12.269 24.2636 12.2251 24.2479C12.1811 24.2321 12.1339 24.2274 12.0877 24.2342ZM12.2496 24.6639C12.2406 24.69 12.2269 24.7143 12.2091 24.7355H12.206C12.1937 24.7487 12.1788 24.7591 12.1621 24.7661C12.1455 24.7731 12.1276 24.7764 12.1095 24.7759C12.0886 24.7775 12.0675 24.7754 12.0473 24.7697C12.0303 24.7649 12.0151 24.7552 12.0037 24.7417C11.981 24.7171 11.9649 24.6871 11.9569 24.6546C11.9535 24.6489 11.9514 24.6425 11.9508 24.6359L11.9476 24.6172V24.5767C11.9404 24.5292 11.9469 24.4806 11.9663 24.4366C11.9819 24.4132 12.002 24.3931 12.0254 24.3775C12.0359 24.3711 12.0476 24.3668 12.0597 24.365L12.0908 24.3588L12.1189 24.3619C12.131 24.3609 12.1431 24.3642 12.1531 24.3712C12.1807 24.3831 12.2044 24.4025 12.2216 24.4272C12.2464 24.4662 12.2584 24.5119 12.2558 24.558L12.2589 24.6016C12.2581 24.6226 12.2549 24.6435 12.2496 24.6639Z" fill="#364650"/>
<path d="M13.1706 24.2222L13.1646 24.3462L13.3575 24.3592L13.3296 24.8722L13.4825 24.8822H13.4916L13.5196 24.3652L13.7096 24.3772L13.7186 24.2532L13.1776 24.2252L13.1706 24.2222Z" fill="#364650"/>
<path d="M13.009 24.2622C12.9872 24.2461 12.9631 24.2335 12.9374 24.2248C12.9127 24.2201 12.8878 24.217 12.8627 24.2155H12.8378L12.5389 24.2217H12.5327L12.5452 24.863L12.6977 24.8599H12.7071L12.7039 24.642L12.8441 24.6389H12.8939L12.9219 24.6326L12.953 24.6233C12.9872 24.6126 13.0175 24.592 13.0402 24.5641C13.0696 24.5236 13.0839 24.474 13.0806 24.424C13.0834 24.3932 13.0783 24.3622 13.0657 24.3339C13.0532 24.3055 13.0337 24.2809 13.009 24.2622ZM12.8876 24.4988C12.8632 24.5096 12.8366 24.515 12.8098 24.5143L12.7008 24.5175L12.6977 24.3431L12.8067 24.34C12.8349 24.3384 12.863 24.3449 12.8877 24.3587C12.8976 24.3671 12.9055 24.3777 12.9108 24.3895C12.9162 24.4013 12.9189 24.4142 12.9188 24.4272C12.9199 24.4407 12.9177 24.4544 12.9122 24.4669C12.9068 24.4794 12.8983 24.4903 12.8876 24.4988Z" fill="#364650"/>
</svg>
