<svg width="170" height="24" viewBox="0 0 170 24" fill="none" xmlns="http://www.w3.org/2000/svg">
<path d="M12.1319 17.1506C11.2515 17.1506 10.391 16.8895 9.65896 16.4004C8.92695 15.9113 8.3564 15.2161 8.01949 14.4028C7.68259 13.5894 7.59445 12.6944 7.7662 11.8309C7.93795 10.9675 8.36188 10.1743 8.9844 9.5518C9.60692 8.92927 10.4 8.50534 11.2635 8.33358C12.127 8.16183 13.022 8.24997 13.8354 8.58688C14.6487 8.92378 15.3439 9.49432 15.833 10.2263C16.3221 10.9583 16.5832 11.8189 16.5832 12.6993H14.3236C14.3236 12.2659 14.1951 11.8421 13.9542 11.4817C13.7134 11.1213 13.3711 10.8404 12.9707 10.6745C12.5702 10.5086 12.1295 10.4652 11.7044 10.5498C11.2792 10.6344 10.8887 10.8431 10.5822 11.1496C10.2757 11.4561 10.0669 11.8466 9.98238 12.2718C9.89782 12.6969 9.94126 13.1376 10.1071 13.538C10.273 13.9385 10.5539 14.2808 10.9143 14.5216C11.2747 14.7625 11.6985 14.891 12.1319 14.891V17.1506Z" fill="#AFABAB"/>
<path d="M6.79218 12.6993H4.61084C4.61309 10.7053 5.40619 8.79366 6.81616 7.38369C8.22613 5.97372 10.1378 5.1806 12.1318 5.17834V7.35969C10.7162 7.36128 9.35889 7.92436 8.35785 8.9254C7.35681 9.92643 6.79377 11.2837 6.79218 12.6993Z" fill="#364650"/>
<path d="M12.1318 23.3754V20.2397C14.131 20.2374 16.0476 19.4422 17.4612 18.0286C18.8748 16.615 19.6699 14.6985 19.6722 12.6993H22.8079C22.8047 15.5298 21.6789 18.2434 19.6774 20.2449C17.676 22.2463 14.9623 23.3722 12.1318 23.3754Z" fill="#AFABAB"/>
<path d="M8.64569 20.8808C6.64847 20.0297 5.03143 18.4776 4.09912 16.517L7.30054 14.9952C7.86194 16.1751 8.8354 17.1089 10.0375 17.6207L8.64569 20.8808Z" fill="#364650"/>
<path d="M23.6234 12.6994H19.6697C19.6674 10.7009 18.8725 8.78494 17.4594 7.37182C16.0463 5.95869 14.1303 5.16381 12.1318 5.16155V1.20789C15.1785 1.21134 18.0995 2.42315 20.2538 4.57747C22.4081 6.73179 23.6199 9.65269 23.6234 12.6994Z" fill="#364650"/>
<path d="M12.1315 23.4003C9.29441 23.397 6.57452 22.2686 4.56842 20.2625C2.56232 18.2564 1.43386 15.5364 1.43066 12.6993H2.5213C2.52417 15.2472 3.5376 17.69 5.33923 19.4916C7.14087 21.2933 9.58363 22.3067 12.1315 22.3096L12.1315 23.4003Z" fill="#AFABAB"/>
<path d="M1.49963 12.6994H0C0.00364192 9.48294 1.28296 6.3993 3.55731 4.12495C5.83167 1.85059 8.91529 0.571266 12.1317 0.567627V2.06729C9.31289 2.07048 6.61046 3.19167 4.61725 5.18488C2.62404 7.17808 1.50283 9.88054 1.49963 12.6994Z" fill="#AFABAB"/>
<path d="M16.963 10.4033C16.4016 9.22354 15.4282 8.28979 14.2261 7.77795L15.6179 4.51794C17.6152 5.36902 19.2322 6.92112 20.1644 8.88181L16.963 10.4033Z" fill="#AFABAB"/>
<path d="M14.5895 18.2007L13.1436 14.9643C13.6969 14.7167 14.1406 14.2752 14.391 13.7231L17.6173 15.1914C17.009 16.5303 15.9321 17.6006 14.5895 18.2007Z" fill="#364650"/>
<path d="M32.0367 2.26318H32.8756V6.63974H32.0367V4.70063H29.952V6.63976H29.1191V2.26318H29.952V4.0138H32.0368L32.0367 2.26318Z" fill="#364650"/>
<path d="M36.941 6.63976L36.5582 5.55165H34.7042L34.3212 6.63976H33.458L35.1298 2.26318H36.1387L37.8104 6.63974L36.941 6.63976ZM34.9291 4.91342H36.3333L35.7194 3.15666L35.6342 2.87099L35.549 3.15065L34.9291 4.91342Z" fill="#364650"/>
<path d="M42.0455 5.95293H42.6411V7.82504H41.8937V6.63976H38.3984V2.26318H39.231V5.95293H41.2066V2.26318H42.0455V5.95293Z" fill="#364650"/>
<path d="M43.2627 6.63976V2.26318H44.053V5.57594L44.2596 5.25993L46.3506 2.26318H47.1407V6.63974H46.3506V3.32687L46.1683 3.61266L44.053 6.63976H43.2627Z" fill="#364650"/>
<path d="M51.6044 6.11082C51.1787 6.50547 50.6197 6.72475 50.0392 6.72475C49.4587 6.72475 48.8996 6.50547 48.4739 6.11082C48.0741 5.65573 47.868 5.06244 47.8994 4.4575C47.8666 3.84922 48.0715 3.25199 48.4708 2.79192C48.8976 2.39721 49.4576 2.17798 50.039 2.17798C50.6204 2.17798 51.1804 2.39721 51.6073 2.79192C52.0066 3.25199 52.2114 3.84922 52.1786 4.4575C52.2101 5.06239 52.004 5.65563 51.6044 6.11082ZM50.0453 6.03793C50.2193 6.04516 50.3926 6.01121 50.551 5.93885C50.7094 5.86649 50.8485 5.75776 50.957 5.6215C51.1985 5.28325 51.3165 4.87232 51.2912 4.4575C51.3154 4.03995 51.1976 3.6265 50.957 3.28436C50.8447 3.15129 50.7047 3.04429 50.5469 2.97079C50.389 2.89729 50.217 2.85906 50.0429 2.85876C49.8688 2.85847 49.6966 2.89611 49.5385 2.96906C49.3804 3.04202 49.24 3.14854 49.1272 3.28123C48.8858 3.62413 48.7679 4.03885 48.7928 4.4575C48.7676 4.87235 48.8857 5.28328 49.1272 5.6215C49.2367 5.75827 49.3769 5.86727 49.5364 5.93964C49.696 6.012 49.8703 6.04568 50.0453 6.03793Z" fill="#364650"/>
<path d="M55.8517 2.26318H56.6906V6.63974H55.8517V4.70063H53.7667V6.63976H52.9341V2.26318H53.7667V4.0138H55.8517V2.26318Z" fill="#364650"/>
<path d="M60.7562 6.63976L60.3732 5.55165H58.5191L58.1361 6.63976H57.2729L58.9447 2.26318H59.9537L61.6254 6.63974L60.7562 6.63976ZM58.7441 4.91342H60.1483L59.5344 3.15666L59.4492 2.87099L59.364 3.15065L58.7441 4.91342Z" fill="#364650"/>
<path d="M61.9922 6.63976V5.94065C62.0619 5.94324 62.1314 5.93134 62.1963 5.90571C62.2612 5.88008 62.3201 5.84127 62.3692 5.79174C62.4784 5.67387 62.565 5.53685 62.6245 5.38758C62.7988 4.85891 62.899 4.30863 62.9222 3.75243L63.0437 2.26318H65.8641V6.63974H65.0253V2.93787H63.8097L63.7428 3.78286C63.7112 4.38975 63.603 4.99021 63.4207 5.56993C63.324 5.90977 63.1244 6.2113 62.8494 6.43309C62.5953 6.59699 62.2931 6.66985 61.9922 6.63976Z" fill="#364650"/>
<path d="M68.5084 3.98338C69.0041 3.94833 69.4984 4.06952 69.9218 4.32993C70.0681 4.45052 70.1861 4.60178 70.2675 4.77303C70.3489 4.94427 70.3917 5.1313 70.3929 5.32091C70.3941 5.51051 70.3536 5.69806 70.2743 5.87029C70.195 6.04253 70.0788 6.19524 69.934 6.31763C69.5013 6.56406 69.005 6.67619 68.5084 6.63976H66.8369V2.26318H67.6695V3.98338H68.5084ZM68.5084 6.00153C68.7827 6.02202 69.0571 5.96292 69.2986 5.83131C69.3817 5.773 69.4482 5.69424 69.4919 5.60266C69.5355 5.51108 69.5548 5.40978 69.5479 5.30856C69.5479 4.84656 69.2014 4.61556 68.5084 4.61556H67.6695V6.00148L68.5084 6.00153Z" fill="#364650"/>
<path d="M73.9733 2.26318H74.8121V6.63974H73.9733V4.70063H71.8883V6.63976H71.0557V2.26318H71.8883V4.0138H73.9733V2.26318Z" fill="#364650"/>
<path d="M77.4561 3.98338C77.9519 3.94833 78.4462 4.06952 78.8695 4.32993C79.0158 4.45052 79.1339 4.60179 79.2153 4.77303C79.2967 4.94427 79.3395 5.1313 79.3407 5.32091C79.3419 5.51051 79.3013 5.69806 79.222 5.87029C79.1428 6.04253 79.0266 6.19524 78.8818 6.31763C78.449 6.56406 77.9528 6.67619 77.4561 6.63976H75.7847V2.26318H76.6173V3.98338H77.4561ZM77.4561 6.00153C77.7304 6.02202 78.0048 5.96292 78.2464 5.83131C78.3294 5.773 78.396 5.69424 78.4397 5.60266C78.4834 5.51108 78.5026 5.40978 78.4957 5.30856C78.4957 4.84656 78.1491 4.61556 77.4561 4.61556H76.6173V6.00148L77.4561 6.00153ZM80.0154 2.26318H80.842V6.63974H80.0154V2.26318Z" fill="#364650"/>
<path d="M81.8203 6.63972V2.26315H82.6105V5.5759L82.8172 5.2599L84.9083 2.26315H85.6982V6.63971H84.9083V3.32684L84.7259 3.61263L82.6105 6.63972H81.8203ZM84.5798 1.54272C84.3523 1.73323 84.0618 1.83189 83.7653 1.81938C83.4665 1.83108 83.1741 1.73141 82.9447 1.53971C82.8378 1.44603 82.753 1.32989 82.6963 1.19959C82.6396 1.06929 82.6123 0.92806 82.6166 0.786011H83.2305C83.2356 0.952741 83.2978 1.11266 83.4069 1.23888C83.4527 1.29012 83.5089 1.33099 83.5718 1.35876C83.6347 1.38654 83.7028 1.40057 83.7715 1.39994C83.8399 1.4007 83.9075 1.38671 83.9699 1.35892C84.0323 1.33112 84.088 1.29017 84.1331 1.23888C84.2396 1.11222 84.2968 0.951438 84.2943 0.786011H84.9142C84.9152 0.928633 84.886 1.06985 84.8283 1.2003C84.7707 1.33076 84.686 1.44749 84.5798 1.54277V1.54272Z" fill="#364650"/>
<path d="M91.7647 5.95293H92.3604V7.82504H91.6129V6.63976H88.1177V2.26318H88.9503V5.95293H90.9258V2.26318H91.7647V5.95293Z" fill="#364650"/>
<path d="M96.088 2.95001H93.8146V4.0624H95.9664V4.68248H93.8146V5.95293H96.088V6.63976H92.9819V2.26318H96.088V2.95001Z" fill="#364650"/>
<path d="M99.8371 2.26318H100.676V6.63974H99.837V4.70063H97.752V6.63976H96.9194V2.26318H97.752V4.0138H99.837L99.8371 2.26318Z" fill="#364650"/>
<path d="M104.795 2.26318V2.95H103.458V6.63974H102.619V2.95001H101.288V2.26318H104.795Z" fill="#364650"/>
<path d="M107.079 2.2632C107.582 2.22223 108.085 2.33795 108.52 2.59446C108.674 2.72215 108.795 2.88538 108.872 3.07013C108.95 3.25488 108.981 3.45563 108.964 3.65513C108.964 4.57913 108.335 5.0411 107.079 5.04104H106.24V6.63975H105.408V2.2632H107.079ZM107.079 4.39681C107.772 4.39681 108.119 4.14757 108.119 3.64911C108.126 3.5439 108.107 3.43845 108.064 3.34236C108.02 3.24627 107.954 3.16259 107.869 3.09893C107.63 2.961 107.355 2.89854 107.079 2.91971H106.24V4.39681H107.079Z" fill="#364650"/>
<path d="M32.0187 9.5575V10.2443H29.952V13.9341H29.1191V9.5575H32.0187Z" fill="#364650"/>
<path d="M36.0336 13.4053C35.6079 13.7999 35.0489 14.0192 34.4684 14.0192C33.8879 14.0192 33.3288 13.7999 32.9031 13.4053C32.5033 12.9501 32.2972 12.3568 32.3286 11.7518C32.2958 11.1435 32.5007 10.5463 32.9 10.0862C33.3269 9.69151 33.8869 9.47229 34.4684 9.47229C35.0498 9.47229 35.6099 9.69151 36.0368 10.0862C36.436 10.5464 36.6408 11.1435 36.6081 11.7518C36.6396 12.3568 36.4334 12.9501 36.0336 13.4053ZM34.4745 13.3324C34.6486 13.3396 34.8218 13.3057 34.9803 13.2333C35.1387 13.161 35.2778 13.0522 35.3863 12.9159C35.6278 12.5777 35.7459 12.1667 35.7207 11.7518C35.7448 11.3342 35.6269 10.9208 35.3863 10.5787C35.274 10.4456 35.134 10.3386 34.9761 10.2651C34.8183 10.1916 34.6462 10.1534 34.4721 10.1531C34.298 10.1528 34.1258 10.1904 33.9677 10.2634C33.8096 10.3363 33.6693 10.4429 33.5565 10.5755C33.3151 10.9185 33.1973 11.3332 33.2223 11.7518C33.1971 12.1667 33.315 12.5776 33.5565 12.9159C33.666 13.0527 33.8061 13.1617 33.9656 13.234C34.1251 13.3064 34.2995 13.3401 34.4745 13.3324Z" fill="#364650"/>
<path d="M39.2965 14.0192C39.01 14.0336 38.7237 13.9866 38.4569 13.8813C38.19 13.7759 37.9489 13.6147 37.7496 13.4084C37.353 12.9528 37.1491 12.3609 37.1811 11.7578C37.1486 11.1492 37.3523 10.5515 37.7496 10.0893C37.9479 9.88136 38.1888 9.71858 38.4557 9.61209C38.7226 9.5056 39.0094 9.45791 39.2965 9.47227C39.7341 9.44715 40.1671 9.57285 40.5233 9.82838C40.8795 10.0839 41.1373 10.4539 41.2537 10.8765L40.4331 11.1014C40.3846 10.8358 40.2441 10.5958 40.0362 10.4235C39.8283 10.2512 39.5664 10.1576 39.2965 10.1592C39.124 10.152 38.9524 10.1867 38.7962 10.2602C38.6401 10.3338 38.5041 10.4441 38.3998 10.5817C38.1643 10.9269 38.05 11.3406 38.0748 11.7578C38.0502 12.1698 38.1658 12.5781 38.403 12.9159C38.508 13.0515 38.6439 13.16 38.7993 13.2324C38.9547 13.3048 39.1251 13.3391 39.2965 13.3323C39.5526 13.3378 39.802 13.2503 39.9987 13.086C40.2082 12.9013 40.3592 12.6594 40.4331 12.39L41.2537 12.6209C41.1317 13.0327 40.8814 13.3947 40.5394 13.6544C40.1757 13.9079 39.7394 14.0359 39.2965 14.0192Z" fill="#364650"/>
<path d="M42.4009 14.0131C42.2283 14.0171 42.056 13.9946 41.8902 13.9462V13.2714C42.0485 13.3014 42.2092 13.3177 42.3704 13.32C42.5283 13.3267 42.6834 13.2772 42.8082 13.1802C42.8664 13.1291 42.912 13.0651 42.9415 12.9935C42.971 12.9218 42.9836 12.8443 42.9783 12.7669C42.9658 12.5867 42.9117 12.4119 42.8202 12.2562L41.416 9.55737H42.3098L43.5193 12.08L44.6437 9.55737H45.5312L44.0118 12.7121C43.853 13.0874 43.624 13.4289 43.337 13.7181C43.0722 13.9289 42.7387 14.034 42.4009 14.0131Z" fill="#364650"/>
<path d="M49.3282 13.2472H49.8995V14.8947H49.1701V13.9341H46.0579V14.8947H45.3345V13.2472H45.7661C45.9554 12.9355 46.0979 12.5975 46.1888 12.2443C46.2833 11.8511 46.3432 11.4504 46.368 11.0467L46.4712 9.5575H49.3282V13.2472ZM47.2312 10.2322L47.1826 11.0467C47.1575 11.8065 46.984 12.5541 46.6719 13.2472H48.5076V10.2322L47.2312 10.2322Z" fill="#364650"/>
<path d="M53.7767 13.9341L53.3937 12.846H51.5396L51.1566 13.9341H50.2935L51.9652 9.5575H52.9742L54.6459 13.9341H53.7767ZM51.7646 12.2077H53.1688L52.5549 10.451L52.4697 10.1653L52.3845 10.445L51.7646 12.2077Z" fill="#364650"/>
<path d="M56.9059 9.55751C57.4088 9.51654 57.9121 9.63226 58.3467 9.88877C58.5009 10.0165 58.6219 10.1797 58.6992 10.3644C58.7764 10.5492 58.8077 10.7499 58.7903 10.9494C58.7903 11.8734 58.1621 12.3354 56.9059 12.3354H56.067V13.934H55.2344V9.55751H56.9059ZM56.9059 11.6911C57.599 11.6911 57.9455 11.4419 57.9454 10.9434C57.953 10.8382 57.9342 10.7328 57.8907 10.6367C57.8472 10.5406 57.7803 10.4569 57.6962 10.3932C57.4568 10.2553 57.1813 10.1929 56.9059 10.214H56.067V11.6911H56.9059Z" fill="#364650"/>
<path d="M61.4268 14.0192C61.1403 14.0336 60.854 13.9866 60.5872 13.8813C60.3204 13.7759 60.0793 13.6147 59.8799 13.4084C59.4834 12.9528 59.2795 12.3609 59.3115 11.7578C59.279 11.1492 59.4826 10.5515 59.8799 10.0893C60.0783 9.88136 60.3191 9.71858 60.5861 9.61209C60.853 9.5056 61.1398 9.45791 61.4268 9.47227C61.8645 9.44715 62.2974 9.57285 62.6536 9.82838C63.0098 10.0839 63.2676 10.4539 63.384 10.8765L62.5635 11.1014C62.515 10.8358 62.3744 10.5958 62.1666 10.4235C61.9587 10.2512 61.6968 10.1576 61.4268 10.1592C61.2544 10.152 61.0827 10.1867 60.9266 10.2603C60.7704 10.3338 60.6345 10.4441 60.5302 10.5817C60.2946 10.9269 60.1802 11.3406 60.205 11.7578C60.1804 12.1699 60.2961 12.5781 60.5333 12.9159C60.6383 13.0515 60.7742 13.16 60.9296 13.2324C61.085 13.3048 61.2555 13.3391 61.4268 13.3323C61.683 13.3378 61.9324 13.2503 62.129 13.086C62.3386 12.9013 62.4896 12.6594 62.5635 12.39L63.384 12.6209C63.262 13.0327 63.0118 13.3947 62.6698 13.6544C62.3061 13.9079 61.8698 14.0359 61.4268 14.0192Z" fill="#364650"/>
<path d="M67.2333 9.5575V10.2443H65.8962V13.9341H65.0574V10.2443H63.7261V9.5575H67.2333Z" fill="#364650"/>
<path d="M70.4224 11.6667C70.7148 11.6836 70.9921 11.8018 71.2067 12.0011C71.3043 12.0988 71.3806 12.2157 71.4308 12.3444C71.4811 12.4731 71.5041 12.6108 71.4985 12.7488C71.4985 13.5391 70.8704 13.9342 69.6141 13.9341H67.8452V9.55753H69.5532C70.0184 9.52289 70.4838 9.61976 70.8965 9.83706C71.0362 9.93283 71.1483 10.0634 71.2219 10.2159C71.2955 10.3684 71.328 10.5375 71.3161 10.7064C71.3212 10.8283 71.3021 10.95 71.2598 11.0644C71.2175 11.1789 71.1529 11.2838 71.0698 11.3731C70.9866 11.4624 70.8866 11.5344 70.7755 11.5848C70.6644 11.6352 70.5444 11.663 70.4224 11.6667ZM69.535 10.1775H68.6658V11.381H69.5652C70.2097 11.381 70.5319 11.1825 70.5319 10.7854C70.5319 10.3802 70.1996 10.1776 69.535 10.1775ZM69.5958 13.3081C70.2968 13.3081 70.6473 13.0873 70.6473 12.6456C70.6473 12.1835 70.2847 11.9524 69.5593 11.9525H68.6658V13.3081H69.5958Z" fill="#364650"/>
<path d="M75.337 10.2443H73.0636V11.3567H75.2155V11.9768H73.0636V13.2472H75.337V13.9341H72.231V9.5575H75.337V10.2443Z" fill="#364650"/>
<path d="M79.0861 9.5575H79.9249V13.9341H79.0861V11.9949H77.001V13.9341H76.1685V9.5575H77.001V11.3081H79.0861V9.5575Z" fill="#364650"/>
<path d="M83.8156 9.5575H84.6544V13.9341H83.8156V11.9949H81.7305V13.9341H80.8979V9.5575H81.7305V11.3081H83.8156V9.5575Z" fill="#364650"/>
<path d="M89.1117 13.4053C88.686 13.7999 88.127 14.0192 87.5465 14.0192C86.966 14.0192 86.407 13.7999 85.9813 13.4053C85.5815 12.9501 85.3753 12.3568 85.4067 11.7518C85.3739 11.1435 85.5788 10.5463 85.9781 10.0862C86.405 9.69152 86.965 9.47229 87.5464 9.47229C88.1278 9.47229 88.6878 9.69152 89.1147 10.0862C89.514 10.5463 89.7188 11.1435 89.686 11.7518C89.7174 12.3567 89.5113 12.95 89.1117 13.4053ZM87.5527 13.3324C87.7267 13.3396 87.8999 13.3057 88.0583 13.2333C88.2168 13.1609 88.3559 13.0522 88.4644 12.9159C88.7059 12.5776 88.8238 12.1667 88.7985 11.7518C88.8227 11.3343 88.705 10.9208 88.4644 10.5787C88.3521 10.4456 88.2121 10.3386 88.0543 10.2651C87.8964 10.1916 87.7244 10.1534 87.5502 10.1531C87.3761 10.1528 87.204 10.1904 87.0459 10.2634C86.8878 10.3363 86.7474 10.4429 86.6346 10.5756C86.3932 10.9185 86.2752 11.3332 86.3002 11.7518C86.275 12.1667 86.3931 12.5777 86.6346 12.9159C86.7441 13.0527 86.8842 13.1617 87.0438 13.2341C87.2033 13.3064 87.3777 13.3401 87.5527 13.3324Z" fill="#364650"/>
<path d="M90.3315 11.9341V11.3688H92.4285V11.9341H90.3315Z" fill="#364650"/>
<path d="M95.779 9.5575H96.6178V13.9403H95.779V12.0983C95.445 12.2969 95.0613 12.3961 94.6728 12.3841C94.2432 12.4033 93.8201 12.2733 93.4753 12.0162C93.3167 11.8805 93.1923 11.7093 93.1121 11.5167C93.0319 11.324 92.998 11.1151 93.0134 10.907V9.5575H93.8522V10.8218C93.8402 10.9445 93.8556 11.0684 93.8971 11.1845C93.9386 11.3006 94.0053 11.4061 94.0923 11.4935C94.3049 11.6453 94.5642 11.7174 94.8246 11.6971C95.1729 11.713 95.5142 11.5956 95.779 11.3689V9.5575Z" fill="#364650"/>
<path d="M100.686 13.9341L100.303 12.846H98.4493L98.0663 13.9341H97.2031L98.8749 9.5575H99.8838L101.556 13.9341H100.686ZM98.6743 12.2077H100.078L99.4645 10.451L99.3793 10.1653L99.2942 10.445L98.6743 12.2077Z" fill="#364650"/>
<path d="M103.852 14.0192C103.566 14.0336 103.279 13.9866 103.013 13.8813C102.746 13.7759 102.505 13.6147 102.305 13.4084C101.909 12.9528 101.705 12.3609 101.737 11.7578C101.704 11.1492 101.908 10.5515 102.305 10.0893C102.504 9.88136 102.744 9.71858 103.011 9.61209C103.278 9.5056 103.565 9.45791 103.852 9.47227C104.29 9.44715 104.723 9.57285 105.079 9.82838C105.435 10.0839 105.693 10.4539 105.809 10.8765L104.989 11.1014C104.94 10.8358 104.8 10.5958 104.592 10.4235C104.384 10.2512 104.122 10.1576 103.852 10.1592C103.68 10.152 103.508 10.1867 103.352 10.2602C103.196 10.3338 103.06 10.4441 102.955 10.5817C102.72 10.9269 102.605 11.3406 102.63 11.7578C102.606 12.1699 102.721 12.5781 102.959 12.9159C103.064 13.0515 103.199 13.16 103.355 13.2324C103.51 13.3048 103.681 13.3391 103.852 13.3323C104.108 13.3378 104.358 13.2503 104.554 13.086C104.764 12.9013 104.915 12.6594 104.989 12.39L105.809 12.6209C105.687 13.0327 105.437 13.3947 105.095 13.6544C104.731 13.9079 104.295 14.0359 103.852 14.0192Z" fill="#364650"/>
<path d="M109.658 9.5575V10.2443H108.321V13.9341H107.482V10.2443H106.151V9.5575H109.658Z" fill="#364650"/>
<path d="M113.188 9.5575H114.027V13.9341H113.188V11.9949H111.103V13.9341H110.271V9.5575H111.103V11.3081H113.188V9.5575Z" fill="#364650"/>
<path d="M118.484 13.4053C118.059 13.7999 117.499 14.0192 116.919 14.0192C116.339 14.0192 115.779 13.7999 115.354 13.4053C114.954 12.9501 114.748 12.3568 114.779 11.7518C114.746 11.1435 114.951 10.5463 115.351 10.0862C115.778 9.69152 116.337 9.47229 116.919 9.47229C117.5 9.47229 118.06 9.69152 118.487 10.0862C118.886 10.5463 119.091 11.1435 119.059 11.7518C119.09 12.3567 118.884 12.95 118.484 13.4053ZM116.925 13.3324C117.099 13.3396 117.272 13.3057 117.431 13.2333C117.589 13.1609 117.728 13.0522 117.837 12.9159C118.078 12.5776 118.196 12.1667 118.171 11.7518C118.195 11.3343 118.077 10.9208 117.837 10.5787C117.725 10.4456 117.585 10.3386 117.427 10.2651C117.269 10.1916 117.097 10.1534 116.923 10.1531C116.749 10.1528 116.577 10.1904 116.418 10.2634C116.26 10.3363 116.12 10.4429 116.007 10.5756C115.766 10.9185 115.648 11.3332 115.673 11.7518C115.648 12.1667 115.766 12.5777 116.007 12.9159C116.117 13.0527 116.257 13.1617 116.416 13.2341C116.576 13.3064 116.75 13.3401 116.925 13.3324Z" fill="#364650"/>
<path d="M122.714 9.5575V10.2443H120.647V13.9341H119.814V9.5575H122.714Z" fill="#364650"/>
<path d="M126.729 13.4053C126.303 13.7999 125.744 14.0192 125.164 14.0192C124.583 14.0192 124.024 13.7999 123.598 13.4053C123.199 12.9501 122.992 12.3568 123.024 11.7518C122.991 11.1435 123.196 10.5463 123.595 10.0862C124.022 9.69152 124.582 9.47229 125.164 9.47229C125.745 9.47229 126.305 9.69152 126.732 10.0862C127.131 10.5463 127.336 11.1435 127.303 11.7518C127.335 12.3567 127.129 12.95 126.729 13.4053ZM125.17 13.3324C125.344 13.3396 125.517 13.3057 125.676 13.2333C125.834 13.1609 125.973 13.0522 126.082 12.9159C126.323 12.5776 126.441 12.1667 126.416 11.7518C126.44 11.3343 126.322 10.9208 126.082 10.5787C125.969 10.4456 125.829 10.3386 125.671 10.2651C125.514 10.1916 125.342 10.1534 125.167 10.1531C124.993 10.1528 124.821 10.1904 124.663 10.2634C124.505 10.3363 124.365 10.4429 124.252 10.5756C124.01 10.9185 123.892 11.3332 123.917 11.7518C123.892 12.1667 124.01 12.5777 124.252 12.9159C124.361 13.0527 124.501 13.1617 124.661 13.2341C124.82 13.3064 124.995 13.3401 125.17 13.3324Z" fill="#364650"/>
<path d="M32.8756 16.8519V21.2284H32.0367V17.5387H29.952V21.2284H29.1191V16.8519H32.8756Z" fill="#364650"/>
<path d="M36.941 21.2284L36.5582 20.1403H34.7042L34.3212 21.2284H33.458L35.1297 16.8519H36.1387L37.8104 21.2284H36.941ZM34.9291 19.502H36.3333L35.7194 17.7454L35.6342 17.4596L35.549 17.7394L34.9291 19.502Z" fill="#364650"/>
<path d="M40.0699 16.852C40.5728 16.8109 41.0762 16.9267 41.5107 17.1832C41.665 17.3109 41.786 17.4741 41.8632 17.6589C41.9405 17.8436 41.9717 18.0444 41.9543 18.2439C41.9543 19.1679 41.3261 19.6299 40.0699 19.6298H39.231V21.2284H38.3984V16.852H40.0699ZM40.0699 18.9856C40.763 18.9856 41.1095 18.7363 41.1094 18.2379C41.117 18.1327 41.0982 18.0272 41.0547 17.9311C41.0112 17.835 40.9443 17.7514 40.8602 17.6877C40.6208 17.5498 40.3453 17.4873 40.0699 17.5085H39.231V18.9856H40.0699Z" fill="#364650"/>
<path d="M45.8749 16.8519V17.5387H44.5378V21.2284H43.699V17.5387H42.3677V16.8519H45.8749Z" fill="#364650"/>
<path d="M49.4049 16.8519H50.2438V21.2284H49.4049V19.2894H47.3199V21.2284H46.4873V16.8519H47.3199V18.6025H49.4049V16.8519Z" fill="#364650"/>
<path d="M54.3223 17.5388H52.049V18.6512H54.2009V19.2712H52.049V20.5417H54.3223V21.2285H51.2163V16.8521H54.3223V17.5388Z" fill="#364650"/>
<path d="M56.8258 16.852C57.3288 16.8109 57.8321 16.9267 58.2666 17.1832C58.4209 17.3109 58.5418 17.4741 58.6191 17.6589C58.6963 17.8436 58.7276 18.0444 58.7102 18.2439C58.7102 19.1679 58.0821 19.6299 56.8258 19.6298H55.9869V21.2284H55.1543V16.852H56.8258ZM56.8258 18.9856C57.5189 18.9856 57.8654 18.7363 57.8653 18.2379C57.8729 18.1327 57.8541 18.0272 57.8106 17.9311C57.7671 17.835 57.7002 17.7514 57.6161 17.6877C57.3767 17.5498 57.1013 17.4873 56.8258 17.5085H55.9869V18.9856H56.8258Z" fill="#364650"/>
<path d="M61.3468 21.3135C61.0603 21.3279 60.774 21.2809 60.5072 21.1756C60.2403 21.0702 59.9992 20.909 59.7999 20.7027C59.4033 20.2471 59.1994 19.6552 59.2314 19.0521C59.1989 18.4435 59.4025 17.8459 59.7999 17.3838C59.9982 17.1758 60.239 17.013 60.506 16.9065C60.7729 16.8 61.0597 16.7523 61.3468 16.7667C61.7844 16.7416 62.2174 16.8673 62.5736 17.1228C62.9297 17.3783 63.1875 17.7483 63.304 18.1709L62.4834 18.3958C62.4349 18.1302 62.2944 17.8902 62.0866 17.7178C61.8787 17.5455 61.6168 17.4519 61.3468 17.4535C61.1743 17.4463 61.0026 17.481 60.8465 17.5545C60.6904 17.6281 60.5543 17.7384 60.4501 17.876C60.2145 18.2212 60.1001 18.6349 60.1249 19.0521C60.1003 19.4641 60.216 19.8724 60.4533 20.2102C60.5583 20.3458 60.6941 20.4543 60.8495 20.5267C61.0049 20.5991 61.1754 20.6334 61.3468 20.6266C61.6029 20.6321 61.8523 20.5446 62.049 20.3803C62.2585 20.1956 62.4095 19.9537 62.4834 19.6843L63.304 19.9152C63.1819 20.3269 62.9317 20.689 62.5897 20.9487C62.226 21.2022 61.7897 21.3302 61.3468 21.3135Z" fill="#364650"/>
<path d="M67.1528 16.8519V17.5387H65.8157V21.2284H64.9769V17.5387H63.6455V16.8519H67.1528Z" fill="#364650"/>
<path d="M70.3424 18.961C70.6347 18.9779 70.912 19.0962 71.1266 19.2954C71.2243 19.3931 71.3006 19.51 71.3508 19.6387C71.4011 19.7674 71.4241 19.9051 71.4185 20.0431C71.4185 20.8334 70.7903 21.2285 69.5341 21.2284H67.7651V16.852H69.4731C69.9383 16.8173 70.4038 16.9142 70.8165 17.1315C70.9561 17.2272 71.0682 17.3578 71.1418 17.5103C71.2154 17.6627 71.248 17.8318 71.2361 18.0007C71.2412 18.1226 71.222 18.2443 71.1797 18.3587C71.1374 18.4732 71.0729 18.5781 70.9897 18.6674C70.9066 18.7568 70.8066 18.8287 70.6955 18.8791C70.5844 18.9295 70.4644 18.9573 70.3424 18.961ZM69.455 17.4719H68.5858V18.6755H69.4852C70.1297 18.6755 70.4519 18.4769 70.4518 18.0798C70.4518 17.6746 70.1196 17.472 69.455 17.4719ZM69.5158 20.6024C70.2167 20.6024 70.5672 20.3816 70.5673 19.9399C70.5673 19.4778 70.2046 19.2467 69.4792 19.2468H68.5858V20.6024H69.5158Z" fill="#364650"/>
<path d="M75.1912 21.2284L74.8082 20.1403H72.9542L72.5712 21.2284H71.708L73.3797 16.8519H74.3887L76.0604 21.2284H75.1912ZM73.1791 19.502H74.5833L73.9694 17.7454L73.8842 17.4596L73.7991 17.7394L73.1791 19.502Z" fill="#364650"/>
<path d="M169.58 11.325H140.653V13.0216H169.58V11.325Z" fill="#364650"/>
<path d="M140.653 23.2656H142.423V21.3441H152.555V14.7152H140.653V23.2656ZM142.423 16.4119H150.785V19.6488H142.423V16.4119Z" fill="#364650"/>
<path d="M154.287 21.3441H160.992V23.2656H162.839V21.3441H169.58V14.7152H154.287V21.3441ZM162.839 16.4119H167.81V19.6488H162.839V16.4119ZM156.059 16.4119H160.992V19.6488H156.059V16.4119Z" fill="#364650"/>
<path d="M167.168 2.34152H169.109V0.68103H160.814V9.60723H166.322C168.673 9.60723 169.643 8.42517 169.643 6.83323C169.643 5.26038 168.741 4.10117 166.378 4.10117H162.767V2.34152H167.168ZM166.378 5.75107C167.281 5.75107 167.625 6.26421 167.625 6.85591C167.625 7.44615 167.281 7.94667 166.378 7.94667H162.767V5.75107H166.378Z" fill="#364650"/>
<path d="M155.198 7.94599H150.962V9.60792H155.379C156.55 9.58944 157.668 9.11106 158.49 8.27602C159.312 7.44097 159.772 6.31621 159.772 5.14448C159.772 3.97274 159.312 2.84798 158.49 2.01293C157.668 1.17788 156.55 0.699507 155.379 0.68103H150.962V2.34152H155.198V2.34595C155.776 2.33211 156.34 2.52499 156.788 2.88988C157.237 3.25477 157.54 3.76771 157.644 4.33641H151.918V5.95303H157.645C157.541 6.52229 157.238 7.03592 156.789 7.40133C156.341 7.76674 155.776 7.9599 155.198 7.94599Z" fill="#364650"/>
<path d="M149.589 3.1319C149.589 1.66151 148.609 0.68103 146.256 0.68103H140.661V9.60723H146.602C148.954 9.60723 149.923 8.52572 149.923 7.03268C149.955 6.57823 149.833 6.12628 149.576 5.75C149.319 5.37372 148.943 5.09512 148.508 4.95932C148.852 4.8001 149.14 4.54011 149.333 4.21378C149.526 3.88744 149.615 3.51016 149.589 3.1319ZM142.613 2.34152H146.323C146.48 2.3185 146.64 2.32995 146.792 2.37508C146.944 2.42022 147.084 2.49795 147.203 2.60286C147.322 2.70777 147.416 2.83733 147.48 2.98252C147.544 3.12771 147.575 3.28503 147.571 3.44352C147.571 4.00272 147.226 4.44887 146.323 4.44887H142.613L142.613 2.34152ZM146.658 7.95803H142.613V5.80832H146.658C147.571 5.80832 147.907 6.29891 147.907 6.87643C147.907 7.45811 147.571 7.95803 146.658 7.95803Z" fill="#364650"/>
<path d="M134.315 0.68103H133.736V23.2655H134.315V0.68103Z" fill="#364650"/>
</svg>
