<svg width="159" height="23" viewBox="0 0 159 23" fill="none" xmlns="http://www.w3.org/2000/svg">
<path d="M66.6375 2.26333C67.1403 2.22234 67.6436 2.33806 68.078 2.59459C68.2323 2.72224 68.3533 2.88545 68.4307 3.07021C68.508 3.25497 68.5393 3.45573 68.5219 3.65526C68.5219 4.57926 67.8937 5.04123 66.6375 5.04117H65.7986V6.63988H64.9658V2.26333H66.6375ZM66.6375 4.39694C67.3304 4.39694 67.6769 4.1477 67.6769 3.64924C67.6845 3.54403 67.6656 3.43858 67.6221 3.34249C67.5785 3.2464 67.5117 3.16272 67.4276 3.09906C67.1883 2.96115 66.9129 2.89868 66.6375 2.91984H65.7986V4.39694H66.6375Z" fill="#364650"/>
<path d="M72.7483 6.11093C72.3226 6.50558 71.7636 6.72486 71.1831 6.72486C70.6026 6.72486 70.0436 6.50558 69.6179 6.11093C69.2181 5.65584 69.012 5.06255 69.0434 4.45762C69.0107 3.84933 69.2155 3.2521 69.6147 2.79203C70.0416 2.39733 70.6017 2.1781 71.1831 2.1781C71.7645 2.1781 72.3246 2.39733 72.7515 2.79203C73.1507 3.25214 73.3555 3.84934 73.3227 4.45762C73.3542 5.06255 73.1481 5.65584 72.7483 6.11093ZM71.1892 6.03804C71.3632 6.04531 71.5365 6.01139 71.6949 5.93903C71.8534 5.86666 71.9925 5.75791 72.1009 5.62161C72.3425 5.2834 72.4605 4.87247 72.4353 4.45761C72.4594 4.04004 72.3416 3.62658 72.1009 3.28448C71.9886 3.15141 71.8486 3.04441 71.6908 2.97092C71.5329 2.89742 71.361 2.85919 71.1869 2.85889C71.0127 2.8586 70.8406 2.89623 70.6825 2.96918C70.5244 3.04214 70.384 3.14866 70.2712 3.28134C70.0298 3.62426 69.912 4.03898 69.937 4.45761C69.9117 4.87245 70.0297 5.28338 70.2712 5.62161C70.3807 5.75836 70.5209 5.86734 70.6804 5.9397C70.8399 6.01207 71.0142 6.04576 71.1892 6.03804Z" fill="#364650"/>
<path d="M76.0111 6.72484C75.7246 6.73931 75.4385 6.69228 75.1717 6.58693C74.9049 6.48158 74.6638 6.32033 74.4646 6.11404C74.0679 5.65862 73.8639 5.06672 73.896 4.46361C73.8634 3.85496 74.0671 3.25725 74.4646 2.79515C74.6629 2.58719 74.9036 2.42442 75.1705 2.31793C75.4374 2.21144 75.7241 2.16374 76.0111 2.17808C76.4487 2.15296 76.8818 2.27866 77.238 2.53419C77.5942 2.78973 77.8519 3.15966 77.9683 3.58229L77.148 3.80722C77.0995 3.54158 76.959 3.30152 76.7511 3.12922C76.5431 2.95691 76.2811 2.86338 76.0111 2.86503C75.8386 2.85783 75.667 2.89249 75.5108 2.96606C75.3547 3.03962 75.2187 3.1499 75.1145 3.28747C74.8789 3.63273 74.7647 4.04639 74.7895 4.46361C74.7648 4.8756 74.8805 5.2838 75.1176 5.6216C75.2226 5.75714 75.3585 5.86564 75.5139 5.93807C75.6693 6.0105 75.8397 6.04478 76.0111 6.03804C76.2672 6.04354 76.5167 5.95607 76.7133 5.79181C76.9229 5.60708 77.074 5.36519 77.148 5.09582L77.9683 5.32676C77.8463 5.73846 77.5961 6.10048 77.2541 6.36013C76.8904 6.61353 76.454 6.74156 76.0111 6.72484Z" fill="#364650"/>
<path d="M80.5836 6.72484C80.2971 6.73933 80.0108 6.69232 79.744 6.58697C79.4772 6.48161 79.236 6.32035 79.0367 6.11404C78.6401 5.65854 78.4363 5.06669 78.4682 4.46361C78.4357 3.85499 78.6394 3.25733 79.0367 2.79515C79.235 2.58717 79.4758 2.42439 79.7427 2.3179C80.0097 2.21141 80.2965 2.16372 80.5836 2.17808C81.0212 2.15296 81.4542 2.27866 81.8104 2.53419C82.1666 2.78973 82.4244 3.15966 82.5408 3.58229L81.7202 3.80722C81.6716 3.54162 81.5312 3.3016 81.3233 3.1293C81.1154 2.957 80.8536 2.86343 80.5836 2.86503C80.4111 2.85783 80.2395 2.89249 80.0833 2.96605C79.9272 3.03962 79.7912 3.1499 79.687 3.28747C79.4513 3.6327 79.3369 4.04636 79.3616 4.46361C79.337 4.87563 79.4528 5.28383 79.69 5.6216C79.795 5.75716 79.9308 5.86567 80.0862 5.93811C80.2417 6.01054 80.4122 6.04481 80.5836 6.03804C80.8397 6.04345 81.089 5.95599 81.2857 5.79181C81.4953 5.60713 81.6463 5.36521 81.7202 5.09581L82.5408 5.32676C82.4188 5.73846 82.1685 6.10048 81.8265 6.36013C81.4628 6.61355 81.0265 6.74158 80.5836 6.72484Z" fill="#364650"/>
<path d="M83.207 6.63988V2.26331H83.9973V5.57606L84.204 5.26006L86.2949 2.26331H87.085V6.63986H86.2949V3.32699L86.1125 3.61279L83.9973 6.63988H83.207Z" fill="#364650"/>
<path d="M88.0635 6.63985V2.26328H88.8538V5.57603L89.0604 5.26003L91.1515 2.26328H91.9414V6.63983H91.1515V3.32696L90.9691 3.61275L88.8538 6.63985H88.0635ZM90.823 1.54285C90.5954 1.73335 90.3049 1.83202 90.0084 1.8195C89.7097 1.8312 89.4173 1.73153 89.1879 1.53983C89.081 1.44616 88.9962 1.33001 88.9395 1.19971C88.8827 1.06942 88.8555 0.928181 88.8597 0.786133H89.4738C89.4788 0.952861 89.541 1.11278 89.65 1.23901C89.6959 1.29024 89.7522 1.33111 89.8151 1.35889C89.878 1.38666 89.946 1.40069 90.0148 1.40006C90.0831 1.40083 90.1507 1.38684 90.2131 1.35904C90.2755 1.33124 90.3312 1.2903 90.3763 1.23901C90.4828 1.11234 90.5399 0.95156 90.5375 0.786133H91.1575C91.1585 0.928754 91.1292 1.06996 91.0715 1.20042C91.0139 1.33087 90.9291 1.4476 90.823 1.54289V1.54285Z" fill="#364650"/>
<path d="M94.8155 6.72484C94.529 6.73933 94.2427 6.69232 93.9759 6.58697C93.7091 6.48161 93.4679 6.32036 93.2686 6.11404C92.8721 5.65854 92.6682 5.06669 92.7001 4.46361C92.6677 3.85499 92.8713 3.25733 93.2686 2.79515C93.467 2.58717 93.7079 2.42439 93.9748 2.3179C94.2417 2.21141 94.5285 2.16372 94.8155 2.17808C95.2531 2.15296 95.6862 2.27866 96.0424 2.53419C96.3986 2.78973 96.6563 3.15966 96.7728 3.58229L95.9522 3.80722C95.9037 3.54162 95.7631 3.3016 95.5552 3.1293C95.3474 2.957 95.0855 2.86344 94.8155 2.86503C94.643 2.85782 94.4714 2.89248 94.3153 2.96605C94.1591 3.03961 94.0231 3.1499 93.9189 3.28747C93.6833 3.63269 93.5689 4.04636 93.5937 4.46361C93.5691 4.87563 93.6848 5.28383 93.9221 5.6216C94.0271 5.75716 94.1629 5.86567 94.3183 5.93811C94.4737 6.01054 94.6442 6.04481 94.8155 6.03804C95.0716 6.04345 95.3211 5.95599 95.5178 5.79181C95.7273 5.60713 95.8783 5.36521 95.9522 5.09582L96.7728 5.32676C96.6508 5.73846 96.4006 6.10048 96.0585 6.36013C95.6948 6.61355 95.2585 6.74157 94.8155 6.72484Z" fill="#364650"/>
<path d="M100.198 6.63988L98.9095 4.67046H98.259V6.63988H97.4385V2.26331H98.259V4.01994H98.8973L100.101 2.26331H101.037L99.5415 4.31789L101.128 6.63988L100.198 6.63988Z" fill="#364650"/>
<path d="M104.975 6.63988L104.593 5.55177H102.738L102.355 6.63988H101.492L103.164 2.26331H104.173L105.845 6.63986L104.975 6.63988ZM102.963 4.91354H104.368L103.754 3.15678L103.668 2.87111L103.583 3.15077L102.963 4.91354Z" fill="#364650"/>
<path d="M110.004 2.26325V6.63981H109.177V4.94391H108.32C108.265 4.94464 108.21 4.9426 108.156 4.93778L107.195 6.63979H106.277L107.384 4.81014C107.103 4.72597 106.857 4.55584 106.679 4.32382C106.523 4.10579 106.442 3.84368 106.447 3.57612C106.434 3.38622 106.468 3.19592 106.547 3.02276C106.626 2.8496 106.748 2.69917 106.9 2.58534C107.32 2.34042 107.804 2.22815 108.289 2.26325H110.004ZM108.289 4.31169H109.177V2.91364H108.289C107.625 2.91364 107.292 3.14057 107.292 3.59445C107.286 3.69417 107.303 3.79396 107.342 3.88617C107.38 3.97838 107.439 4.06055 107.514 4.12635C107.745 4.27246 108.017 4.33767 108.289 4.3117V4.31169Z" fill="#364650"/>
<path d="M115.444 6.63988L115.061 5.55177H113.207L112.824 6.63988H111.96L113.632 2.26331H114.641L116.313 6.63986L115.444 6.63988ZM113.432 4.91354H114.836L114.222 3.15678L114.137 2.87111L114.052 3.15077L113.432 4.91354Z" fill="#364650"/>
<path d="M118.609 6.72484C118.322 6.73933 118.036 6.69232 117.769 6.58697C117.503 6.48161 117.261 6.32036 117.062 6.11404C116.666 5.65854 116.462 5.06669 116.494 4.46361C116.461 3.85499 116.665 3.25733 117.062 2.79515C117.26 2.58717 117.501 2.42439 117.768 2.3179C118.035 2.21141 118.322 2.16372 118.609 2.17808C119.047 2.15296 119.48 2.27866 119.836 2.53419C120.192 2.78973 120.45 3.15966 120.566 3.58229L119.746 3.80722C119.697 3.54162 119.557 3.3016 119.349 3.1293C119.141 2.957 118.879 2.86344 118.609 2.86503C118.437 2.85782 118.265 2.89248 118.109 2.96605C117.953 3.03961 117.817 3.1499 117.712 3.28747C117.477 3.63269 117.362 4.04636 117.387 4.46361C117.363 4.87563 117.478 5.28383 117.716 5.6216C117.821 5.75716 117.956 5.86567 118.112 5.93811C118.267 6.01054 118.438 6.04481 118.609 6.03804C118.865 6.04345 119.115 5.95599 119.311 5.79181C119.521 5.60713 119.672 5.36521 119.746 5.09582L120.566 5.32676C120.444 5.73846 120.194 6.10048 119.852 6.36013C119.488 6.61355 119.052 6.74157 118.609 6.72484Z" fill="#364650"/>
<path d="M123.182 6.72484C122.896 6.73933 122.609 6.69232 122.343 6.58697C122.076 6.48161 121.835 6.32036 121.635 6.11404C121.239 5.65854 121.035 5.06669 121.067 4.46361C121.034 3.85499 121.238 3.25733 121.635 2.79515C121.834 2.58717 122.075 2.42439 122.341 2.3179C122.608 2.21141 122.895 2.16372 123.182 2.17808C123.62 2.15296 124.053 2.27866 124.409 2.53419C124.765 2.78973 125.023 3.15966 125.139 3.58229L124.319 3.80722C124.27 3.54162 124.13 3.3016 123.922 3.1293C123.714 2.957 123.452 2.86344 123.182 2.86503C123.01 2.85782 122.838 2.89248 122.682 2.96605C122.526 3.03961 122.39 3.1499 122.286 3.28747C122.05 3.63269 121.936 4.04636 121.96 4.46361C121.936 4.87563 122.052 5.28383 122.289 5.6216C122.394 5.75716 122.53 5.86567 122.685 5.93811C122.84 6.01054 123.011 6.04481 123.182 6.03804C123.438 6.04345 123.688 5.95599 123.884 5.79181C124.094 5.60713 124.245 5.36521 124.319 5.09582L125.139 5.32676C125.017 5.73846 124.767 6.10048 124.425 6.36013C124.062 6.61355 123.625 6.74157 123.182 6.72484Z" fill="#364650"/>
<path d="M129.342 6.11094C128.916 6.50559 128.357 6.72487 127.776 6.72487C127.196 6.72487 126.637 6.50559 126.211 6.11094C125.811 5.65585 125.605 5.06256 125.637 4.45763C125.604 3.84934 125.809 3.25211 126.208 2.79204C126.635 2.39733 127.195 2.1781 127.776 2.1781C128.358 2.1781 128.918 2.39733 129.345 2.79204C129.744 3.25211 129.949 3.84934 129.916 4.45763C129.947 5.06251 129.741 5.65575 129.342 6.11094ZM127.783 6.03805C127.957 6.04528 128.13 6.01133 128.288 5.93897C128.447 5.86661 128.586 5.75788 128.694 5.62162C128.936 5.28337 129.054 4.87244 129.028 4.45762C129.053 4.04007 128.935 3.62662 128.694 3.28448C128.582 3.15141 128.442 3.04441 128.284 2.97091C128.126 2.89741 127.954 2.85919 127.78 2.85889C127.606 2.85859 127.434 2.89623 127.276 2.96918C127.118 3.04214 126.977 3.14866 126.865 3.28135C126.623 3.62425 126.505 4.03897 126.53 4.45762C126.505 4.87247 126.623 5.2834 126.865 5.62162C126.974 5.75839 127.114 5.8674 127.274 5.93976C127.433 6.01212 127.608 6.0458 127.783 6.03805Z" fill="#364650"/>
<path d="M134.307 5.95306H134.903V7.82516H134.155V6.63988H130.66V2.26331H131.493V5.95305H133.468V2.26331H134.307V5.95306Z" fill="#364650"/>
<path d="M135.524 6.63988V2.26331H136.314V5.57606L136.521 5.26006L138.612 2.26331H139.402V6.63986H138.612V3.32699L138.43 3.61279L136.314 6.63988H135.524Z" fill="#364650"/>
<path d="M143.473 6.63988L143.09 5.55177H141.236L140.853 6.63988H139.99L141.662 2.26331H142.671L144.343 6.63986L143.473 6.63988ZM141.461 4.91354H142.865L142.252 3.15678L142.166 2.87111L142.081 3.15077L141.461 4.91354Z" fill="#364650"/>
<path d="M148.578 5.95306H149.174V7.82516H148.426V6.63988H144.931V2.26331H145.764V5.95305H147.739V2.26331H148.578L148.578 5.95306Z" fill="#364650"/>
<path d="M149.795 6.63988V2.26331H150.586V5.57606L150.792 5.26006L152.883 2.26331H153.673V6.63986H152.883V3.32699L152.701 3.61279L150.586 6.63988H149.795Z" fill="#364650"/>
<path d="M158.059 2.26325V6.63981H157.232V4.94391H156.375C156.321 4.94464 156.266 4.9426 156.211 4.93778L155.251 6.63979H154.333L155.439 4.81014C155.159 4.72597 154.912 4.55584 154.734 4.32382C154.579 4.10579 154.498 3.84368 154.503 3.57612C154.489 3.38622 154.524 3.19592 154.603 3.02276C154.682 2.8496 154.803 2.69917 154.956 2.58534C155.376 2.34043 155.86 2.22815 156.345 2.26325H158.059ZM156.345 4.31169H157.232V2.91364H156.345C155.68 2.91364 155.348 3.14057 155.348 3.59445C155.342 3.69417 155.359 3.79396 155.397 3.88617C155.436 3.97838 155.495 4.06054 155.57 4.12635C155.8 4.27246 156.073 4.33767 156.345 4.3117V4.31169Z" fill="#364650"/>
<path d="M67.5431 11.6668C67.8354 11.6837 68.1126 11.8019 68.3271 12.0012C68.4248 12.0989 68.5013 12.2158 68.5515 12.3445C68.6017 12.4732 68.6247 12.6109 68.619 12.7489C68.619 13.5389 67.9909 13.934 66.7346 13.9342H64.9658V9.55764H66.6738C67.139 9.52303 67.6045 9.61989 68.0172 9.83717C68.1568 9.93294 68.269 10.0635 68.3425 10.216C68.4161 10.3685 68.4486 10.5376 68.4366 10.7065C68.4418 10.8284 68.4226 10.9501 68.3804 11.0645C68.3381 11.179 68.2735 11.2839 68.1904 11.3733C68.1073 11.4626 68.0072 11.5345 67.8961 11.5849C67.785 11.6353 67.665 11.6631 67.5431 11.6668ZM66.6556 10.1776H65.7864V11.3811H66.686C67.3304 11.3811 67.6525 11.1826 67.6525 10.7855C67.6525 10.3803 67.3203 10.1777 66.6556 10.1776ZM66.7164 13.308C67.4174 13.308 67.7679 13.0871 67.7679 12.6455C67.7679 12.1836 67.4053 11.9526 66.6799 11.9526H65.7864V13.308H66.7164Z" fill="#364650"/>
<path d="M72.8415 13.4051C72.4159 13.7998 71.8568 14.019 71.2764 14.019C70.6959 14.019 70.1369 13.7998 69.7112 13.4051C69.3114 12.9501 69.1053 12.3568 69.1367 11.7519C69.1039 11.1436 69.3087 10.5464 69.708 10.0863C70.1349 9.69164 70.6949 9.47241 71.2764 9.47241C71.8578 9.47241 72.4178 9.69164 72.8447 10.0863C73.2439 10.5464 73.4489 11.1437 73.4161 11.7519C73.4476 12.3568 73.2413 12.9501 72.8415 13.4051ZM71.2825 13.3322C71.4565 13.3395 71.6298 13.3056 71.7882 13.2332C71.9466 13.1608 72.0857 13.0521 72.1942 12.9158C72.4358 12.5776 72.5538 12.1667 72.5286 11.7519C72.5527 11.3344 72.4349 10.9209 72.1942 10.5788C72.0819 10.4457 71.9419 10.3387 71.784 10.2652C71.6262 10.1917 71.4543 10.1535 71.2801 10.1532C71.106 10.1529 70.9339 10.1905 70.7757 10.2635C70.6176 10.3365 70.4774 10.443 70.3646 10.5757C70.1232 10.9186 70.0053 11.3333 70.0303 11.7519C70.005 12.1667 70.1231 12.5776 70.3646 12.9158C70.474 13.0525 70.6142 13.1615 70.7737 13.2339C70.9332 13.3063 71.1075 13.34 71.2825 13.3323V13.3322Z" fill="#364650"/>
<path d="M77.6898 13.2474H78.2612V14.8945H77.5317V13.9342H74.4196V14.8945H73.6963V13.2474H74.1277C74.3171 12.9355 74.4595 12.5975 74.5504 12.2442C74.6449 11.851 74.7049 11.4504 74.7296 11.0469L74.8329 9.55762H77.6898V13.2474ZM75.5929 10.2323L75.5443 11.0469C75.5192 11.8066 75.3457 12.5542 75.0336 13.2474H76.8693V10.2323L75.5929 10.2323Z" fill="#364650"/>
<path d="M82.2827 13.4051C81.857 13.7998 81.2979 14.0191 80.7174 14.0191C80.1369 14.0191 79.5778 13.7998 79.1521 13.4051C78.7523 12.9501 78.5462 12.3568 78.5776 11.7519C78.5448 11.1436 78.7498 10.5464 79.149 10.0863C79.5759 9.69164 80.1359 9.47241 80.7173 9.47241C81.2987 9.47241 81.8586 9.69164 82.2855 10.0863C82.6848 10.5464 82.8897 11.1436 82.8569 11.7519C82.8883 12.3568 82.6823 12.95 82.2827 13.4051ZM80.7235 13.3322C80.8975 13.3395 81.0708 13.3055 81.2292 13.2332C81.3877 13.1608 81.5269 13.0521 81.6354 12.9158C81.8768 12.5776 81.9948 12.1667 81.9695 11.7519C81.9937 11.3344 81.8759 10.9209 81.6354 10.5788C81.523 10.4457 81.383 10.3387 81.2251 10.2652C81.0672 10.1917 80.8953 10.1535 80.7212 10.1532C80.547 10.1529 80.3749 10.1905 80.2168 10.2635C80.0587 10.3365 79.9183 10.443 79.8055 10.5757C79.5641 10.9186 79.4462 11.3333 79.4712 11.7519C79.446 12.1668 79.564 12.5776 79.8055 12.9158C79.915 13.0526 80.0552 13.1616 80.2147 13.234C80.3742 13.3063 80.5485 13.34 80.7235 13.3323V13.3322Z" fill="#364650"/>
<path d="M85.545 14.019C85.2585 14.0335 84.9722 13.9865 84.7054 13.8811C84.4386 13.7758 84.1974 13.6145 83.9981 13.4082C83.6016 12.9528 83.3977 12.361 83.4296 11.7579C83.3972 11.1493 83.6008 10.5516 83.9981 10.0895C84.1965 9.88147 84.4374 9.71869 84.7043 9.6122C84.9712 9.50572 85.258 9.45803 85.545 9.47239C85.9826 9.44727 86.4156 9.57297 86.7718 9.8285C87.128 10.084 87.3858 10.454 87.5023 10.8766L86.6817 11.1015C86.6332 10.8359 86.4926 10.5959 86.2847 10.4236C86.0769 10.2513 85.815 10.1577 85.545 10.1593C85.3725 10.1521 85.2009 10.1868 85.0447 10.2604C84.8886 10.3339 84.7526 10.4442 84.6484 10.5818C84.4127 10.927 84.2984 11.3407 84.3232 11.7579C84.2986 12.1699 84.4143 12.578 84.6516 12.9158C84.7565 13.0513 84.8924 13.1598 85.0478 13.2323C85.2032 13.3047 85.3737 13.339 85.545 13.3322C85.8011 13.3376 86.0505 13.2502 86.2473 13.0861C86.4568 12.9014 86.6078 12.6595 86.6817 12.3901L87.5023 12.621C87.3803 13.0327 87.1301 13.3947 86.788 13.6543C86.4243 13.9077 85.988 14.0357 85.545 14.019Z" fill="#364650"/>
<path d="M91.0856 9.55762H91.9244V13.9342H91.0856V11.9951H89.0006V13.9342H88.168V9.55762H89.0006V11.3082H91.0856V9.55762Z" fill="#364650"/>
<path d="M95.9901 13.9342L95.6072 12.8461H93.7531L93.37 13.9342H92.5068L94.1786 9.55762H95.1876L96.8593 13.9342H95.9901ZM93.978 12.2078H95.3822L94.7683 10.4511L94.6831 10.1654L94.5979 10.4451L93.978 12.2078Z" fill="#364650"/>
<path d="M99.1193 11.3021C100.376 11.3021 101.004 11.7398 101.004 12.6151C101.019 12.8063 100.987 12.9984 100.908 13.1737C100.83 13.349 100.71 13.5018 100.557 13.618C100.119 13.8631 99.6192 13.9731 99.1193 13.9341H97.4478V9.55762H100.627V10.2444H98.2804V11.3021H99.1193ZM99.1193 13.296C99.8124 13.296 100.159 13.071 100.159 12.6211C100.159 12.1593 99.8123 11.9283 99.1193 11.9281H98.2804V13.2959L99.1193 13.296Z" fill="#364650"/>
<path d="M106.547 13.9342L105.337 11.9648H104.76V13.9342H103.951V11.9648H103.368L102.158 13.9342H101.228L102.699 11.6122L101.319 9.55762H102.261L103.374 11.3142H103.951V9.55764H104.76V11.3143H105.331L106.449 9.55769H107.392L106.012 11.6123L107.483 13.9343L106.547 13.9342Z" fill="#364650"/>
<path d="M111.177 10.2444H108.904V11.3568H111.056V11.9769H108.904V13.2474H111.177V13.9342H108.071V9.55762H111.177V10.2444Z" fill="#364650"/>
<path d="M114.926 9.55762H115.765V13.9342H114.926V11.9951H112.841V13.9342H112.009V9.55762H112.841V11.3082H114.926V9.55762Z" fill="#364650"/>
<path d="M116.738 13.9342V9.55762H117.528V12.8704L117.735 12.5543L119.826 9.55762H120.616V13.9342H119.826V10.6213L119.643 10.9071L117.528 13.9342L116.738 13.9342Z" fill="#364650"/>
<path d="M125.002 9.55756V13.9341H124.175V12.2381H123.318C123.245 12.2381 123.19 12.236 123.154 12.2321L122.193 13.9341H121.275L122.382 12.1045C122.102 12.0203 121.855 11.8502 121.677 11.6182C121.522 11.4001 121.441 11.138 121.446 10.8705C121.432 10.6806 121.466 10.4903 121.545 10.3171C121.624 10.1439 121.746 9.99351 121.899 9.87968C122.318 9.63475 122.803 9.52247 123.287 9.55756H125.002ZM123.287 11.606H124.175V10.2079H123.287C122.623 10.2079 122.29 10.4349 122.291 10.8888C122.285 10.9885 122.301 11.0883 122.34 11.1805C122.378 11.2727 122.437 11.3548 122.512 11.4207C122.743 11.5668 123.016 11.632 123.287 11.606Z" fill="#364650"/>
<path d="M64.9658 21.2285V16.8518H65.756V20.1647L65.9626 19.8486L68.0537 16.8518H68.844V21.2285H68.0537V17.9156L67.8713 18.2014L65.756 21.2285H64.9658Z" fill="#364650"/>
<path d="M73.8403 18.9611C74.1327 18.978 74.4101 19.0963 74.6248 19.2955C74.7224 19.3933 74.7986 19.5102 74.8488 19.6389C74.8989 19.7675 74.9219 19.9052 74.9163 20.0432C74.9163 20.8332 74.2881 21.2283 73.0319 21.2285H71.2632V16.8518H72.9711C73.4362 16.8172 73.9017 16.9141 74.3143 17.1314C74.454 17.2271 74.5662 17.3578 74.6398 17.5103C74.7134 17.6628 74.7458 17.8319 74.7339 18.0008C74.739 18.1227 74.7199 18.2444 74.6776 18.3589C74.6353 18.4733 74.5708 18.5782 74.4877 18.6675C74.4046 18.7569 74.3045 18.8288 74.1934 18.8792C74.0822 18.9296 73.9623 18.9575 73.8403 18.9611ZM72.9529 17.4718H72.0837V18.6753H72.9833C73.6276 18.6753 73.9499 18.4768 73.9498 18.0797C73.9498 17.6745 73.6175 17.4719 72.9529 17.4718ZM73.0138 20.6023C73.7147 20.6023 74.0652 20.3815 74.0652 19.9398C74.0652 19.4779 73.7025 19.247 72.9772 19.247H72.0836V20.6023L73.0138 20.6023Z" fill="#364650"/>
<path d="M79.1392 20.6994C78.7135 21.0941 78.1543 21.3134 77.5738 21.3134C76.9934 21.3134 76.4342 21.0941 76.0085 20.6994C75.6087 20.2444 75.4026 19.6512 75.4341 19.0463C75.4013 18.4379 75.6062 17.8407 76.0055 17.3805C76.4324 16.9858 76.9923 16.7666 77.5737 16.7666C78.1551 16.7666 78.7151 16.9858 79.142 17.3805C79.5413 17.8407 79.7462 18.4379 79.7134 19.0463C79.7448 19.6511 79.5388 20.2443 79.1392 20.6994ZM77.5799 20.6266C77.754 20.6338 77.9273 20.5998 78.0857 20.5275C78.2441 20.4551 78.3832 20.3464 78.4917 20.2101C78.7332 19.8719 78.8512 19.461 78.8259 19.0463C78.8501 18.6287 78.7323 18.2152 78.4917 17.873C78.3794 17.7399 78.2394 17.6329 78.0815 17.5594C77.9237 17.4859 77.7516 17.4477 77.5775 17.4474C77.4034 17.4471 77.2314 17.4847 77.0732 17.5577C76.9151 17.6307 76.7748 17.7372 76.662 17.8699C76.4205 18.2128 76.3026 18.6276 76.3275 19.0463C76.3023 19.4611 76.4204 19.872 76.662 20.2101C76.7714 20.3469 76.9115 20.4559 77.071 20.5283C77.2306 20.6006 77.405 20.6343 77.5799 20.6266Z" fill="#364650"/>
<path d="M83.9873 20.5417H84.5587V22.1888H83.8293V21.2285H80.717V22.1888H79.9937V20.5417H80.4253C80.6147 20.2298 80.757 19.8918 80.8479 19.5385C80.9424 19.1454 81.0023 18.7447 81.0271 18.3412L81.1304 16.8518H83.9873V20.5417ZM81.8904 17.5266L81.8418 18.3412C81.8166 19.101 81.6431 19.8485 81.3311 20.5417H83.1669V17.5266H81.8904Z" fill="#364650"/>
<path d="M88.5796 20.6994C88.1539 21.0941 87.5948 21.3134 87.0143 21.3134C86.4338 21.3134 85.8748 21.0941 85.4491 20.6994C85.0493 20.2444 84.843 19.6512 84.8745 19.0463C84.8417 18.4379 85.0466 17.8407 85.4459 17.3805C85.8728 16.9858 86.4328 16.7666 87.0142 16.7666C87.5955 16.7666 88.1556 16.9858 88.5825 17.3805C88.9818 17.8407 89.1866 18.4379 89.1538 19.0463C89.1852 19.6511 88.9792 20.2443 88.5796 20.6994ZM87.0205 20.6265C87.1945 20.6338 87.3677 20.5998 87.5261 20.5275C87.6845 20.4551 87.8238 20.3464 87.9322 20.2101C88.1737 19.8719 88.2916 19.461 88.2664 19.0463C88.2905 18.6287 88.1728 18.2152 87.9322 17.873C87.8199 17.7399 87.68 17.6329 87.5221 17.5594C87.3642 17.4859 87.1922 17.4477 87.0181 17.4474C86.8439 17.4471 86.6718 17.4847 86.5137 17.5577C86.3555 17.6306 86.2152 17.7372 86.1024 17.8699C85.861 18.2128 85.7431 18.6276 85.7681 19.0463C85.7428 19.4611 85.8609 19.8719 86.1024 20.2101C86.2119 20.3469 86.3521 20.4559 86.5116 20.5283C86.6711 20.6006 86.8455 20.6343 87.0205 20.6265Z" fill="#364650"/>
<path d="M93.4321 20.6994C93.0064 21.0941 92.4473 21.3134 91.8668 21.3134C91.2863 21.3134 90.7273 21.0941 90.3016 20.6994C89.9018 20.2444 89.6956 19.6512 89.727 19.0463C89.6942 18.4379 89.8992 17.8407 90.2985 17.3805C90.7253 16.9858 91.2853 16.7666 91.8667 16.7666C92.4481 16.7666 93.0082 16.9858 93.4351 17.3805C93.8343 17.8407 94.0392 18.4379 94.0063 19.0463C94.0378 19.6511 93.8317 20.2443 93.4321 20.6994ZM91.873 20.6266C92.0471 20.6338 92.2203 20.5998 92.3788 20.5275C92.5372 20.4551 92.6763 20.3464 92.7848 20.2101C93.0263 19.8719 93.1442 19.461 93.1189 19.0463C93.1431 18.6287 93.0253 18.2152 92.7848 17.873C92.6725 17.7399 92.5325 17.6329 92.3746 17.5594C92.2168 17.4859 92.0447 17.4477 91.8706 17.4474C91.6965 17.4471 91.5243 17.4847 91.3662 17.5577C91.2081 17.6307 91.0677 17.7372 90.9549 17.8699C90.7135 18.2128 90.5956 18.6276 90.6206 19.0463C90.5954 19.4611 90.7134 19.872 90.9549 20.2101C91.0644 20.3469 91.2046 20.4559 91.3641 20.5283C91.5237 20.6006 91.698 20.6343 91.873 20.6266Z" fill="#364650"/>
<path d="M97.8237 16.8518V17.5386H96.4866V21.2285H95.6477V17.5386H94.3164V16.8518H97.8237Z" fill="#364650"/>
<path d="M101.013 18.9611C101.306 18.978 101.583 19.0962 101.797 19.2955C101.895 19.3933 101.972 19.5102 102.022 19.6388C102.072 19.7675 102.095 19.9052 102.089 20.0432C102.089 20.8332 101.461 21.2283 100.205 21.2285H98.436V16.8518H100.144C100.609 16.8172 101.075 16.9141 101.487 17.1314C101.627 17.2272 101.739 17.3578 101.813 17.5103C101.886 17.6628 101.919 17.8319 101.907 18.0008C101.912 18.1227 101.893 18.2444 101.851 18.3589C101.808 18.4733 101.744 18.5782 101.661 18.6675C101.578 18.7569 101.477 18.8288 101.366 18.8792C101.255 18.9296 101.135 18.9574 101.013 18.9611ZM100.126 17.4718H99.2566V18.6753H100.156C100.801 18.6753 101.123 18.4768 101.123 18.0797C101.123 17.6745 100.79 17.4719 100.126 17.4718ZM100.187 20.6023C100.888 20.6023 101.238 20.3815 101.238 19.9398C101.238 19.4779 100.876 19.247 100.15 19.247H99.2566V20.6023L100.187 20.6023Z" fill="#364650"/>
<path d="M105.927 17.5386H103.654V18.651H105.806V19.2712H103.654V20.5417H105.927V21.2285H102.821V16.8518H105.927V17.5386Z" fill="#364650"/>
<path d="M110.432 20.5417H111.003V22.1888H110.274V21.2285H107.161V22.1888H106.438V20.5417H106.87C107.059 20.2298 107.201 19.8918 107.292 19.5385C107.387 19.1454 107.447 18.7447 107.471 18.3412L107.575 16.8518H110.432V20.5417ZM108.335 17.5266L108.286 18.3412C108.261 19.101 108.087 19.8485 107.775 20.5417H109.611V17.5266H108.335Z" fill="#364650"/>
<path d="M114.73 17.5386H112.457V18.651H114.609V19.2712H112.457V20.5417H114.73V21.2285H111.625V16.8518H114.73V17.5386Z" fill="#364650"/>
<path d="M118.48 16.8518H119.318V21.2285H118.48V19.2892H116.395V21.2285H115.562V16.8518H116.395V18.6024H118.48V16.8518Z" fill="#364650"/>
<path d="M120.291 21.2285V16.8518H121.081V20.1647L121.288 19.8486L123.379 16.8518H124.169V21.2285H123.379V17.9156L123.197 18.2014L121.081 21.2285H120.291Z" fill="#364650"/>
<path d="M128.555 16.8518V21.2284H127.728V19.5324H126.871C126.799 19.5324 126.744 19.5304 126.707 19.5264L125.747 21.2284H124.829L125.935 19.3987C125.655 19.3145 125.409 19.1444 125.23 18.9125C125.075 18.6944 124.994 18.4323 124.999 18.1648C124.985 17.9749 125.02 17.7845 125.099 17.6114C125.178 17.4382 125.3 17.2877 125.452 17.1739C125.872 16.9289 126.356 16.8167 126.841 16.8518H128.555ZM126.841 18.9002H127.728V17.5022H126.841C126.176 17.5022 125.844 17.7292 125.844 18.1831C125.838 18.2828 125.855 18.3826 125.893 18.4748C125.932 18.567 125.991 18.6492 126.066 18.715C126.297 18.861 126.569 18.9261 126.841 18.9002Z" fill="#364650"/>
<path d="M5.53711 1.86961C1.84525 1.86961 0 4.43161 0 7.47539V18.2964H3.41345V7.91544C3.41345 6.02233 4.42966 5.10058 5.69873 5.10058C6.01365 5.08931 6.32748 5.14419 6.61987 5.26169C6.91227 5.37919 7.17668 5.55669 7.39624 5.78273C7.6158 6.00878 7.7856 6.27835 7.89453 6.57405C8.00346 6.86974 8.04912 7.18499 8.02869 7.49945C8.04623 7.808 7.99762 8.11672 7.88611 8.40495C7.77459 8.69317 7.60272 8.95423 7.38208 9.17063C7.16144 9.38702 6.89715 9.55375 6.60681 9.65965C6.31648 9.76554 6.00688 9.80815 5.69873 9.78462H4.33691V12.7836H6.27478C6.96307 12.8199 7.65132 12.7111 8.2948 12.4641C8.93828 12.2172 9.5226 11.8377 10.0099 11.3502C10.4972 10.8628 10.8766 10.2783 11.1233 9.63472C11.37 8.99116 11.4787 8.30289 11.4421 7.61462C11.4755 6.83753 11.3442 6.06218 11.057 5.33933C10.7698 4.61649 10.3332 3.96246 9.77576 3.42008C9.21827 2.8777 8.55249 2.4592 7.82202 2.19201C7.09156 1.92482 6.31298 1.81495 5.53711 1.86961Z" fill="#364650"/>
<path d="M38.4565 9.66772C38.9626 9.34526 39.3769 8.89785 39.6598 8.36864C39.9426 7.83944 40.0843 7.24628 40.0713 6.64638C40.0713 4.26832 38.479 1.86955 34.8575 1.86955C34.15 1.82808 33.4417 1.93927 32.781 2.19557C32.1202 2.45187 31.5223 2.84728 31.0278 3.355C30.5333 3.86271 30.1538 4.47083 29.915 5.13812C29.6762 5.80542 29.5837 6.51627 29.6438 7.22246V18.2964H33.0588V7.19839C33.0232 6.93204 33.0458 6.66112 33.1253 6.40443C33.2048 6.14773 33.3393 5.91139 33.5193 5.71181C33.6992 5.51223 33.9203 5.35418 34.1675 5.24861C34.4146 5.14304 34.6817 5.09249 34.9503 5.10046C35.1851 5.09025 35.4193 5.13055 35.6372 5.21864C35.855 5.30673 36.0515 5.44055 36.2132 5.61107C36.3749 5.78158 36.4981 5.98482 36.5746 6.20705C36.651 6.42927 36.6788 6.66531 36.6562 6.89922C36.6562 8.53622 35.088 8.58427 34.4879 8.58427H33.9806V11.3976H34.9728C35.8034 11.3976 36.4962 11.3752 37.0035 12.1834C37.1965 12.5109 37.292 12.8867 37.2788 13.2667C37.2839 13.574 37.2294 13.8793 37.1186 14.166C36.9726 14.488 36.7228 14.7516 36.4092 14.9147C36.0955 15.0778 35.7362 15.1308 35.3888 15.0654H33.9806V18.2963H35.9648C36.7962 18.3652 37.6297 18.1903 38.3633 17.793C39.0968 17.3957 39.6987 16.7932 40.0953 16.0593C40.498 15.2991 40.7037 14.4502 40.6937 13.59C40.7321 12.7912 40.5421 11.998 40.1458 11.3033C39.7496 10.6087 39.1636 10.0413 38.4565 9.66772Z" fill="#364650"/>
<path d="M51.8134 9.66771C52.3195 9.34524 52.7339 8.89783 53.0167 8.36863C53.2995 7.83942 53.4413 7.24627 53.4282 6.64637C53.4282 4.26831 51.8359 1.86955 48.2144 1.86955C47.5069 1.82809 46.7988 1.93928 46.138 2.19558C45.4773 2.45188 44.8792 2.8473 44.3847 3.35501C43.8902 3.86272 43.5107 4.47084 43.2719 5.13813C43.0331 5.80542 42.9406 6.51627 43.0007 7.22245V18.2964H46.4157V7.19838C46.3801 6.93204 46.4028 6.66113 46.4823 6.40445C46.5618 6.14776 46.6961 5.91143 46.8761 5.71185C47.056 5.51227 47.2773 5.35421 47.5244 5.24864C47.7715 5.14306 48.0386 5.0925 48.3072 5.10045C48.5421 5.09019 48.7764 5.13044 48.9944 5.21849C49.2123 5.30653 49.4089 5.44032 49.5708 5.61082C49.7326 5.78132 49.856 5.98457 49.9326 6.20683C50.0092 6.42909 50.0372 6.6652 50.0147 6.89921C50.0147 8.53621 48.4448 8.58427 47.8447 8.58427H47.3375V11.3976H48.3297C49.1602 11.3976 49.853 11.3752 50.3603 12.1834C50.5538 12.5108 50.6499 12.8866 50.6373 13.2667C50.6418 13.5741 50.5869 13.8794 50.4757 14.166C50.3298 14.4881 50.0799 14.7518 49.7662 14.9149C49.4525 15.078 49.0931 15.131 48.7457 15.0654H47.3375V18.2963H49.3219C50.1533 18.3654 50.9867 18.1905 51.7203 17.7932C52.4539 17.3959 53.0557 16.7933 53.4521 16.0593C53.8548 15.2991 54.0606 14.4502 54.0506 13.59C54.089 12.7912 53.899 11.998 53.5028 11.3033C53.1066 10.6087 52.5205 10.0413 51.8134 9.66771Z" fill="#364650"/>
<path d="M54.0507 18.2964H29.6436V21.2265H54.0507V18.2964Z" fill="url(#paint0_linear)"/>
<path d="M10.7664 18.5823C10.7072 18.488 10.6516 18.3926 10.5983 18.2964H0V21.2265H14.4386C12.9154 20.8602 11.5967 19.9107 10.7664 18.5823Z" fill="#AFABAB"/>
<path d="M28.5405 17.5772C28.2946 17.1842 27.965 16.8504 27.5753 16.5995C27.1855 16.3486 26.7451 16.1868 26.2856 16.1257C25.4996 14.7512 24.9734 13.2436 24.7334 11.6785C24.46 10.3538 24.3221 9.00465 24.3217 7.652C24.9273 7.16351 25.3788 6.5104 25.6218 5.77129C25.8648 5.03218 25.889 4.23857 25.6915 3.48602C25.494 2.73347 25.0832 2.05404 24.5085 1.52955C23.9338 1.00505 23.2198 0.657842 22.4524 0.529715C21.6849 0.401588 20.8968 0.498004 20.1829 0.807364C19.469 1.11672 18.8598 1.62583 18.4285 2.27341C17.9973 2.92098 17.7623 3.67941 17.752 4.45738C17.7418 5.23535 17.9566 5.99971 18.3707 6.65843C18.5084 6.87767 18.6664 7.08341 18.8427 7.27293C18.7476 7.74544 18.5866 8.20224 18.3643 8.62993C17.9849 9.21033 17.5085 9.72123 16.9561 10.1403C16.0152 9.94295 15.0386 10.0024 14.1286 10.3125C13.2186 10.6226 12.4088 11.1719 11.7843 11.9028C11.1597 12.6337 10.7434 13.5192 10.5789 14.4664C10.4145 15.4136 10.508 16.3877 10.8497 17.2863C11.1914 18.1849 11.7686 18.975 12.5208 19.5737C13.2731 20.1723 14.1726 20.5575 15.125 20.6888C16.0773 20.8201 17.0475 20.6926 17.9337 20.3198C18.8198 19.9469 19.5893 19.3424 20.1613 18.5698C20.6019 18.5689 21.0414 18.6116 21.4736 18.6973C21.9015 18.7825 22.3168 18.9224 22.7091 19.1134C22.6866 19.6084 22.781 20.1017 22.9845 20.5536C23.1879 21.0054 23.4948 21.403 23.8803 21.7143C24.2659 22.0256 24.7192 22.2418 25.2037 22.3455C25.6882 22.4492 26.1905 22.4374 26.6696 22.3112C27.1488 22.185 27.5914 21.9478 27.962 21.6188C28.3326 21.2898 28.6206 20.8783 28.8027 20.4175C28.9848 19.9566 29.056 19.4594 29.0105 18.966C28.9649 18.4726 28.8039 17.9968 28.5405 17.5771V17.5772ZM24.2469 16.545L24.1861 16.5802C23.6504 16.9167 23.2278 17.4061 22.9731 17.9852C22.6837 17.9524 22.4003 17.8791 22.1313 17.7676C21.6939 17.5396 21.3129 17.217 21.016 16.8232C21.2891 15.8594 21.2852 14.8382 21.0048 13.8765C20.7245 12.9148 20.179 12.0516 19.4307 11.3855C19.4409 10.7481 19.5921 10.1207 19.8734 9.54855C20.1412 9.11354 20.4978 8.73998 20.9199 8.45231C21.5001 8.57856 22.1009 8.57574 22.6799 8.44404C23.3004 9.66613 23.7717 10.9584 24.0836 12.293C24.3436 13.695 24.3986 15.1272 24.2469 16.545Z" fill="#364650"/>
<defs>
<linearGradient id="paint0_linear" x1="53.5675" y1="19.7614" x2="33.9437" y2="19.7614" gradientUnits="userSpaceOnUse">
<stop offset="0.13102" stop-color="white"/>
<stop offset="0.28193" stop-color="#ECEBEB"/>
<stop offset="0.5867" stop-color="#CBC8C8"/>
<stop offset="0.83699" stop-color="#B6B3B3"/>
<stop offset="1" stop-color="#AFABAB"/>
</linearGradient>
</defs>
</svg>
